<svg width="543.000000" height="500.000000" viewBox="0 0 543 500" fill="none" xmlns="http://www.w3.org/2000/svg" xmlns:xlink="http://www.w3.org/1999/xlink">
	<desc>
			Created with Pixso.
	</desc>
	<defs/>
	<path id="Vector" d="M122.06 459.97C215.54 513.34 367.1 513.34 460.58 459.97C554.06 406.61 554.07 320.06 460.58 266.69C367.09 213.32 215.54 213.31 122.06 266.69C28.58 320.07 28.58 406.59 122.06 459.97Z" fill="#EBEBEB" fill-opacity="1.000000" fill-rule="nonzero"/>
	<path id="Vector" d="M488.07 327.56L474.44 319.08C474.44 319.08 471.1 287.83 473.31 263.64C476.45 229.62 496.98 188.73 521.46 198.31C545.94 207.9 510.22 242.62 502.29 271.45C494.36 300.28 488.07 327.56 488.07 327.56Z" fill="#02897A" fill-opacity="1.000000" fill-rule="nonzero"/>
	<g opacity="0.100000">
		<path id="Vector" d="M488.07 327.56L474.44 319.08C474.44 319.08 471.1 287.83 473.31 263.64C476.45 229.62 496.98 188.73 521.46 198.31C545.94 207.9 510.22 242.62 502.29 271.45C494.36 300.28 488.07 327.56 488.07 327.56Z" fill="#000000" fill-opacity="1.000000" fill-rule="nonzero"/>
	</g>
	<path id="Vector" d="M480.98 323.73C480.85 323.73 480.73 323.68 480.63 323.6C480.53 323.51 480.47 323.38 480.45 323.25C475.81 285.09 488.51 227.41 514.14 205.54C514.19 205.49 514.25 205.46 514.32 205.44C514.39 205.42 514.45 205.41 514.52 205.42C514.59 205.43 514.65 205.45 514.71 205.48C514.77 205.52 514.83 205.56 514.87 205.62C514.95 205.74 515 205.89 514.98 206.03C514.96 206.18 514.9 206.32 514.79 206.41C489.43 228.06 476.9 285.29 481.49 323.09C481.51 323.24 481.48 323.39 481.39 323.51C481.31 323.63 481.18 323.71 481.04 323.73L480.98 323.73Z" fill="#FFFFFF" fill-opacity="1.000000" fill-rule="nonzero"/>
	<path id="Vector" d="M495.35 333.6L485.66 327.59C485.66 327.59 484 306.15 493.83 280.1C502.38 257.49 523.61 238.61 534.29 242.56C544.96 246.52 544.7 254.62 539.5 263.11C534.29 271.61 502.62 291.86 495.35 333.6Z" fill="#02897A" fill-opacity="1.000000" fill-rule="nonzero"/>
	<path id="Vector" d="M489.34 334.15C489.27 334.14 489.2 334.12 489.14 334.09C489.08 334.06 489.03 334.02 488.98 333.96C488.93 333.9 488.9 333.84 488.88 333.77C488.86 333.7 488.85 333.63 488.85 333.55C492.05 280.19 517.28 253.94 532.45 249.94C532.59 249.91 532.73 249.93 532.85 250.01C532.98 250.08 533.06 250.21 533.1 250.35C533.13 250.5 533.11 250.65 533.04 250.78C532.97 250.9 532.85 250.99 532.72 251.03C516.74 255.27 492.91 283.68 489.92 333.62C489.92 333.7 489.9 333.77 489.87 333.84C489.83 333.91 489.79 333.97 489.74 334.02C489.68 334.07 489.62 334.1 489.55 334.12C489.48 334.15 489.41 334.15 489.34 334.15Z" fill="#FFFFFF" fill-opacity="1.000000" fill-rule="nonzero"/>
	<path id="Vector" d="M95.35 331.71C95.35 331.71 97.16 300.38 80.14 278.9C63.12 257.42 40.96 257.5 33.63 261.5C26.3 265.5 21.37 276.94 33.99 285.12C46.61 293.3 73.44 309.68 77.91 324.29L95.35 331.71Z" fill="#02897A" fill-opacity="1.000000" fill-rule="nonzero"/>
	<g opacity="0.100000">
		<path id="Vector" d="M95.35 331.71C95.35 331.71 97.16 300.38 80.14 278.9C63.12 257.42 40.96 257.5 33.63 261.5C26.3 265.5 21.37 276.94 33.99 285.12C46.61 293.3 73.44 309.68 77.91 324.29L95.35 331.71Z" fill="#000000" fill-opacity="1.000000" fill-rule="nonzero"/>
	</g>
	<path id="Vector" d="M87.34 323.87C87.18 323.87 87.02 323.8 86.9 323.69C86.78 323.57 86.7 323.41 86.68 323.24C83.18 288.57 50.78 269.36 37.87 267.18C37.79 267.17 37.7 267.14 37.63 267.09C37.55 267.04 37.49 266.98 37.43 266.9C37.38 266.83 37.34 266.74 37.32 266.65C37.3 266.56 37.3 266.46 37.31 266.37C37.32 266.28 37.35 266.19 37.4 266.11C37.44 266.03 37.5 265.96 37.57 265.9C37.65 265.85 37.73 265.81 37.81 265.78C37.9 265.76 37.98 265.76 38.07 265.77C51.28 267.99 84.41 287.64 88 323.08C88.01 323.17 88 323.27 87.98 323.36C87.95 323.45 87.91 323.53 87.85 323.6C87.8 323.67 87.73 323.73 87.65 323.78C87.58 323.82 87.49 323.85 87.41 323.86L87.34 323.87Z" fill="#FFFFFF" fill-opacity="1.000000" fill-rule="nonzero"/>
	<path id="Vector" d="M81.04 315.91C76.77 305.51 71.95 300.85 58.07 303.34C44.2 305.82 46.18 305.44 29.21 300.79C22.04 298.84 14 298.53 7.13 301.84C1.33 304.66 -3.01 310.32 2.61 316.34C8.92 323.07 18.34 325.37 25.32 331.29C26.9 332.49 28.16 334.11 28.97 336C30.8 341 27.13 346.64 28.2 351.88C29.27 357.13 34.42 359.92 39.26 360.26C44.1 360.6 48.87 359.05 53.69 358.45C58.51 357.86 63.93 358.45 67.26 362.28C70.82 366.34 70.92 372.83 74.23 377.14C79.2 383.6 91.41 385.39 98.02 381.38L115.31 370.71C126.74 354.23 108.7 341.17 99.26 328.38C94.67 322.15 83.6 322.18 81.04 315.91Z" fill="#02897A" fill-opacity="1.000000" fill-rule="nonzero"/>
	<path id="Vector" d="M104.6 360.76C104.48 360.76 104.37 360.73 104.27 360.67C104.18 360.61 104.1 360.52 104.04 360.42C84.31 326.23 30.61 308.93 11.61 307.52C11.43 307.51 11.27 307.42 11.16 307.28C11.05 307.14 10.99 306.96 11 306.77C11.01 306.58 11.09 306.41 11.22 306.29C11.35 306.16 11.52 306.1 11.7 306.11C30.95 307.52 85.17 325.07 105.16 359.71C105.25 359.87 105.28 360.07 105.24 360.25C105.19 360.43 105.09 360.59 104.94 360.69C104.83 360.74 104.71 360.76 104.6 360.76Z" fill="#FFFFFF" fill-opacity="1.000000" fill-rule="nonzero"/>
	<path id="Vector" d="M42.11 344.65C42.01 344.65 41.91 344.62 41.82 344.58C41.72 344.53 41.65 344.45 41.59 344.36C41.48 344.21 41.44 344.03 41.46 343.84C41.48 343.65 41.58 343.49 41.72 343.38C42.4 342.82 58.79 329.96 74.75 329.71C74.83 329.71 74.92 329.72 75 329.76C75.08 329.79 75.15 329.84 75.21 329.91C75.28 329.97 75.33 330.05 75.36 330.13C75.39 330.22 75.41 330.31 75.41 330.4C75.41 330.49 75.4 330.59 75.36 330.67C75.33 330.76 75.29 330.84 75.23 330.9C75.16 330.97 75.09 331.03 75.01 331.06C74.93 331.1 74.85 331.12 74.76 331.12C59.26 331.36 42.71 344.38 42.54 344.51C42.42 344.61 42.27 344.66 42.11 344.65Z" fill="#FFFFFF" fill-opacity="1.000000" fill-rule="nonzero"/>
	<path id="Vector" d="M103.37 372.77C103.51 374.83 104.1 376.82 105.09 378.58C106.09 380.35 107.46 381.84 109.09 382.93L269.39 481.93C271.17 482.9 273.13 483.4 275.12 483.4C277.1 483.4 279.06 482.9 280.84 481.93L500.16 346.47C501.89 345.49 503.34 344.03 504.35 342.24C505.36 340.45 505.89 338.4 505.89 336.31C505.89 334.22 505.36 332.17 504.35 330.38C503.34 328.58 501.89 327.12 500.16 326.15L339.87 227.22C338.1 226.25 336.14 225.75 334.15 225.75C332.16 225.75 330.2 226.25 328.43 227.22L109.09 362.64C107.46 363.73 106.09 365.22 105.1 366.98C104.11 368.74 103.51 370.72 103.37 372.77Z" fill="#37474F" fill-opacity="1.000000" fill-rule="nonzero"/>
	<path id="Vector" d="M169.51 325.3L109.09 362.64C107.36 363.61 105.91 365.08 104.9 366.87C103.89 368.66 103.36 370.71 103.36 372.8C103.36 374.89 103.89 376.94 104.9 378.73C105.91 380.52 107.36 381.98 109.09 382.96L269.39 481.96C271.16 482.95 273.13 483.43 275.12 483.38L275.12 325.3L169.51 325.3Z" fill="#263238" fill-opacity="1.000000" fill-rule="nonzero"/>
	<path id="Vector" d="M97.99 362.84C96.4 361.67 95.08 360.13 94.15 358.33C93.22 356.52 92.7 354.51 92.62 352.45L92.62 147.82C92.73 145.69 93.3 143.63 94.3 141.78C95.29 139.94 96.68 138.38 98.35 137.22L317.67 1.75C319.33 0.64 321.24 0.04 323.19 0C325.14 -0.04 327.07 0.49 328.76 1.54C330.46 2.58 331.85 4.1 332.8 5.93C333.74 7.76 334.21 9.83 334.14 11.92L334.14 216.56C334.03 218.68 333.45 220.75 332.46 222.59C331.46 224.43 330.08 226 328.41 227.16L109.09 362.64C107.38 363.6 105.49 364.12 103.56 364.15C101.63 364.19 99.72 363.74 97.99 362.84Z" fill="#455A64" fill-opacity="1.000000" fill-rule="nonzero"/>
	<path id="Vector" d="M119.47 157.33L94.3 141.78C93.3 143.62 92.75 145.69 92.7 147.82L92.7 352.45C92.78 354.51 93.3 356.52 94.23 358.33C95.16 360.13 96.48 361.67 98.07 362.84C99.8 363.73 101.71 364.18 103.64 364.14C105.56 364.1 107.45 363.57 109.15 362.61L134.18 347.16L119.47 157.33Z" fill="#263238" fill-opacity="1.000000" fill-rule="nonzero"/>
	<path id="Vector" d="M103.37 154.46L103.37 359.08C103.37 362.98 105.93 364.56 109.09 362.61L328.41 227.16C330.08 226 331.46 224.43 332.46 222.59C333.45 220.75 334.03 218.68 334.14 216.56L334.14 11.93C334.14 8.03 331.57 6.45 328.41 8.4L109.09 143.86C107.42 145.02 106.04 146.59 105.04 148.43C104.05 150.27 103.47 152.34 103.37 154.46Z" fill="#37474F" fill-opacity="1.000000" fill-rule="nonzero"/>
	<path id="Vector" d="M109.09 369.7L269.39 468.63C271.17 469.6 273.13 470.1 275.12 470.1C277.1 470.1 279.06 469.6 280.84 468.63L500.16 333.17C503.33 331.22 503.33 328.05 500.16 326.1L339.87 227.17C338.1 226.21 336.14 225.71 334.15 225.71C332.16 225.71 330.2 226.21 328.43 227.17L109.09 362.64C105.92 364.56 105.92 367.73 109.09 369.7Z" fill="#455A64" fill-opacity="1.000000" fill-rule="nonzero"/>
	<path id="Vector" d="M112.17 155.21L325.35 23.56C327.24 22.39 328.78 23.33 328.78 25.68L328.78 202.81C328.72 204.08 328.37 205.32 327.78 206.43C327.18 207.53 326.35 208.47 325.35 209.17L112.17 340.82C110.26 341.99 108.73 341.04 108.73 338.7L108.73 161.57C108.79 160.29 109.14 159.05 109.74 157.95C110.33 156.84 111.17 155.9 112.17 155.21Z" fill="#FFFFFF" fill-opacity="1.000000" fill-rule="nonzero"/>
	<path id="Vector" d="M127.69 364.38L331.28 238.59C332.17 238.11 333.15 237.86 334.14 237.86C335.14 237.86 336.12 238.11 337 238.59L347.43 245.02C347.77 245.15 348.07 245.39 348.28 245.7C348.5 246.02 348.61 246.4 348.61 246.79C348.61 247.18 348.5 247.56 348.28 247.88C348.07 248.19 347.77 248.43 347.43 248.56L143.8 374.33C142.91 374.81 141.93 375.06 140.94 375.06C139.94 375.06 138.96 374.81 138.08 374.33L127.69 367.91C127.35 367.78 127.05 367.55 126.83 367.23C126.62 366.91 126.51 366.53 126.51 366.14C126.51 365.75 126.62 365.37 126.83 365.06C127.05 364.74 127.35 364.5 127.69 364.38Z" fill="#263238" fill-opacity="1.000000" fill-rule="nonzero"/>
	<path id="Vector" d="M154.54 381.01L358.12 255.23C359 254.75 359.99 254.5 360.98 254.5C361.98 254.5 362.96 254.75 363.85 255.23L427.89 294.8C428.24 294.92 428.54 295.16 428.75 295.48C428.96 295.8 429.07 296.18 429.07 296.57C429.07 296.96 428.96 297.34 428.75 297.65C428.54 297.97 428.24 298.21 427.89 298.33L224.54 423.86C223.65 424.34 222.67 424.59 221.67 424.59C220.68 424.59 219.69 424.34 218.8 423.86L154.54 384.47C154.21 384.34 153.93 384.1 153.73 383.79C153.53 383.48 153.42 383.12 153.42 382.74C153.42 382.37 153.53 382 153.73 381.69C153.93 381.38 154.21 381.14 154.54 381.01Z" fill="#263238" fill-opacity="1.000000" fill-rule="nonzero"/>
	<path id="Vector" d="M337.03 311.76L343.41 307.82C343.67 307.65 343.66 307.38 343.41 307.19L336.04 302.64C335.88 302.56 335.71 302.51 335.53 302.51C335.35 302.51 335.18 302.56 335.02 302.64L328.65 306.59C328.37 306.76 328.39 307.02 328.65 307.21L336.02 311.76C336.18 311.84 336.35 311.89 336.53 311.89C336.7 311.89 336.87 311.84 337.03 311.76ZM324.45 296.21L318.08 300.16C317.8 300.31 317.82 300.59 318.08 300.78L325.45 305.33C325.61 305.42 325.79 305.46 325.96 305.46C326.14 305.46 326.31 305.42 326.47 305.33L332.85 301.39C333.12 301.22 333.1 300.93 332.85 300.76L325.47 296.21C325.31 296.13 325.14 296.08 324.96 296.08C324.78 296.08 324.61 296.13 324.45 296.21ZM303.87 308.93L293.07 315.59C292.81 315.76 292.82 316.04 293.07 316.23L300.44 320.78C300.6 320.86 300.78 320.91 300.95 320.91C301.13 320.91 301.3 320.86 301.46 320.78L312.24 314.12C312.52 313.95 312.49 313.67 312.24 313.5L304.87 308.93C304.71 308.85 304.54 308.8 304.37 308.8C304.19 308.8 304.02 308.85 303.87 308.93ZM315.14 301.97L308.77 305.91C308.49 306.08 308.5 306.36 308.77 306.53L316.14 311.08C316.3 311.17 316.47 311.21 316.65 311.21C316.82 311.21 317 311.17 317.16 311.08L323.54 307.14C323.8 306.97 323.79 306.7 323.54 306.52L316.15 301.87C316 301.78 315.82 301.73 315.64 301.73C315.47 301.73 315.29 301.78 315.14 301.87L315.14 301.97ZM290.12 317.41L283.76 321.34C283.48 321.51 283.51 321.79 283.76 321.98L291.13 326.53C291.28 326.61 291.46 326.65 291.63 326.65C291.81 326.65 291.98 326.61 292.13 326.53L298.51 322.59C298.78 322.42 298.76 322.13 298.51 321.96L291.14 317.41C290.98 317.32 290.81 317.28 290.63 317.28C290.46 317.28 290.28 317.32 290.12 317.41ZM280.88 323.16L274.51 327.11C274.23 327.26 274.26 327.54 274.51 327.73L281.88 332.28C282.04 332.37 282.21 332.41 282.39 332.41C282.57 332.41 282.74 332.37 282.9 332.28L289.28 328.34C289.54 328.17 289.53 327.88 289.28 327.72L281.83 323.07C281.67 322.98 281.5 322.93 281.32 322.93C281.14 322.93 280.97 322.98 280.81 323.07L280.88 323.16ZM309.88 341.68L316.25 337.74C316.52 337.57 316.5 337.3 316.25 337.11L308.87 332.56C308.72 332.48 308.54 332.43 308.37 332.43C308.2 332.43 308.02 332.48 307.87 332.56L301.49 336.51C301.22 336.68 301.24 336.94 301.49 337.13L308.86 341.68C309.01 341.74 309.18 341.77 309.34 341.76C309.51 341.75 309.67 341.69 309.81 341.61L309.88 341.68ZM300.55 347.43L306.93 343.49C307.19 343.33 307.18 343.05 306.93 342.87L299.56 338.32C299.4 338.23 299.23 338.18 299.05 338.18C298.87 338.18 298.7 338.23 298.54 338.32L292.17 342.26C291.9 342.43 291.92 342.71 292.17 342.88L299.54 347.43C299.7 347.5 299.86 347.52 300.02 347.51C300.18 347.5 300.34 347.45 300.48 347.36L300.55 347.43ZM291.23 353.18L297.62 349.25C297.88 349.08 297.87 348.8 297.62 348.62L290.24 344.07C290.09 343.98 289.91 343.94 289.73 343.94C289.56 343.94 289.38 343.98 289.23 344.07L282.86 348.01C282.58 348.18 282.61 348.46 282.86 348.63L290.22 353.18C290.37 353.25 290.54 353.27 290.7 353.26C290.86 353.25 291.02 353.2 291.17 353.11L291.23 353.18ZM281.99 358.93L288.37 355.01C288.63 354.84 288.62 354.55 288.37 354.37L280.99 349.82C280.84 349.73 280.66 349.69 280.49 349.69C280.31 349.69 280.13 349.73 279.98 349.82L273.61 353.75C273.33 353.92 273.34 354.2 273.61 354.38L280.98 358.93C281.27 359.04 281.58 359.01 281.85 358.86L281.99 358.93ZM327.85 317.61L334.23 313.67C334.49 313.51 334.48 313.23 334.23 313.04L326.85 308.49C326.7 308.41 326.52 308.37 326.35 308.37C326.17 308.37 326 308.41 325.84 308.49L319.47 312.44C319.19 312.61 319.21 312.89 319.47 313.06L326.84 317.61C326.98 317.66 327.13 317.68 327.28 317.67C327.43 317.66 327.58 317.61 327.71 317.54L327.85 317.61ZM319.26 335.98L333.47 327.19C333.74 327.04 333.73 326.75 333.47 326.57L315.57 315.52C315.41 315.43 315.24 315.39 315.06 315.39C314.89 315.39 314.71 315.43 314.55 315.52L307.21 320.07C306.93 320.22 306.96 320.51 307.21 320.69L316.69 326.54C316.99 326.73 317 327.01 316.69 327.18L310.71 330.65C310.45 330.81 310.46 331.09 310.71 331.28L318.11 335.79C318.26 335.88 318.43 335.94 318.61 335.95C318.79 335.97 318.96 335.93 319.13 335.86L319.26 335.98ZM271.63 328.92L265.26 332.86C264.98 333.03 264.99 333.3 265.26 333.48L272.63 338.03C272.79 338.12 272.96 338.16 273.14 338.16C273.32 338.16 273.49 338.12 273.65 338.03L280.03 334.09C280.29 333.92 280.28 333.65 280.03 333.47L272.66 328.92C272.49 328.79 272.29 328.72 272.09 328.71C271.88 328.69 271.68 328.74 271.5 328.85L271.63 328.92ZM262.38 334.67L255.8 338.61C255.53 338.78 255.55 339.06 255.8 339.23L263.17 343.78C263.33 343.87 263.5 343.92 263.68 343.92C263.86 343.92 264.03 343.87 264.19 343.78L270.57 339.84C270.83 339.69 270.82 339.4 270.57 339.22L263.14 334.63C263 334.54 262.83 334.5 262.67 334.49C262.5 334.49 262.33 334.52 262.18 334.6L262.38 334.67ZM215.58 399.11C215.74 399.2 215.91 399.25 216.09 399.25C216.27 399.25 216.44 399.2 216.6 399.11L222.98 395.17C223.24 395.02 223.23 394.73 222.98 394.55L215.58 390.03C215.42 389.94 215.25 389.9 215.07 389.9C214.89 389.9 214.72 389.94 214.56 390.03L208.19 393.97C207.92 394.14 207.93 394.42 208.19 394.59L215.58 399.11ZM187.61 380.63L181.23 384.57C180.96 384.74 180.98 385.01 181.23 385.19L188.6 389.74C188.76 389.83 188.93 389.88 189.11 389.88C189.29 389.88 189.46 389.83 189.62 389.74L196 385.8C196.26 385.63 196.25 385.36 196 385.18L188.63 380.63C188.47 380.55 188.31 380.51 188.14 380.51C187.97 380.51 187.8 380.55 187.65 380.63L187.61 380.63ZM202.61 394.13C202.76 394.21 202.94 394.26 203.11 394.26C203.29 394.26 203.47 394.21 203.62 394.13L209.99 390.18C210.27 390.03 210.24 389.74 209.99 389.56L202.63 385.01C202.47 384.92 202.3 384.88 202.12 384.88C201.95 384.88 201.77 384.92 201.61 385.01L195.23 388.95C194.97 389.12 194.98 389.41 195.23 389.58L202.61 394.13ZM232.03 402.61L238.41 398.66C238.68 398.49 238.66 398.22 238.41 398.04L231.04 393.49C230.88 393.4 230.71 393.36 230.53 393.36C230.35 393.36 230.18 393.4 230.02 393.49L223.65 397.43C223.38 397.59 223.4 397.87 223.65 398.05L231.01 402.61C231.17 402.7 231.35 402.75 231.54 402.76C231.72 402.76 231.91 402.71 232.07 402.62L232.03 402.61ZM221.7 408.26C221.85 408.35 222.03 408.39 222.21 408.39C222.38 408.39 222.56 408.35 222.71 408.26L229.1 404.32C229.36 404.16 229.35 403.88 229.1 403.69L221.72 399.14C221.57 399.06 221.39 399.01 221.22 399.01C221.04 399.01 220.86 399.06 220.71 399.14L214.34 403.09C214.06 403.26 214.07 403.54 214.34 403.71L221.7 408.26ZM196.92 374.79L190.56 378.74C190.28 378.89 190.29 379.17 190.56 379.36L197.93 383.91C198.09 383.99 198.26 384.04 198.44 384.04C198.61 384.04 198.79 383.99 198.95 383.91L205.33 379.96C205.59 379.8 205.58 379.51 205.33 379.34L197.95 374.79C197.79 374.72 197.62 374.69 197.45 374.71C197.28 374.72 197.11 374.78 196.96 374.88L196.92 374.79ZM243.51 346.03L237.13 349.96C236.87 350.13 236.88 350.41 237.13 350.58L244.5 355.15C244.66 355.23 244.83 355.27 245.01 355.27C245.19 355.27 245.36 355.23 245.52 355.15L251.89 351.22C252.17 351.05 252.15 350.77 251.89 350.58L244.52 346.03C244.36 345.97 244.19 345.94 244.02 345.96C243.86 345.97 243.7 346.03 243.55 346.12L243.51 346.03ZM206.33 369.12L199.96 373.05C199.69 373.22 199.7 373.51 199.96 373.69L207.34 378.24C207.49 378.32 207.67 378.37 207.84 378.37C208.02 378.37 208.19 378.32 208.35 378.24L214.73 374.3C215 374.13 214.99 373.85 214.73 373.68L207.36 369.11C207.2 369.03 207.02 368.98 206.85 368.99C206.67 368.99 206.49 369.04 206.33 369.12ZM252.92 340.35L246.48 344.27C246.22 344.43 246.23 344.72 246.48 344.89L253.86 349.44C254.01 349.52 254.19 349.57 254.37 349.57C254.54 349.57 254.72 349.52 254.87 349.44L261.24 345.51C261.52 345.34 261.51 345.06 261.24 344.87L253.9 340.38C253.74 340.29 253.56 340.24 253.38 340.23C253.21 340.23 253.03 340.27 252.87 340.35L252.92 340.35ZM234.29 351.87L227.91 355.8C227.64 355.97 227.66 356.25 227.91 356.43L235.28 360.98C235.44 361.07 235.61 361.11 235.79 361.11C235.96 361.11 236.14 361.07 236.3 360.98L242.67 357.06C242.94 356.89 242.92 356.6 242.67 356.42L235.31 351.87C235.14 351.78 234.96 351.73 234.77 351.73C234.58 351.73 234.4 351.78 234.24 351.87L234.29 351.87ZM224.96 357.62L218.59 361.55C218.32 361.72 218.34 362 218.59 362.19L225.97 366.74C226.12 366.82 226.3 366.86 226.47 366.86C226.65 366.86 226.82 366.82 226.98 366.74L233.35 362.81C233.62 362.64 233.6 362.36 233.35 362.17L225.98 357.62C225.81 357.53 225.63 357.48 225.44 357.48C225.26 357.48 225.07 357.53 224.91 357.62L224.96 357.62ZM215.58 363.37L209.21 367.3C208.93 367.47 208.96 367.75 209.21 367.94L216.57 372.49C216.73 372.58 216.9 372.62 217.08 372.62C217.26 372.62 217.43 372.58 217.59 372.49L223.97 368.56C224.23 368.39 224.22 368.11 223.97 367.92L216.6 363.37C216.44 363.29 216.27 363.25 216.09 363.25C215.91 363.25 215.74 363.29 215.58 363.37ZM263.21 370.44L269.58 366.51C269.86 366.34 269.84 366.06 269.58 365.87L262.19 361.22C262.04 361.14 261.86 361.1 261.68 361.1C261.51 361.1 261.33 361.14 261.18 361.22L254.79 365.15C254.53 365.32 254.54 365.61 254.79 365.79L262.17 370.34C262.33 370.44 262.51 370.49 262.69 370.5C262.88 370.5 263.06 370.46 263.22 370.37L263.21 370.44ZM345.06 283.49L338.68 287.44C338.42 287.61 338.43 287.87 338.68 288.06L346.05 292.61C346.21 292.7 346.38 292.74 346.56 292.74C346.74 292.74 346.91 292.7 347.07 292.61L353.44 288.67C353.72 288.5 353.7 288.23 353.44 288.04L346.07 283.49C345.91 283.41 345.74 283.37 345.56 283.37C345.39 283.37 345.22 283.41 345.06 283.49ZM333.78 290.46L327.41 294.4C327.13 294.56 327.16 294.84 327.41 295.03L334.77 299.58C334.93 299.66 335.1 299.7 335.28 299.7C335.45 299.7 335.63 299.66 335.79 299.58L342.17 295.63C342.43 295.46 342.42 295.18 342.17 295.01L334.8 290.46C334.64 290.36 334.47 290.3 334.29 290.29C334.11 290.28 333.93 290.31 333.77 290.39L333.78 290.46ZM354.38 277.74L348.01 281.68C347.73 281.84 347.74 282.12 348.01 282.31L355.38 286.86C355.54 286.94 355.71 286.99 355.89 286.99C356.07 286.99 356.24 286.94 356.4 286.86L362.78 282.91C363.04 282.74 363.03 282.46 362.78 282.29L355.41 277.74C355.25 277.63 355.06 277.56 354.87 277.55C354.68 277.54 354.48 277.58 354.31 277.67L354.38 277.74ZM306.15 330.94L312.53 326.99C312.8 326.82 312.78 326.54 312.53 326.37L305.16 321.82C305 321.74 304.83 321.69 304.65 321.69C304.47 321.69 304.3 321.74 304.14 321.82L297.77 325.76C297.5 325.92 297.51 326.2 297.77 326.39L305.15 330.94C305.31 331.01 305.48 331.04 305.65 331.03C305.82 331.02 305.99 330.96 306.14 330.87L306.15 330.94ZM364.71 272.02C364.55 271.93 364.38 271.89 364.2 271.89C364.02 271.89 363.85 271.93 363.69 272.02L357.32 275.96C357.05 276.12 357.06 276.4 357.32 276.58L364.7 281.13C364.85 281.22 365.03 281.26 365.2 281.26C365.38 281.26 365.55 281.22 365.71 281.13L372.09 277.19C372.36 277.02 372.35 276.74 372.09 276.57L364.71 272.02ZM272.54 364.62L278.92 360.69C279.18 360.52 279.17 360.24 278.92 360.05L271.51 355.57C271.35 355.48 271.18 355.44 271 355.44C270.82 355.44 270.65 355.48 270.49 355.57L264.12 359.5C263.85 359.67 263.86 359.95 264.12 360.14L271.5 364.69C271.66 364.76 271.84 364.8 272.02 364.79C272.21 364.77 272.38 364.72 272.54 364.62ZM386.79 294.06L393.17 290.12C393.43 289.97 393.42 289.68 393.17 289.5L385.76 284.91C385.6 284.82 385.42 284.77 385.25 284.77C385.07 284.77 384.9 284.82 384.74 284.91L378.37 288.85C378.09 289.02 378.11 289.3 378.37 289.47L385.74 294.02C385.9 294.12 386.08 294.18 386.26 294.18C386.44 294.19 386.62 294.15 386.79 294.06ZM366.97 293.32L373.35 289.37C373.61 289.2 373.6 288.93 373.35 288.75L365.98 284.2C365.82 284.11 365.65 284.07 365.47 284.07C365.29 284.07 365.12 284.11 364.96 284.2L358.59 288.14C358.31 288.31 358.33 288.58 358.59 288.76L365.96 293.32C366.11 293.41 366.28 293.46 366.44 293.47C366.61 293.49 366.78 293.46 366.94 293.39L366.97 293.32ZM375.25 278.45C375.09 278.36 374.92 278.32 374.74 278.32C374.57 278.32 374.39 278.36 374.23 278.45L367.87 282.39C367.59 282.55 367.6 282.83 367.87 283.01L375.24 287.56C375.4 287.65 375.57 287.7 375.75 287.7C375.92 287.7 376.1 287.65 376.26 287.56L382.64 283.62C382.9 283.45 382.89 283.17 382.64 283L375.25 278.45ZM377.22 277.23L395.11 288.28C395.27 288.37 395.44 288.42 395.62 288.42C395.8 288.42 395.97 288.37 396.13 288.28L402.51 284.34C402.77 284.17 402.76 283.9 402.51 283.72L384.61 272.67C384.45 272.58 384.27 272.54 384.1 272.54C383.92 272.54 383.75 272.58 383.59 272.67L377.22 276.61C376.88 276.77 376.9 277.05 377.19 277.23L377.22 277.23ZM355.61 289.95L349.22 293.9C348.96 294.06 348.97 294.35 349.22 294.52L356.6 299.07C356.75 299.15 356.93 299.2 357.1 299.2C357.28 299.2 357.46 299.15 357.61 299.07L363.98 295.12C364.26 294.97 364.25 294.69 363.98 294.5L356.61 289.95C356.46 289.87 356.29 289.82 356.12 289.82C355.95 289.81 355.79 289.85 355.63 289.92L355.61 289.95ZM285.49 333.26L279.08 337.2C278.81 337.37 278.83 337.65 279.08 337.82L286.45 342.37C286.61 342.46 286.78 342.5 286.96 342.5C287.14 342.5 287.31 342.46 287.47 342.37L293.84 338.43C294.11 338.27 294.1 337.99 293.84 337.81L286.46 333.26C286.31 333.17 286.14 333.12 285.97 333.11C285.79 333.11 285.62 333.15 285.46 333.23L285.49 333.26ZM376.48 299.82C376.64 299.9 376.81 299.95 376.99 299.95C377.17 299.95 377.34 299.9 377.5 299.82L383.88 295.87C384.14 295.72 384.13 295.44 383.88 295.25L376.51 290.7C376.35 290.62 376.18 290.57 376 290.57C375.82 290.57 375.65 290.62 375.49 290.7L369.12 294.64C368.84 294.81 368.86 295.1 369.12 295.27L376.48 299.82ZM294.8 327.5L288.43 331.45C288.16 331.62 288.17 331.88 288.43 332.07L295.81 336.62C295.96 336.71 296.14 336.75 296.31 336.75C296.49 336.75 296.67 336.71 296.82 336.62L303.2 332.68C303.47 332.51 303.46 332.24 303.2 332.05L295.83 327.5C295.67 327.4 295.49 327.35 295.31 327.35C295.12 327.34 294.94 327.39 294.78 327.47L294.8 327.5ZM224.96 393.39C225.12 393.48 225.29 393.52 225.47 393.52C225.65 393.52 225.82 393.48 225.98 393.39L232.36 389.45C232.62 389.28 232.61 389.01 232.36 388.83L224.99 384.28C224.83 384.19 224.66 384.14 224.48 384.14C224.3 384.14 224.13 384.19 223.97 384.28L217.6 388.22C217.32 388.39 217.35 388.66 217.6 388.84L224.96 393.39ZM210.96 379.26L204.57 383.2C204.31 383.37 204.32 383.64 204.57 383.82L211.95 388.37C212.1 388.46 212.28 388.51 212.46 388.51C212.63 388.51 212.81 388.46 212.96 388.37L219.33 384.43C219.61 384.26 219.6 383.99 219.33 383.81L211.96 379.26C211.8 379.17 211.62 379.12 211.44 379.12C211.27 379.12 211.09 379.17 210.93 379.26L210.96 379.26ZM235.31 387.64L241.67 383.7C241.94 383.53 241.93 383.24 241.67 383.07L234.3 378.52C234.14 378.44 233.97 378.39 233.79 378.39C233.62 378.39 233.44 378.44 233.28 378.52L226.85 382.42C226.59 382.58 226.6 382.86 226.85 383.05L234.22 387.6C234.38 387.7 234.56 387.75 234.75 387.76C234.93 387.77 235.11 387.73 235.28 387.64L235.31 387.64ZM244.62 381.89L250.99 377.94C251.27 377.77 251.24 377.49 250.99 377.32L243.63 372.77C243.47 372.68 243.3 372.64 243.12 372.64C242.94 372.64 242.77 372.68 242.61 372.77L236.23 376.7C235.97 376.87 235.98 377.15 236.23 377.34L243.6 381.89C243.77 381.97 243.94 382.02 244.13 382.02C244.31 382.02 244.49 381.97 244.65 381.89L244.62 381.89ZM253.87 376.12L260.24 372.19C260.51 372.02 260.5 371.74 260.24 371.57L252.87 367C252.71 366.92 252.53 366.88 252.36 366.88C252.18 366.88 252.01 366.92 251.85 367L245.47 370.93C245.2 371.1 245.22 371.39 245.47 371.57L252.84 376.12C253 376.21 253.18 376.26 253.37 376.26C253.55 376.26 253.73 376.21 253.9 376.12L253.87 376.12ZM220.2 373.51L213.82 377.45C213.56 377.6 213.57 377.89 213.82 378.07L221.2 382.62C221.35 382.71 221.53 382.75 221.7 382.75C221.88 382.75 222.06 382.71 222.21 382.62L228.59 378.68C228.86 378.51 228.85 378.23 228.59 378.06L221.22 373.51C221.07 373.43 220.9 373.38 220.73 373.38C220.56 373.38 220.4 373.43 220.24 373.51L220.2 373.51ZM229.52 367.75L223.15 371.68C222.87 371.85 222.89 372.14 223.15 372.32L230.52 376.87C230.68 376.95 230.86 377 231.03 377C231.21 377 231.38 376.95 231.54 376.87L238.04 372.95C238.31 372.79 238.29 372.5 238.04 372.33L230.67 367.78C230.5 367.67 230.31 367.61 230.12 367.61C229.92 367.6 229.73 367.65 229.56 367.75L229.52 367.75ZM266.79 344.75L260.5 348.67C260.24 348.84 260.25 349.13 260.5 349.31L267.87 353.86C268.03 353.94 268.21 353.99 268.38 353.99C268.56 353.99 268.73 353.94 268.89 353.86L275.26 349.93C275.54 349.76 275.51 349.48 275.26 349.3L267.9 344.75C267.74 344.65 267.55 344.6 267.37 344.6C267.18 344.6 267 344.65 266.83 344.75L266.79 344.75ZM257.46 350.5L251.1 354.43C250.83 354.6 250.84 354.88 251.1 355.06L258.47 359.61C258.63 359.7 258.8 359.74 258.98 359.74C259.15 359.74 259.33 359.7 259.49 359.61L265.85 355.68C266.13 355.51 266.1 355.23 265.85 355.05L258.48 350.5C258.33 350.42 258.16 350.38 257.99 350.38C257.82 350.38 257.66 350.42 257.5 350.5L257.46 350.5ZM276.11 338.98L269.75 342.92C269.49 343.09 269.5 343.37 269.75 343.54L277.12 348.11C277.28 348.19 277.46 348.24 277.63 348.24C277.81 348.24 277.98 348.19 278.14 348.11L284.51 344.17C284.79 344.01 284.77 343.73 284.51 343.54L277.14 338.99C276.98 338.91 276.81 338.87 276.64 338.87C276.47 338.86 276.3 338.9 276.15 338.98L276.11 338.98ZM238.83 362L232.47 365.93C232.19 366.1 232.2 366.38 232.47 366.57L239.84 371.12C240 371.2 240.17 371.24 240.35 371.24C240.52 371.24 240.7 371.2 240.86 371.12L247.24 367.17C247.5 367 247.49 366.72 247.24 366.55L239.86 361.99C239.71 361.91 239.54 361.87 239.37 361.87C239.2 361.88 239.03 361.92 238.87 362L238.83 362ZM248.15 356.25L241.78 360.18C241.5 360.35 241.53 360.63 241.78 360.81L249.15 365.37C249.31 365.45 249.48 365.5 249.65 365.5C249.83 365.5 250 365.45 250.16 365.37L256.54 361.44C256.8 361.27 256.79 360.98 256.54 360.8L249.17 356.25C249.01 356.17 248.85 356.13 248.68 356.13C248.51 356.13 248.34 356.17 248.19 356.25L248.15 356.25ZM241.36 396.87L247.73 392.92C247.99 392.76 247.98 392.47 247.73 392.3L240.35 387.75C240.2 387.67 240.02 387.62 239.84 387.62C239.67 387.62 239.49 387.67 239.34 387.75L232.97 391.7C232.69 391.85 232.72 392.13 232.97 392.32L240.34 396.87C240.5 396.96 240.68 397.01 240.87 397.01C241.05 397.01 241.23 396.96 241.4 396.87L241.36 396.87ZM186.72 390.9L179.35 386.35C179.19 386.27 179.02 386.22 178.84 386.22C178.67 386.22 178.49 386.27 178.33 386.35L171.98 390.32C171.71 390.49 171.73 390.76 171.98 390.95L179.35 395.5C179.51 395.58 179.68 395.63 179.86 395.63C180.04 395.63 180.21 395.58 180.37 395.5L186.74 391.55C187.03 391.43 187.01 391.14 186.72 390.9ZM200.68 395.28L193.3 390.73C193.15 390.65 192.98 390.61 192.8 390.61C192.63 390.61 192.46 390.65 192.3 390.73L182.55 396.83C182.28 397 182.3 397.28 182.55 397.45L189.92 402C190.08 402.08 190.25 402.13 190.43 402.13C190.61 402.13 190.78 402.08 190.94 402L200.74 395.95C201.05 395.81 200.97 395.53 200.68 395.34L200.68 395.28ZM175.41 382.1L168.02 377.6C167.86 377.52 167.68 377.47 167.51 377.47C167.33 377.47 167.16 377.52 167 377.6L159.18 382.42C158.91 382.59 158.92 382.88 159.18 383.06L166.55 387.61C166.71 387.7 166.88 387.74 167.06 387.74C167.23 387.74 167.41 387.7 167.57 387.61L175.4 382.78C175.72 382.62 175.71 382.34 175.41 382.16L175.41 382.1ZM181.43 378.38C181.58 378.47 181.76 378.51 181.93 378.51C182.11 378.51 182.29 378.47 182.44 378.38L188.81 374.44C189.09 374.28 189.08 374 188.81 373.82L181.44 369.27C181.28 369.18 181.11 369.13 180.93 369.13C180.75 369.13 180.58 369.18 180.42 369.27L174.04 373.21C173.78 373.38 173.79 373.66 174.04 373.83L181.43 378.38ZM213.66 400.27L206.33 395.78C206.17 395.7 206 395.65 205.82 395.65C205.65 395.65 205.47 395.7 205.31 395.78L193.05 403.35C192.79 403.52 192.8 403.81 193.05 403.98L200.43 408.54C200.58 408.63 200.76 408.67 200.93 408.67C201.11 408.67 201.28 408.63 201.44 408.54L213.7 400.97C213.97 400.8 213.95 400.51 213.66 400.33L213.66 400.27ZM219.78 409.5L212.41 405.04C212.25 404.95 212.08 404.9 211.9 404.9C211.72 404.9 211.55 404.95 211.39 405.04L203.54 409.88C203.28 410.05 203.29 410.34 203.54 410.52L210.92 415.07C211.07 415.15 211.25 415.2 211.42 415.2C211.6 415.2 211.78 415.15 211.93 415.07L219.78 410.22C220.09 410.03 220.07 409.74 219.78 409.56L219.78 409.5ZM250.7 335.6C250.86 335.69 251.03 335.73 251.21 335.73C251.38 335.73 251.56 335.69 251.72 335.6L258.08 331.67C258.36 331.5 258.34 331.22 258.08 331.04L250.71 326.49C250.55 326.4 250.38 326.36 250.2 326.36C250.03 326.36 249.85 326.4 249.69 326.49L243.33 330.49C243.06 330.65 243.08 330.94 243.33 331.11L250.7 335.6ZM232.06 347.12C232.21 347.2 232.39 347.25 232.56 347.25C232.74 347.25 232.92 347.2 233.07 347.12L239.45 343.19C239.72 343.02 239.71 342.74 239.45 342.56L232.08 338C231.92 337.92 231.75 337.88 231.57 337.88C231.4 337.88 231.22 337.92 231.07 338L224.7 341.93C224.42 342.1 224.45 342.39 224.7 342.57L232.06 347.12ZM190.74 372.69C190.9 372.77 191.07 372.82 191.25 372.82C191.43 372.82 191.6 372.77 191.76 372.69L198.13 368.74C198.4 368.57 198.39 368.31 198.13 368.12L190.75 363.57C190.6 363.48 190.42 363.44 190.25 363.44C190.07 363.44 189.89 363.48 189.74 363.57L183.35 367.51C183.09 367.68 183.1 367.95 183.35 368.14L190.74 372.69ZM241.38 341.44C241.54 341.52 241.71 341.57 241.89 341.57C242.06 341.57 242.23 341.52 242.39 341.44L248.77 337.51C249.03 337.34 249.02 337.06 248.77 336.87L241.4 332.32C241.24 332.24 241.07 332.19 240.89 332.19C240.71 332.19 240.54 332.24 240.38 332.32L234.01 336.25C233.73 336.42 233.76 336.7 234.01 336.89L241.38 341.44ZM222.74 352.94C222.9 353.03 223.07 353.07 223.25 353.07C223.43 353.07 223.6 353.03 223.76 352.94L230.14 349.01C230.4 348.84 230.39 348.56 230.14 348.38L222.77 343.83C222.61 343.74 222.44 343.7 222.26 343.7C222.08 343.7 221.91 343.74 221.75 343.83L215.38 347.76C215.1 347.93 215.12 348.21 215.38 348.39L222.74 352.94ZM224.89 410.31C224.74 410.22 224.56 410.18 224.39 410.18C224.21 410.18 224.04 410.22 223.88 410.31L214.07 416.34C213.81 416.51 213.82 416.8 214.07 416.98L221.45 421.53C221.6 421.62 221.78 421.66 221.96 421.66C222.13 421.66 222.31 421.62 222.46 421.53L232.27 415.48C232.54 415.31 232.52 415.03 232.27 414.84L224.89 410.31ZM209.37 361.22C209.53 361.31 209.7 361.35 209.88 361.35C210.06 361.35 210.23 361.31 210.39 361.22L216.77 357.28C217.03 357.11 217.02 356.83 216.77 356.66L209.4 352.11C209.24 352.02 209.06 351.98 208.89 351.98C208.71 351.98 208.54 352.02 208.38 352.11L202.01 356.05C201.73 356.21 201.75 356.49 202.01 356.67L209.37 361.22ZM200.06 366.88C200.21 366.96 200.39 367.01 200.56 367.01C200.74 367.01 200.92 366.96 201.07 366.88L207.45 362.93C207.72 362.77 207.71 362.48 207.45 362.31L200.08 357.76C199.92 357.68 199.75 357.63 199.57 357.63C199.4 357.63 199.22 357.68 199.06 357.76L192.7 361.7C192.42 361.86 192.43 362.14 192.7 362.33L200.06 366.88ZM397.5 303.7C397.34 303.62 397.17 303.57 396.99 303.57C396.82 303.57 396.64 303.62 396.48 303.7L380.74 313.37C380.47 313.54 380.48 313.82 380.74 314.01L388.11 318.56C388.27 318.64 388.44 318.68 388.62 318.68C388.79 318.68 388.97 318.64 389.13 318.56L404.9 308.93C405.18 308.76 405.17 308.48 404.9 308.3L397.5 303.7ZM376.9 316.42C376.75 316.34 376.57 316.29 376.4 316.29C376.22 316.29 376.04 316.34 375.89 316.42L369.52 320.35C369.24 320.52 369.25 320.8 369.52 320.99L376.89 325.54C377.05 325.62 377.22 325.67 377.4 325.67C377.58 325.67 377.75 325.62 377.91 325.54L384.29 321.61C384.55 321.44 384.54 321.16 384.29 320.97L376.9 316.42ZM250.71 391.12L257.08 387.17C257.36 387 257.33 386.72 257.08 386.55L249.72 381.99C249.56 381.9 249.39 381.86 249.21 381.86C249.04 381.86 248.86 381.9 248.7 381.99L242.32 385.91C242.06 386.08 242.07 386.37 242.32 386.55L249.69 391.1C249.85 391.19 250.03 391.23 250.2 391.24C250.38 391.24 250.55 391.2 250.71 391.12ZM358.27 327.93C358.12 327.84 357.94 327.8 357.77 327.8C357.59 327.8 357.42 327.84 357.26 327.93L350.88 331.86C350.61 332.03 350.62 332.31 350.88 332.49L358.25 337.04C358.41 337.13 358.58 337.18 358.76 337.18C358.93 337.18 359.11 337.13 359.27 337.04L365.63 333.11C365.91 332.94 365.9 332.66 365.63 332.48L358.27 327.93ZM406.82 297.95C406.66 297.87 406.48 297.82 406.31 297.82C406.13 297.82 405.96 297.87 405.8 297.95L399.43 301.87C399.15 302.04 399.17 302.32 399.43 302.49L406.8 307.05C406.96 307.14 407.14 307.18 407.31 307.18C407.49 307.18 407.66 307.14 407.82 307.05L414.2 303.12C414.47 302.95 414.45 302.67 414.2 302.49L406.82 297.95ZM423.5 296.75L405.6 285.7C405.44 285.61 405.27 285.57 405.09 285.57C404.92 285.57 404.74 285.61 404.58 285.7L398.22 289.64C397.94 289.81 397.95 290.09 398.22 290.26L416.12 301.32C416.28 301.4 416.45 301.45 416.63 301.45C416.8 301.45 416.98 301.4 417.14 301.32L423.52 297.37C423.81 297.22 423.79 296.93 423.5 296.75ZM323.46 349.44C323.3 349.35 323.13 349.31 322.95 349.31C322.77 349.31 322.6 349.35 322.44 349.44L314.59 354.29C314.33 354.45 314.34 354.74 314.59 354.91L321.97 359.46C322.12 359.54 322.3 359.59 322.48 359.59C322.65 359.59 322.83 359.54 322.98 359.46L330.83 354.61C331.1 354.44 331.08 354.16 330.83 353.99L323.46 349.44ZM346.99 334.89C346.83 334.81 346.66 334.76 346.48 334.76C346.31 334.76 346.13 334.81 345.97 334.89L336.17 340.94C335.91 341.11 335.92 341.4 336.17 341.57L343.54 346.13C343.7 346.21 343.87 346.26 344.05 346.26C344.23 346.26 344.4 346.21 344.56 346.13L354.36 340.08C354.63 339.91 354.61 339.63 354.36 339.45L346.99 334.89ZM301.88 362.75C301.73 362.67 301.55 362.62 301.37 362.62C301.2 362.62 301.02 362.67 300.87 362.75L248.4 395.14C248.14 395.31 248.15 395.6 248.4 395.78L255.77 400.33C255.93 400.41 256.1 400.46 256.28 400.46C256.46 400.46 256.63 400.41 256.79 400.33L309.26 367.92C309.52 367.75 309.51 367.47 309.26 367.29L301.88 362.75ZM246.47 396.98C246.31 396.89 246.14 396.85 245.96 396.85C245.79 396.85 245.61 396.89 245.45 396.98L237.62 401.83C237.34 402 237.35 402.28 237.62 402.45L244.99 407C245.15 407.09 245.32 407.13 245.5 407.13C245.68 407.13 245.85 407.09 246.01 407L253.9 402.21C254.16 402.04 254.15 401.76 253.9 401.59L246.47 396.98ZM312.66 356.09C312.51 356.01 312.33 355.97 312.16 355.97C311.98 355.97 311.81 356.01 311.65 356.09L303.81 360.94C303.54 361.11 303.55 361.39 303.81 361.58L311.19 366.13C311.34 366.21 311.52 366.26 311.69 366.26C311.87 366.26 312.04 366.21 312.2 366.13L320.05 361.28C320.33 361.13 320.3 360.84 320.05 360.66L312.66 356.09ZM235.69 403.62C235.53 403.54 235.36 403.5 235.18 403.5C235 403.5 234.83 403.54 234.67 403.62L226.82 408.47C226.56 408.64 226.57 408.92 226.82 409.11L234.2 413.66C234.35 413.74 234.53 413.78 234.71 413.78C234.88 413.78 235.06 413.74 235.21 413.66L243.05 408.82C243.33 408.65 243.31 408.37 243.05 408.19L235.69 403.62ZM334.24 342.75C334.08 342.67 333.91 342.63 333.73 342.63C333.56 342.63 333.38 342.67 333.22 342.75L325.39 347.59C325.11 347.76 325.12 348.04 325.39 348.22L332.76 352.77C332.92 352.86 333.09 352.9 333.27 352.9C333.45 352.9 333.62 352.86 333.78 352.77L341.63 347.93C341.9 347.76 341.88 347.47 341.63 347.29L334.24 342.75ZM367.59 322.16C367.43 322.07 367.26 322.03 367.08 322.03C366.9 322.03 366.73 322.07 366.57 322.16L360.2 326.09C359.93 326.26 359.94 326.54 360.2 326.73L367.58 331.28C367.73 331.36 367.91 331.4 368.08 331.4C368.26 331.4 368.43 331.36 368.59 331.28L374.97 327.35C375.24 327.18 375.23 326.9 374.97 326.71L367.59 322.16ZM388 306.3L394.37 302.38C394.65 302.21 394.63 301.92 394.37 301.74L387 297.19C386.84 297.1 386.67 297.06 386.49 297.06C386.31 297.06 386.14 297.1 385.98 297.19L379.6 301.13C379.33 301.3 379.35 301.58 379.6 301.75L386.97 306.32C387.13 306.4 387.31 306.45 387.49 306.45C387.67 306.45 387.84 306.4 388 306.32L388 306.3ZM346.38 306.11L352.76 302.16C353.03 301.99 353.02 301.71 352.76 301.54L345.39 296.99C345.23 296.9 345.06 296.86 344.88 296.86C344.71 296.86 344.53 296.9 344.37 296.99L338.01 300.93C337.73 301.1 337.76 301.37 338.01 301.56L345.37 306.11C345.52 306.19 345.7 306.24 345.87 306.24C346.05 306.24 346.23 306.19 346.38 306.11ZM325.24 345.16L343.87 333.65C344.14 333.48 344.12 333.2 343.87 333.02L336.5 328.46C336.34 328.38 336.17 328.34 335.99 328.34C335.82 328.34 335.64 328.38 335.48 328.46L316.85 339.98C316.59 340.14 316.6 340.42 316.85 340.6L324.23 345.16C324.39 345.23 324.57 345.26 324.74 345.25C324.92 345.24 325.09 345.18 325.24 345.08L325.24 345.16ZM377.67 312.13C377.83 312.21 378 312.25 378.18 312.25C378.36 312.25 378.53 312.21 378.69 312.13L385.06 308.2C385.33 308.03 385.32 307.75 385.06 307.56L377.68 303.01C377.53 302.92 377.35 302.88 377.17 302.88C377 302.88 376.82 302.92 376.67 303.01L370.28 306.94C370.02 307.11 370.03 307.39 370.28 307.58L377.67 312.13ZM368.16 305.64L374.53 301.71C374.8 301.54 374.79 301.26 374.53 301.07L367.15 296.52C366.99 296.44 366.82 296.4 366.64 296.4C366.47 296.4 366.29 296.44 366.14 296.52L359.75 300.47C359.49 300.64 359.5 300.92 359.75 301.09L367.13 305.65C367.29 305.73 367.47 305.76 367.65 305.74C367.83 305.73 368 305.67 368.16 305.57L368.16 305.64ZM315.93 350.87L322.3 346.92C322.57 346.75 322.55 346.48 322.3 346.3L314.92 341.75C314.77 341.66 314.59 341.62 314.42 341.62C314.24 341.62 314.06 341.66 313.91 341.75L307.5 345.68C307.22 345.85 307.25 346.12 307.5 346.3L314.87 350.85C315.04 350.96 315.24 351.01 315.43 351.01C315.63 351 315.82 350.95 315.99 350.84L315.93 350.87ZM357.07 324.8C357.23 324.89 357.4 324.93 357.58 324.93C357.76 324.93 357.93 324.89 358.09 324.8L364.47 320.88C364.74 320.71 364.72 320.42 364.47 320.24L357.1 315.69C356.94 315.6 356.77 315.56 356.59 315.56C356.41 315.56 356.24 315.6 356.08 315.69L349.71 319.63C349.44 319.8 349.45 320.08 349.71 320.25L357.07 324.8ZM269.34 379.6L275.71 375.67C275.99 375.5 275.97 375.22 275.71 375.03L268.34 370.48C268.18 370.4 268.01 370.35 267.83 370.35C267.65 370.35 267.48 370.4 267.32 370.48L260.94 374.41C260.67 374.58 260.69 374.86 260.94 375.05L268.31 379.6C268.47 379.68 268.65 379.73 268.83 379.73C269.01 379.73 269.18 379.68 269.34 379.6ZM278.66 373.85L285.04 369.92C285.3 369.75 285.29 369.46 285.04 369.28L277.68 364.73C277.52 364.64 277.35 364.6 277.17 364.6C276.99 364.6 276.82 364.64 276.66 364.73L270.28 368.66C270.01 368.83 270.03 369.11 270.28 369.29L277.65 373.85C277.81 373.93 277.98 373.97 278.15 373.97C278.33 373.97 278.5 373.93 278.66 373.85ZM260.03 385.35L266.4 381.42C266.67 381.25 266.66 380.97 266.4 380.78L259.04 376.23C258.88 376.15 258.7 376.11 258.53 376.11C258.35 376.11 258.18 376.15 258.02 376.23L251.64 380.16C251.37 380.33 251.39 380.61 251.64 380.8L259.01 385.35C259.17 385.44 259.34 385.48 259.52 385.48C259.69 385.48 259.87 385.44 260.03 385.35ZM297.29 362.34L303.67 358.41C303.93 358.24 303.92 357.96 303.67 357.78L296.29 353.23C296.14 353.14 295.96 353.1 295.79 353.1C295.61 353.1 295.44 353.14 295.28 353.23L288.91 357.17C288.63 357.34 288.64 357.62 288.91 357.79L296.28 362.34C296.44 362.43 296.61 362.47 296.78 362.47C296.96 362.47 297.13 362.43 297.29 362.34ZM288.04 368.09L294.42 364.16C294.68 363.99 294.67 363.71 294.42 363.53L286.93 358.98C286.77 358.89 286.6 358.85 286.42 358.85C286.24 358.85 286.07 358.89 285.91 358.98L279.54 362.91C279.26 363.08 279.28 363.36 279.54 363.53L286.91 368.09C287.08 368.18 287.26 368.23 287.44 368.23C287.63 368.23 287.81 368.18 287.97 368.09L288.04 368.09ZM306.67 356.59L313.05 352.65C313.31 352.49 313.3 352.21 313.05 352.02L305.68 347.47C305.52 347.39 305.34 347.34 305.17 347.34C304.99 347.34 304.82 347.39 304.66 347.47L298.18 351.33C297.91 351.5 297.93 351.78 298.18 351.95L305.54 356.5C305.7 356.61 305.88 356.68 306.06 356.69C306.25 356.7 306.43 356.67 306.6 356.59L306.67 356.59ZM349.29 271.47C349.45 271.55 349.62 271.6 349.8 271.6C349.98 271.6 350.15 271.55 350.31 271.47L356.69 267.52C356.95 267.37 356.94 267.09 356.69 266.9L354.73 265.69C354.58 265.6 354.4 265.56 354.22 265.56C354.05 265.56 353.87 265.6 353.72 265.69L347.33 269.61C347.07 269.78 347.08 270.07 347.33 270.25L349.29 271.47ZM303.46 303.12C303.61 303.21 303.79 303.26 303.96 303.26C304.14 303.26 304.32 303.21 304.47 303.12L310.84 299.2C311.12 299.03 311.1 298.74 310.84 298.56L303.47 294.01C303.31 293.92 303.14 293.88 302.96 293.88C302.78 293.88 302.61 293.92 302.45 294.01L296.07 297.94C295.81 298.11 295.82 298.39 296.07 298.57L303.46 303.12ZM322.09 291.62C322.24 291.7 322.42 291.75 322.59 291.75C322.77 291.75 322.94 291.7 323.1 291.62L329.48 287.69C329.75 287.52 329.74 287.24 329.48 287.06L322.11 282.5C321.95 282.42 321.78 282.37 321.6 282.37C321.43 282.37 321.25 282.42 321.09 282.5L314.67 286.43C314.4 286.6 314.41 286.89 314.67 287.07L322.09 291.62ZM292.08 310.15C292.24 310.23 292.41 310.28 292.59 310.28C292.76 310.28 292.94 310.23 293.1 310.15L299.47 306.21C299.74 306.04 299.73 305.75 299.47 305.58L292.09 301.02C291.93 300.93 291.76 300.89 291.58 300.89C291.41 300.89 291.23 300.93 291.07 301.02L284.69 304.95C284.43 305.12 284.44 305.4 284.69 305.58L292.08 310.15ZM312.77 297.43C312.93 297.51 313.1 297.56 313.28 297.56C313.46 297.56 313.63 297.51 313.79 297.43L320.17 293.5C320.43 293.33 320.42 293.05 320.17 292.86L312.8 288.31C312.64 288.23 312.46 288.19 312.29 288.19C312.11 288.19 311.94 288.23 311.78 288.31L305.41 292.24C305.13 292.41 305.15 292.69 305.41 292.88L312.77 297.43ZM273.38 321.65C273.54 321.74 273.72 321.78 273.89 321.78C274.07 321.78 274.24 321.74 274.4 321.65L280.77 317.71C281.05 317.54 281.02 317.26 280.77 317.09L273.41 312.54C273.25 312.45 273.08 312.4 272.9 312.4C272.73 312.4 272.55 312.45 272.39 312.54L266.01 316.48C265.75 316.64 265.76 316.92 266.01 317.1L273.38 321.65ZM282.7 315.9C282.86 315.98 283.03 316.03 283.21 316.03C283.38 316.03 283.56 315.98 283.72 315.9L290.08 311.96C290.36 311.79 290.35 311.51 290.08 311.34L282.73 306.78C282.57 306.7 282.39 306.65 282.22 306.65C282.04 306.65 281.87 306.7 281.71 306.78L275.33 310.73C275.06 310.88 275.07 311.17 275.33 311.35L282.7 315.9ZM330.59 282.98C330.75 283.07 330.93 283.11 331.1 283.11C331.28 283.11 331.45 283.07 331.61 282.98L337.99 279.06C338.26 278.89 338.24 278.6 337.99 278.42L336.02 277.2C335.87 277.12 335.69 277.08 335.52 277.08C335.34 277.08 335.17 277.12 335.01 277.2L328.64 281.13C328.36 281.3 328.39 281.59 328.64 281.77L330.59 282.98ZM358.55 265.71C358.71 265.8 358.88 265.85 359.05 265.85C359.23 265.85 359.4 265.8 359.56 265.71L365.94 261.77C366.2 261.6 366.19 261.33 365.94 261.15L363.98 259.93C363.82 259.85 363.65 259.8 363.47 259.8C363.3 259.8 363.12 259.85 362.96 259.93L356.58 263.86C356.32 264.03 356.33 264.32 356.58 264.5L358.55 265.71ZM374.02 275.28C374.18 275.37 374.36 275.41 374.53 275.41C374.71 275.41 374.88 275.37 375.04 275.28L381.42 271.34C381.69 271.17 381.67 270.89 381.42 270.72L374.05 266.15C373.89 266.07 373.72 266.03 373.54 266.03C373.36 266.03 373.19 266.07 373.03 266.15L366.66 270.08C366.39 270.25 366.41 270.53 366.66 270.72L374.02 275.28ZM397.32 300.57L403.7 296.62C403.96 296.47 403.95 296.18 403.7 296L396.33 291.45C396.17 291.37 395.99 291.32 395.82 291.32C395.64 291.32 395.47 291.37 395.31 291.45L388.94 295.39C388.66 295.56 388.68 295.85 388.94 296.01L396.31 300.57C396.47 300.65 396.64 300.69 396.81 300.69C396.99 300.69 397.16 300.65 397.32 300.57ZM339.91 277.23C340.07 277.32 340.24 277.36 340.42 277.36C340.59 277.36 340.77 277.32 340.93 277.23L347.31 273.3C347.57 273.13 347.56 272.85 347.31 272.67L345.34 271.45C345.18 271.37 345.01 271.32 344.83 271.32C344.65 271.32 344.48 271.37 344.32 271.45L337.95 275.38C337.69 275.55 337.7 275.83 337.95 276.02L339.91 277.23ZM264.07 327.4C264.23 327.49 264.4 327.54 264.58 327.54C264.76 327.54 264.93 327.49 265.09 327.4L271.46 323.46C271.72 323.29 271.71 323.02 271.46 322.84L264.08 318.29C263.93 318.2 263.75 318.16 263.57 318.16C263.4 318.16 263.22 318.2 263.07 318.29L256.7 322.23C256.43 322.4 256.45 322.67 256.7 322.85L264.07 327.4Z" fill="#455A64" fill-opacity="1.000000" fill-rule="nonzero"/>
	<path id="Vector" d="M301.95 389.35L371.71 346.26L414.65 372.77L344.88 415.86L301.95 389.35Z" fill="#263238" fill-opacity="1.000000" fill-rule="nonzero"/>
	<path id="Vector" d="M146.88 172.21L354.79 43.81C358.84 41.3 362.17 43.36 362.17 48.38L362.17 220.62C362.11 221.89 361.76 223.13 361.16 224.23C360.57 225.34 359.74 226.28 358.74 226.98L145.55 358.64C143.66 359.8 142.12 358.85 142.12 356.52L142.12 181.02C142.21 179.25 142.69 177.54 143.52 176.01C144.35 174.48 145.49 173.18 146.88 172.21Z" fill="#F5F5F5" fill-opacity="1.000000" fill-rule="nonzero"/>
	<path id="Vector" d="M362.24 52.5L362.24 48.38C362.24 43.36 358.91 41.31 354.85 43.81L146.88 172.21C145.49 173.18 144.35 174.48 143.52 176.01C142.69 177.54 142.21 179.25 142.12 181.02L142.12 188.41L362.24 52.5Z" fill="#F03E3D" fill-opacity="1.000000" fill-rule="nonzero"/>
	<path id="Vector" d="M331.22 61.9C330.47 62.42 329.86 63.12 329.41 63.94C328.97 64.76 328.71 65.68 328.67 66.62C328.67 68.36 329.8 69.07 331.22 68.19C331.95 67.68 332.57 66.98 333.01 66.16C333.45 65.35 333.71 64.43 333.75 63.49C333.75 61.75 332.62 61.04 331.22 61.9Z" fill="#FFFFFF" fill-opacity="1.000000" fill-rule="nonzero"/>
	<path id="Vector" d="M341.31 55.67C340.57 56.19 339.95 56.89 339.51 57.71C339.07 58.53 338.82 59.45 338.77 60.39C338.77 62.13 339.91 62.82 341.31 61.96C342.05 61.44 342.67 60.75 343.11 59.93C343.56 59.11 343.81 58.18 343.86 57.24C343.86 55.5 342.72 54.79 341.31 55.67Z" fill="#FFFFFF" fill-opacity="1.000000" fill-rule="nonzero"/>
	<path id="Vector" d="M351.42 49.42C350.68 49.94 350.06 50.64 349.62 51.46C349.18 52.28 348.92 53.2 348.87 54.14C348.87 55.88 350.02 56.59 351.42 55.71C352.16 55.2 352.78 54.5 353.22 53.69C353.66 52.87 353.92 51.95 353.97 51.01C353.97 49.27 352.82 48.56 351.42 49.42Z" fill="#FFFFFF" fill-opacity="1.000000" fill-rule="nonzero"/>
	<path id="Vector" d="M185.37 267.74L193.46 272.73L173.65 309.44L165.56 304.44L185.37 267.74Z" fill="#37474F" fill-opacity="1.000000" fill-rule="evenodd"/>
	<path id="Vector" d="M189.44 270.23L193.47 272.72L173.66 309.43L169.62 306.93L189.44 270.23Z" fill="#263238" fill-opacity="1.000000" fill-rule="evenodd"/>
	<path id="Vector" d="M143.84 376.12C140.15 382.98 122.7 372.09 126.37 365.34L171.89 289.4C172.01 289.2 172.2 289.05 172.42 288.99C172.64 288.93 172.88 288.97 173.08 289.09L182.22 294.74C182.42 294.86 182.56 295.06 182.63 295.29C182.69 295.52 182.67 295.77 182.56 295.99L143.84 376.12Z" fill="#11B5E4" fill-opacity="1.000000" fill-rule="nonzero"/>
	<g opacity="0.100000">
		<path id="Vector" d="M143.84 376.12L182.55 295.99C182.65 295.77 182.68 295.52 182.61 295.29C182.55 295.06 182.4 294.86 182.21 294.74L178.04 292.17L133.66 376.56C137.71 378.69 142.17 379.22 143.84 376.12Z" fill="#000000" fill-opacity="1.000000" fill-rule="nonzero"/>
	</g>
	<path id="Vector" d="M277.68 197.35C277.68 196.77 277.68 196.21 277.6 195.64C277.52 195.08 277.6 194.53 277.48 193.98C277.36 193.42 277.48 193.24 277.37 192.87C277.28 191.91 277.15 190.97 277 190.05C276.94 189.64 276.87 189.21 276.79 188.8C276.71 188.39 276.65 188.03 276.57 187.64C276.34 186.6 276.11 185.58 275.83 184.61C275.68 184.14 275.55 183.67 275.41 183.19C275.38 183.12 275.35 183.05 275.34 182.98C275.18 182.53 275.04 182.09 274.88 181.67C274.72 181.24 274.51 180.68 274.3 180.25C274.08 179.83 274.01 179.56 273.83 179.22C273.74 178.97 273.62 178.72 273.49 178.49C273.36 178.19 273.21 177.89 273.05 177.61C272.9 177.33 272.99 177.47 272.95 177.41C272.91 177.36 272.67 176.9 272.53 176.65C272.38 176.39 272.33 176.32 272.24 176.17C271.56 175.03 270.8 173.95 269.96 172.93L269.54 172.42L269.18 172.03C269.04 171.86 268.88 171.7 268.72 171.53C268.31 171.07 267.86 170.63 267.4 170.22C267.17 170.01 266.94 169.81 266.7 169.62L265.97 169.06C265.59 168.76 265.2 168.49 264.8 168.24L264.48 168.03L264.41 168.03L245.69 156.47L245.59 156.4C241.99 154.25 237.94 153.16 233.83 153.22C227.7 153.22 220.77 155.36 213.44 159.89C188.26 175.43 167.83 213.28 167.83 244.4C167.83 259.95 172.9 270.83 181.11 275.95L181.19 275.95L199.92 287.49L200 287.49L200.23 287.62C200.58 287.84 200.94 288.04 201.31 288.23C201.76 288.47 202.22 288.68 202.63 288.88C203.04 289.08 203.46 289.23 203.89 289.37L204.56 289.58C204.8 289.68 205.04 289.76 205.29 289.81C205.53 289.89 205.78 289.96 206.03 290.01C206.21 290.06 206.39 290.11 206.57 290.14C206.89 290.21 207.23 290.28 207.56 290.32C207.63 290.33 207.71 290.33 207.78 290.32C208.18 290.39 208.58 290.45 208.97 290.49C215.77 291.25 223.67 289.2 232.12 283.99C257.32 268.44 277.74 230.58 277.74 199.47C277.68 198.82 277.68 198.09 277.68 197.35ZM247.12 175.35C248.11 179.22 248.59 183.21 248.56 187.22C248.56 214.67 229.78 249.4 207.6 263.17C204.36 265.23 200.86 266.79 197.2 267.79C196.22 263.92 195.73 259.92 195.76 255.91C195.76 228.46 214.54 193.72 236.72 179.96C239.95 177.9 243.44 176.35 247.08 175.35L247.12 175.35Z" fill="#11B5E4" fill-opacity="1.000000" fill-rule="nonzero"/>
	<g opacity="0.100000">
		<path id="Vector" d="M199.16 287.1L180.96 275.88C172.76 270.75 167.68 259.84 167.68 244.35C167.68 230.47 171.75 215.26 178.48 201.3L197.21 212.83C190.48 226.79 186.42 242 186.42 255.88C186.42 271.09 191.26 281.84 199.16 287.1Z" fill="#000000" fill-opacity="1.000000" fill-rule="nonzero"/>
	</g>
	<g opacity="0.400000">
		<path id="Vector" d="M277.68 197.35C277.68 196.77 277.68 196.21 277.6 195.64C277.52 195.08 277.6 194.53 277.48 193.98C277.36 193.42 277.48 193.24 277.37 192.87C277.28 191.91 277.15 190.97 277 190.05C276.94 189.64 276.87 189.21 276.79 188.8C276.71 188.39 276.65 188.03 276.57 187.64C276.34 186.6 276.11 185.58 275.83 184.61C275.68 184.14 275.55 183.67 275.41 183.19C275.38 183.12 275.35 183.05 275.34 182.98C275.18 182.53 275.04 182.09 274.88 181.67C274.72 181.24 274.51 180.68 274.3 180.25C274.08 179.83 274.01 179.56 273.83 179.22C273.74 178.97 273.62 178.72 273.49 178.49C273.36 178.19 273.21 177.89 273.05 177.61C272.9 177.33 272.99 177.47 272.95 177.41C272.91 177.36 272.67 176.9 272.53 176.65C272.38 176.39 272.33 176.32 272.24 176.17C271.56 175.03 270.8 173.95 269.96 172.93L269.54 172.42L269.18 172.03C269.04 171.86 268.88 171.7 268.72 171.53C268.31 171.07 267.86 170.63 267.4 170.22C267.17 170.01 266.94 169.81 266.7 169.62L265.97 169.06C265.59 168.76 265.2 168.49 264.8 168.24C256.51 162.86 244.98 163.49 232.15 171.39C206.95 186.94 186.53 224.79 186.53 255.91C186.53 271.66 191.81 282.67 200.2 287.68C200.55 287.9 200.91 288.1 201.28 288.28C201.73 288.53 202.2 288.74 202.61 288.93C203.02 289.13 203.44 289.29 203.86 289.43L204.53 289.64C204.77 289.74 205.01 289.81 205.26 289.87C205.5 289.95 205.75 290.01 206 290.07C206.18 290.12 206.36 290.16 206.54 290.19C206.86 290.26 207.2 290.33 207.53 290.38C207.61 290.39 207.68 290.39 207.76 290.38C208.15 290.45 208.55 290.51 208.95 290.55C215.74 291.31 223.64 289.26 232.1 284.04C257.29 268.5 277.72 230.64 277.72 199.53C277.68 198.82 277.68 198.09 277.68 197.35ZM227.47 275.52C221.82 279.01 216.37 280.85 211.72 280.85C202.99 280.85 198.97 274.48 197.19 267.79C196.2 263.92 195.72 259.92 195.75 255.91C195.75 228.46 214.52 193.72 236.71 179.96C239.95 177.9 243.45 176.35 247.1 175.35C248.83 174.89 250.61 174.65 252.39 174.63C266.83 174.63 268.38 192.07 268.38 199.57C268.43 226.96 249.65 261.8 227.47 275.52Z" fill="#FFFFFF" fill-opacity="1.000000" fill-rule="nonzero"/>
	</g>
	<g opacity="0.100000">
		<path id="Vector" d="M268.43 199.57C268.43 227.02 249.67 261.76 227.47 275.52C221.82 279.01 216.37 280.85 211.72 280.85C202.99 280.85 198.97 274.48 197.19 267.79C200.84 266.79 204.34 265.23 207.59 263.17C229.81 249.45 248.55 214.67 248.55 187.22C248.58 183.21 248.09 179.22 247.1 175.35C248.83 174.89 250.61 174.65 252.39 174.63C266.87 174.67 268.43 192.07 268.43 199.57Z" fill="#000000" fill-opacity="1.000000" fill-rule="nonzero"/>
	</g>
	<g opacity="0.700000">
		<path id="Vector" d="M260.5 194.78C260.5 222.23 241.74 256.97 219.54 270.73C213.89 274.22 208.45 276.06 203.79 276.06C202.87 276.06 201.95 275.98 201.03 275.82C199.25 273.46 197.95 270.72 197.21 267.79C196.23 263.92 195.75 259.92 195.77 255.91C195.77 228.46 214.55 193.72 236.73 179.96C239.98 177.9 243.48 176.35 247.13 175.35C248.86 174.89 250.63 174.65 252.42 174.63C253.35 174.63 254.27 174.71 255.19 174.87C259.76 180.62 260.5 189.85 260.5 194.78Z" fill="#FFFFFF" fill-opacity="1.000000" fill-rule="nonzero"/>
	</g>
	<path id="Vector" d="M292.44 166.19L292.44 197.48C292.44 199.83 293.98 200.77 295.87 199.6L487.58 81.21C488.58 80.51 489.41 79.57 490.01 78.47C490.61 77.36 490.95 76.12 491.02 74.85L491.02 43.52C491.02 41.17 489.47 40.22 487.58 41.4L295.87 159.79C294.87 160.49 294.04 161.44 293.44 162.55C292.84 163.66 292.5 164.91 292.44 166.19Z" fill="#E6E6E6" fill-opacity="1.000000" fill-rule="nonzero"/>
	<path id="Vector" d="M295.87 159.79L330.01 138.72L330.01 178.49L295.87 199.56C293.98 200.73 292.44 199.78 292.44 197.44L292.44 166.19C292.5 164.91 292.84 163.66 293.44 162.55C294.04 161.44 294.87 160.49 295.87 159.79Z" fill="#BA68C8" fill-opacity="1.000000" fill-rule="nonzero"/>
	<path id="Vector" d="M318.72 156.07C316.56 154.74 313.84 154.96 311.05 156.68C308.4 158.5 306.2 160.96 304.63 163.88C303.05 166.79 302.15 170.07 302 173.43C301.91 175.61 302.55 177.75 303.81 179.46L300.14 186.19C299.9 186.67 299.84 187.23 299.98 187.76C300.11 188.28 300.43 188.73 300.87 189.02C301.17 189.2 301.51 189.3 301.86 189.3C302.21 189.3 302.55 189.2 302.85 189.01C303.15 188.83 303.4 188.56 303.57 188.24L307.21 181.51C307.6 181.59 308 181.63 308.4 181.64C310.02 181.61 311.6 181.12 313 180.22C315.64 178.41 317.84 175.94 319.41 173.02C320.98 170.11 321.88 166.84 322.03 163.48C322.07 160.04 320.88 157.41 318.72 156.07ZM311.05 176.56C310.59 177.1 309.97 177.45 309.29 177.56C308.62 177.67 307.93 177.53 307.34 177.16C306.75 176.8 306.29 176.23 306.04 175.55C305.79 174.87 305.77 174.12 305.97 173.43C306.12 170.81 306.84 168.27 308.07 166C309.29 163.73 310.99 161.8 313.03 160.35C313.83 159.81 314.74 159.51 315.68 159.46C316.06 159.45 316.45 159.55 316.79 159.75C317.28 160.2 317.67 160.78 317.9 161.44C318.13 162.09 318.2 162.8 318.11 163.49C317.96 166.11 317.24 168.65 316.01 170.91C314.79 173.18 313.09 175.12 311.05 176.56Z" fill="#FFFFFF" fill-opacity="1.000000" fill-rule="nonzero"/>
</svg>
