<svg width="539.828369" height="473.471313" viewBox="0 0 539.828 473.471" fill="none" xmlns="http://www.w3.org/2000/svg" xmlns:xlink="http://www.w3.org/1999/xlink">
	<desc>
			Created with Pixso.
	</desc>
	<defs/>
	<path id="Vector" d="M79.05 428.02C184.46 488.62 355.36 488.62 460.77 428.02C566.18 367.43 566.18 269.18 460.77 208.58C355.36 147.97 184.5 147.98 79.05 208.58C-26.4 269.17 -26.31 367.43 79.05 428.02Z" fill="#F5F5F5" fill-opacity="1.000000" fill-rule="nonzero"/>
	<path id="Vector" d="M49.67 328.65L15.4 306.89L15.4 226.02L49.67 247.79L49.67 328.65Z" fill="#E0E0E0" fill-opacity="1.000000" fill-rule="nonzero"/>
	<path id="Vector" d="M49.67 247.79L98.62 216.69L98.62 297.55L49.67 328.65L49.67 247.79Z" fill="#EBEBEB" fill-opacity="1.000000" fill-rule="nonzero"/>
	<path id="Vector" d="M98.62 216.69L49.67 247.79L15.4 226.02L64.36 194.92L98.62 216.69Z" fill="#F5F5F5" fill-opacity="1.000000" fill-rule="nonzero"/>
	<path id="Vector" d="M54.57 250.9L93.73 226.02L94.63 226.59L94.63 256.55L55.46 281.43L54.56 280.85L54.57 250.9Z" fill="#E0E0E0" fill-opacity="1.000000" fill-rule="nonzero"/>
	<path id="Vector" d="M55.46 251.48L94.63 226.59L94.63 256.55L55.46 281.43L55.46 251.48Z" fill="#F5F5F5" fill-opacity="1.000000" fill-rule="nonzero"/>
	<path id="Vector" d="M70.82 246.8L77.48 242.57C78.34 242.01 79.04 242.26 79.04 243.13C78.98 243.65 78.8 244.16 78.53 244.6C78.26 245.04 77.9 245.41 77.48 245.67L70.82 249.9C69.95 250.46 69.25 250.21 69.25 249.34C69.31 248.82 69.49 248.31 69.76 247.87C70.03 247.43 70.39 247.06 70.82 246.8Z" fill="#E0E0E0" fill-opacity="1.000000" fill-rule="nonzero"/>
	<path id="Vector" d="M53.67 288.8L92.82 263.92L92.82 293.88L93.73 294.45L54.56 319.33L53.67 318.76L53.67 288.8Z" fill="#E0E0E0" fill-opacity="1.000000" fill-rule="nonzero"/>
	<path id="Vector" d="M54.56 289.37L93.73 264.49L93.73 294.45L54.56 319.33L54.56 289.37Z" fill="#F5F5F5" fill-opacity="1.000000" fill-rule="nonzero"/>
	<path id="Vector" d="M69.91 284.7L76.64 280.48C77.51 279.93 78.21 280.18 78.21 281.04C78.14 281.57 77.97 282.08 77.7 282.52C77.42 282.96 77.06 283.33 76.64 283.59L69.97 287.82C69.11 288.38 68.41 288.12 68.41 287.26C68.46 286.74 68.63 286.23 68.89 285.79C69.15 285.34 69.5 284.97 69.91 284.7Z" fill="#E0E0E0" fill-opacity="1.000000" fill-rule="nonzero"/>
	<path id="Vector" d="M49.67 243.13L15.4 221.35L15.4 140.49L49.67 162.25L49.67 243.13Z" fill="#E0E0E0" fill-opacity="1.000000" fill-rule="nonzero"/>
	<path id="Vector" d="M49.67 162.25L98.62 131.16L98.62 212.03L49.67 243.13L49.67 162.25Z" fill="#EBEBEB" fill-opacity="1.000000" fill-rule="nonzero"/>
	<path id="Vector" d="M98.62 131.16L49.67 162.25L15.4 140.49L64.36 109.39L98.62 131.16Z" fill="#F5F5F5" fill-opacity="1.000000" fill-rule="nonzero"/>
	<path id="Vector" d="M54.56 165.37L93.73 140.49L94.63 141.06L94.63 171.02L55.46 195.9L54.56 195.32L54.56 165.37Z" fill="#E0E0E0" fill-opacity="1.000000" fill-rule="nonzero"/>
	<path id="Vector" d="M70.82 161.26L77.47 157.03C78.34 156.49 79.04 156.74 79.04 157.6C78.97 158.13 78.8 158.63 78.53 159.08C78.25 159.52 77.89 159.88 77.47 160.14L70.82 164.38C69.95 164.92 69.25 164.68 69.25 163.82C69.31 163.29 69.49 162.78 69.76 162.34C70.03 161.89 70.39 161.52 70.82 161.26Z" fill="#E0E0E0" fill-opacity="1.000000" fill-rule="nonzero"/>
	<path id="Vector" d="M53.67 203.27L92.82 178.39L92.82 208.34L93.73 208.91L54.56 233.79L53.67 233.22L53.67 203.27Z" fill="#E0E0E0" fill-opacity="1.000000" fill-rule="nonzero"/>
	<path id="Vector" d="M54.56 203.84L93.73 178.96L93.73 208.91L54.56 233.79L54.56 203.84Z" fill="#F5F5F5" fill-opacity="1.000000" fill-rule="nonzero"/>
	<path id="Vector" d="M69.91 199.16L76.64 194.93C77.49 194.39 78.21 194.64 78.21 195.5C78.14 196.03 77.96 196.53 77.69 196.97C77.42 197.42 77.06 197.78 76.64 198.05L69.91 202.24C69.05 202.78 68.35 202.53 68.35 201.68C68.42 201.16 68.59 200.66 68.86 200.22C69.14 199.78 69.5 199.42 69.91 199.16Z" fill="#E0E0E0" fill-opacity="1.000000" fill-rule="nonzero"/>
	<path id="Vector" d="M54.56 165.37L93.73 140.49L93.73 170.44L54.56 195.32L54.56 165.37Z" fill="#E0E0E0" fill-opacity="1.000000" fill-rule="nonzero"/>
	<path id="Vector" d="M113.31 155.29L91.87 141.67L91.87 168.06L113.31 181.67L113.31 155.29Z" fill="#E0E0E0" fill-opacity="1.000000" fill-rule="nonzero"/>
	<path id="Vector" d="M69.25 199.59L69.25 162.25L77.65 156.9L79.04 159.15L103.52 143.6L103.52 177.81L69.25 199.59Z" fill="#EBEBEB" fill-opacity="1.000000" fill-rule="nonzero"/>
	<path id="Vector" d="M69.25 199.59L71.7 166.92L105.96 145.16L103.52 177.81L69.25 199.59Z" fill="#F5F5F5" fill-opacity="1.000000" fill-rule="nonzero"/>
	<path id="Vector" d="M74.14 180.17L55.46 168.3L55.46 194.69L74.14 206.55L74.14 180.17Z" fill="#EBEBEB" fill-opacity="1.000000" fill-rule="nonzero"/>
	<path id="Vector" d="M74.14 177.81L113.31 152.93L113.31 182.88L74.14 207.76L74.14 177.81Z" fill="#F5F5F5" fill-opacity="1.000000" fill-rule="nonzero"/>
	<path id="Vector" d="M89.5 173.13L96.15 168.9C97.02 168.35 97.72 168.61 97.72 169.47C97.65 170 97.48 170.5 97.21 170.94C96.93 171.39 96.57 171.75 96.15 172.02L89.5 176.25C88.63 176.79 87.93 176.54 87.93 175.69C88 175.16 88.17 174.65 88.44 174.21C88.71 173.76 89.08 173.39 89.5 173.13Z" fill="#E0E0E0" fill-opacity="1.000000" fill-rule="nonzero"/>
	<path id="Vector" d="M74.14 177.81L72.84 176.99L72.84 206.93L74.14 207.76L74.14 177.81Z" fill="#E0E0E0" fill-opacity="1.000000" fill-rule="nonzero"/>
	<path id="Vector" d="M72.84 176.99L112 152.1L113.31 152.93L74.14 177.81L72.84 176.99Z" fill="#EBEBEB" fill-opacity="1.000000" fill-rule="nonzero"/>
	<path id="Vector" d="M454.47 279.66L420.19 257.89L420.19 177.03L454.47 198.79L454.47 279.66Z" fill="#E0E0E0" fill-opacity="1.000000" fill-rule="nonzero"/>
	<path id="Vector" d="M454.47 198.79L503.42 167.69L503.42 248.56L454.47 279.66L454.47 198.79Z" fill="#EBEBEB" fill-opacity="1.000000" fill-rule="nonzero"/>
	<path id="Vector" d="M503.42 167.69L454.47 198.79L420.19 177.03L469.16 145.92L503.42 167.69Z" fill="#F5F5F5" fill-opacity="1.000000" fill-rule="nonzero"/>
	<path id="Vector" d="M459.36 201.91L498.53 177.03L499.43 177.6L499.42 207.54L460.26 232.42L459.36 231.85L459.36 201.91Z" fill="#E0E0E0" fill-opacity="1.000000" fill-rule="nonzero"/>
	<path id="Vector" d="M460.26 202.48L499.43 177.6L499.42 207.54L460.26 232.42L460.26 202.48Z" fill="#F5F5F5" fill-opacity="1.000000" fill-rule="nonzero"/>
	<path id="Vector" d="M475.62 197.8L482.27 193.57C483.14 193.02 483.84 193.27 483.84 194.12C483.77 194.65 483.6 195.16 483.33 195.61C483.06 196.05 482.69 196.42 482.27 196.68L475.62 200.91C474.75 201.46 474.05 201.2 474.05 200.36C474.11 199.82 474.29 199.32 474.56 198.87C474.83 198.43 475.19 198.06 475.62 197.8Z" fill="#E0E0E0" fill-opacity="1.000000" fill-rule="nonzero"/>
	<path id="Vector" d="M458.46 239.81L497.62 214.92L497.62 244.88L498.53 245.45L459.36 270.32L458.46 269.75L458.46 239.81Z" fill="#E0E0E0" fill-opacity="1.000000" fill-rule="nonzero"/>
	<path id="Vector" d="M459.36 240.38L498.53 215.5L498.53 245.45L459.36 270.32L459.36 240.38Z" fill="#F5F5F5" fill-opacity="1.000000" fill-rule="nonzero"/>
	<path id="Vector" d="M474.71 235.7L481.38 231.47C482.23 230.92 482.93 231.18 482.93 232.02C482.87 232.55 482.7 233.06 482.43 233.5C482.16 233.95 481.8 234.32 481.38 234.58L474.71 238.81C473.85 239.36 473.15 239.11 473.15 238.24C473.21 237.72 473.39 237.21 473.66 236.77C473.93 236.33 474.29 235.96 474.71 235.7Z" fill="#E0E0E0" fill-opacity="1.000000" fill-rule="nonzero"/>
	<path id="Vector" d="M128.46 364.18C128.46 364.18 128.6 343.15 116.54 327.38C105.88 313.41 100.2 304.55 103.56 300.47C106.93 296.39 114.16 295.4 123.91 306.7C133.66 318 134.42 349.3 133.07 356.38L128.46 364.18Z" fill="#02897A" fill-opacity="1.000000" fill-rule="nonzero"/>
	<g opacity="0.200000">
		<path id="Vector" d="M128.46 364.18C128.46 364.18 128.6 343.15 116.54 327.38C105.88 313.41 100.2 304.55 103.56 300.47C106.93 296.39 114.16 295.4 123.91 306.7C133.66 318 134.42 349.3 133.07 356.38L128.46 364.18Z" fill="#000000" fill-opacity="1.000000" fill-rule="nonzero"/>
	</g>
	<path id="Vector" d="M130.49 341.57C130.35 341.57 130.22 341.52 130.11 341.42C130 341.33 129.93 341.2 129.9 341.05C125.68 319.34 114.86 307.34 108.77 302.11C108.64 302.01 108.56 301.85 108.54 301.67C108.52 301.5 108.56 301.32 108.66 301.19C108.76 301.05 108.91 300.96 109.07 300.93C109.23 300.91 109.39 300.96 109.52 301.07C115.72 306.37 126.78 318.65 131.08 340.77C131.1 340.86 131.1 340.94 131.08 341.03C131.07 341.12 131.04 341.2 131 341.27C130.96 341.34 130.9 341.41 130.84 341.45C130.77 341.5 130.7 341.54 130.62 341.55L130.49 341.57Z" fill="#FFFFFF" fill-opacity="1.000000" fill-rule="nonzero"/>
	<path id="Vector" d="M128 371.99L123.1 375.11C122.58 373.53 121.69 372.14 120.54 371.05C119.38 369.96 117.99 369.21 116.5 368.89C111.13 367.56 105.56 367.79 101.8 362.67C98.04 357.55 102.62 351.98 101.8 348.21C100.98 344.45 100.45 343.36 93.73 339.59C87 335.83 84.35 329.58 89.41 325.35C94.48 321.12 102.67 324.22 107.64 328C112.05 331.32 116.24 332.19 121.17 332.87C126.1 333.54 134.13 336.56 132.9 349.15C132.09 356.95 130.45 364.62 128 371.99Z" fill="#02897A" fill-opacity="1.000000" fill-rule="nonzero"/>
	<path id="Vector" d="M109.18 355.44C109.05 355.44 108.93 355.39 108.82 355.31C108.72 355.23 108.64 355.11 108.6 354.98C108.56 354.81 108.57 354.63 108.65 354.47C108.72 354.31 108.85 354.2 109 354.14C109.43 353.99 119.85 350.36 124.27 354.26C124.38 354.37 124.45 354.53 124.46 354.7C124.47 354.86 124.42 355.02 124.33 355.15C124.23 355.28 124.1 355.37 123.95 355.4C123.8 355.42 123.65 355.39 123.52 355.29C119.62 351.85 109.47 355.37 109.36 355.41L109.18 355.44Z" fill="#FFFFFF" fill-opacity="1.000000" fill-rule="nonzero"/>
	<path id="Vector" d="M128.55 370.98C128.4 370.98 128.26 370.92 128.15 370.82C128.04 370.71 127.97 370.56 127.96 370.4C125.27 342.47 94.69 329.22 94.39 329.09C94.32 329.06 94.25 329.01 94.19 328.95C94.13 328.89 94.09 328.82 94.05 328.74C94.02 328.66 94 328.57 94 328.48C94 328.4 94.01 328.31 94.04 328.23C94.1 328.07 94.21 327.94 94.36 327.86C94.5 327.79 94.66 327.78 94.81 327.84C95.14 327.99 126.39 341.51 129.15 370.28C129.17 370.45 129.12 370.63 129.02 370.76C128.92 370.9 128.78 370.99 128.62 371.01L128.55 370.98Z" fill="#FFFFFF" fill-opacity="1.000000" fill-rule="nonzero"/>
	<path id="Vector" d="M428.31 353.65C428.45 353.19 433.62 323.9 428.31 303.14C423.49 284.09 417.2 277.06 408.24 275.51C399.27 273.96 395.38 281.07 400.14 290.7C404.9 300.32 416.36 313.1 419.17 334.61C420.37 343.46 421.29 351.16 421.29 351.16L428.31 353.65Z" fill="#02897A" fill-opacity="1.000000" fill-rule="nonzero"/>
	<g opacity="0.200000">
		<path id="Vector" d="M428.31 353.65C428.45 353.19 433.62 323.9 428.31 303.14C423.49 284.09 417.2 277.06 408.24 275.51C399.27 273.96 395.38 281.07 400.14 290.7C404.9 300.32 416.36 313.1 419.17 334.61C420.37 343.46 421.29 351.16 421.29 351.16L428.31 353.65Z" fill="#000000" fill-opacity="1.000000" fill-rule="nonzero"/>
	</g>
	<path id="Vector" d="M425.29 336.83C425.21 336.83 425.13 336.81 425.06 336.77C424.99 336.73 424.93 336.68 424.87 336.61C424.82 336.55 424.78 336.47 424.75 336.39C424.73 336.31 424.72 336.22 424.72 336.13C425.93 312.42 418.89 291.25 406.27 280.87C406.14 280.76 406.06 280.61 406.04 280.43C406.01 280.26 406.05 280.08 406.15 279.94C406.25 279.8 406.39 279.71 406.55 279.69C406.71 279.66 406.87 279.71 406.99 279.81C419.93 290.42 427.18 312.06 425.92 336.21C425.91 336.38 425.84 336.55 425.72 336.66C425.6 336.78 425.45 336.84 425.29 336.83Z" fill="#FFFFFF" fill-opacity="1.000000" fill-rule="nonzero"/>
	<path id="Vector" d="M442.19 368.9C441.5 363.45 444.34 355.28 451.1 353.34C457.86 351.41 460.88 347.14 458.44 342.47C456.01 337.8 456.58 333.52 462.71 331.58C468.84 329.65 474.22 326.28 470.69 319.14C468.12 313.98 467.55 310.64 473.85 300.48C479.06 292.05 474.8 287.1 468.27 288.03C461.73 288.96 457.7 297.53 453.61 298.96C449.53 300.39 448.58 292.75 443.2 296.17C437.81 299.59 438.14 308.36 437.97 314.47C437.8 320.59 437.44 321.97 432.57 321.22C427.7 320.48 422.93 321.36 423.03 334.31C423.12 345.43 428.51 359.19 428.51 359.19L442.19 368.9Z" fill="#02897A" fill-opacity="1.000000" fill-rule="nonzero"/>
	<path id="Vector" d="M433.64 360.61L433.58 360.61C433.42 360.59 433.27 360.5 433.17 360.36C433.07 360.22 433.02 360.05 433.04 359.87C436.44 326.46 462.49 298.28 469.29 292.57C469.42 292.46 469.58 292.41 469.74 292.44C469.9 292.46 470.04 292.55 470.14 292.69C470.24 292.83 470.28 293.01 470.26 293.19C470.24 293.36 470.15 293.52 470.03 293.63C463.31 299.26 437.59 327.07 434.24 360.02C434.23 360.18 434.16 360.33 434.04 360.44C433.93 360.55 433.79 360.61 433.64 360.61Z" fill="#FFFFFF" fill-opacity="1.000000" fill-rule="nonzero"/>
	<path id="Vector" d="M445.52 324.9C445.4 324.9 445.28 324.86 445.18 324.78C445.08 324.71 445 324.6 444.96 324.47C444.91 324.31 444.91 324.12 444.98 323.96C445.05 323.8 445.17 323.68 445.32 323.61C455.03 319.63 466.05 321.52 466.52 321.6C466.67 321.63 466.81 321.72 466.91 321.86C467 322 467.04 322.18 467.01 322.35C466.98 322.52 466.9 322.68 466.77 322.78C466.64 322.88 466.48 322.93 466.33 322.91C466.22 322.91 455.15 321 445.74 324.86C445.67 324.88 445.6 324.9 445.52 324.9Z" fill="#FFFFFF" fill-opacity="1.000000" fill-rule="nonzero"/>
	<path id="Vector" d="M436.87 344.98C436.79 344.98 436.7 344.96 436.63 344.92C436.55 344.88 436.48 344.82 436.42 344.75C432.38 339.57 429.65 333.32 428.48 326.62C428.47 326.54 428.47 326.45 428.49 326.36C428.51 326.28 428.55 326.2 428.59 326.13C428.64 326.06 428.7 326 428.77 325.95C428.83 325.91 428.91 325.88 428.99 325.87C429.07 325.85 429.15 325.86 429.22 325.88C429.3 325.9 429.37 325.94 429.44 325.99C429.5 326.04 429.55 326.1 429.6 326.18C429.64 326.25 429.66 326.34 429.68 326.42C430.83 332.86 433.46 338.87 437.33 343.86C437.4 343.96 437.45 344.08 437.47 344.21C437.48 344.33 437.47 344.46 437.42 344.58C437.37 344.7 437.29 344.8 437.2 344.87C437.1 344.94 436.99 344.97 436.87 344.98Z" fill="#FFFFFF" fill-opacity="1.000000" fill-rule="nonzero"/>
	<path id="Vector" d="M128 166.74L128 372L318.93 250.71L318.92 64.1L176.96 154.3L172.05 138.74L128 166.74Z" fill="#22343D" fill-opacity="1.000000" fill-rule="nonzero"/>
	<g opacity="0.700000">
		<path id="Vector" d="M128 166.74L128 372L318.93 250.71L318.92 64.1L176.96 154.3L172.05 138.74L128 166.74Z" fill="#000000" fill-opacity="0" fill-rule="nonzero"/>
	</g>
	<path id="Vector" d="M128 372L137.79 185.4L328.72 64.1L318.93 250.71L128 372Z" fill="#E0E0E0" fill-opacity="1.000000" fill-rule="nonzero"/>
	<path id="Vector" d="M128 372L142.68 188.51L333.61 67.21L318.93 250.71L128 372Z" fill="#22343D" fill-opacity="1.000000" fill-rule="nonzero"/>
	<g opacity="0.700000">
		<path id="Vector" d="M128 372L142.68 188.51L333.61 67.21L318.93 250.71L128 372Z" fill="#000000" fill-opacity="0" fill-rule="nonzero"/>
	</g>
	<path id="Vector" d="M157.38 185.4L157.38 390.68L348.3 269.37L348.3 82.76L206.33 172.96L201.44 157.4L157.38 185.4Z" fill="#F03E3D" fill-opacity="1.000000" fill-rule="nonzero"/>
	<g opacity="0.500000">
		<path id="Vector" d="M157.38 185.4L157.38 390.68L348.3 269.37L348.3 82.76L206.33 172.96L201.44 157.4L157.38 185.4Z" fill="#000000" fill-opacity="0" fill-rule="nonzero"/>
	</g>
	<path id="Vector" d="M157.38 390.68L167.16 204.06L358.09 82.76L348.3 269.37L157.38 390.68Z" fill="#E0E0E0" fill-opacity="1.000000" fill-rule="nonzero"/>
	<path id="Vector" d="M157.38 390.68L172.05 207.17L362.98 85.87L348.3 269.37L157.38 390.68Z" fill="#F03E3D" fill-opacity="1.000000" fill-rule="nonzero"/>
	<g opacity="0.500000">
		<path id="Vector" d="M157.38 390.68L172.05 207.17L362.98 85.87L348.3 269.37L157.38 390.68Z" fill="#000000" fill-opacity="0" fill-rule="nonzero"/>
	</g>
	<path id="Vector" d="M318.88 455.99C284.61 434.22 252.81 410.54 238.3 382.77L282.41 354.75L318.88 455.99Z" fill="#E0E0E0" fill-opacity="1.000000" fill-rule="nonzero"/>
	<path id="Vector" d="M191.64 207.17L191.64 412.44L382.56 291.15L382.56 104.54L240.59 194.73L235.7 179.18L191.64 207.17Z" fill="#02897A" fill-opacity="1.000000" fill-rule="nonzero"/>
	<g opacity="0.200000">
		<path id="Vector" d="M191.64 207.17L191.64 412.44L382.56 291.15L382.56 104.54L240.59 194.73L235.7 179.18L191.64 207.17Z" fill="#000000" fill-opacity="1.000000" fill-rule="nonzero"/>
	</g>
	<path id="Vector" d="M246.64 267.86C246.16 267.86 246.09 267.25 246.09 266.89L246.09 91.83C246.13 91.15 246.31 90.49 246.62 89.9C246.93 89.32 247.36 88.81 247.87 88.44L385.67 0.91C385.86 0.78 386.08 0.71 386.3 0.7C386.78 0.7 386.86 1.31 386.86 1.67L386.86 176.72C386.82 177.4 386.64 178.07 386.33 178.66C386.02 179.25 385.59 179.75 385.07 180.13L247.27 267.66C247.08 267.78 246.86 267.85 246.64 267.86Z" fill="#FFFFFF" fill-opacity="1.000000" fill-rule="nonzero"/>
	<path id="Vector" d="M386.23 1.31C386.24 1.41 386.24 1.5 386.23 1.6L386.23 176.66C386.19 177.22 386.04 177.77 385.78 178.26C385.52 178.75 385.17 179.17 384.75 179.49L246.94 267.02L246.7 267.14C246.69 267.04 246.69 266.95 246.7 266.85L246.7 91.79C246.75 91.23 246.9 90.69 247.16 90.2C247.41 89.71 247.76 89.29 248.19 88.97L385.99 1.44C386.06 1.38 386.15 1.34 386.24 1.32L386.23 1.31ZM386.31 0C385.98 0.01 385.66 0.11 385.38 0.3L247.58 87.83C246.98 88.27 246.47 88.85 246.11 89.55C245.75 90.24 245.54 91.01 245.5 91.81L245.5 266.86C245.5 267.9 245.97 268.5 246.7 268.5C247.03 268.49 247.35 268.38 247.63 268.19L385.43 180.66C386.04 180.23 386.55 179.64 386.91 178.95C387.27 178.26 387.48 177.48 387.52 176.68L387.52 1.63C387.52 0.59 387.05 -0.02 386.31 0Z" fill="#02897A" fill-opacity="1.000000" fill-rule="nonzero"/>
	<g opacity="0.700000">
		<path id="Vector" d="M386.23 1.31C386.24 1.41 386.24 1.5 386.23 1.6L386.23 176.66C386.19 177.22 386.04 177.77 385.78 178.26C385.52 178.75 385.17 179.17 384.75 179.49L246.94 267.02L246.7 267.14C246.69 267.04 246.69 266.95 246.7 266.85L246.7 91.79C246.75 91.23 246.9 90.69 247.16 90.2C247.41 89.71 247.76 89.29 248.19 88.97L385.99 1.44C386.06 1.38 386.15 1.34 386.24 1.32L386.23 1.31ZM386.31 0C385.98 0.01 385.66 0.11 385.38 0.3L247.58 87.83C246.98 88.27 246.47 88.85 246.11 89.55C245.75 90.24 245.54 91.01 245.5 91.81L245.5 266.86C245.5 267.9 245.97 268.5 246.7 268.5C247.03 268.49 247.35 268.38 247.63 268.19L385.43 180.66C386.04 180.23 386.55 179.64 386.91 178.95C387.27 178.26 387.48 177.48 387.52 176.68L387.52 1.63C387.52 0.59 387.05 -0.02 386.31 0Z" fill="#FFFFFF" fill-opacity="1.000000" fill-rule="nonzero"/>
	</g>
	<path id="Vector" d="M260.18 98.48L309.13 67.38L309.13 129.58L260.18 160.68L260.18 98.48Z" fill="#02897A" fill-opacity="1.000000" fill-rule="nonzero"/>
	<g opacity="0.800000">
		<path id="Vector" d="M260.18 98.48L309.13 67.38L309.13 129.58L260.18 160.68L260.18 98.48Z" fill="#11B5E4" fill-opacity="1.000000" fill-rule="nonzero"/>
	</g>
	<path id="Vector" d="M301.79 82.88L301.79 101.58L300.25 102.52L300.25 96.81C300.25 93.65 297.92 92.58 295.03 94.41L274.29 107.6C271.41 109.43 269.07 113.48 269.07 116.63L269.07 122.35L267.54 123.36L267.54 104.7L301.79 82.88Z" fill="#FFFFFF" fill-opacity="1.000000" fill-rule="nonzero"/>
	<path id="Vector" d="M292.37 130.49C289.86 132.08 287.82 130.41 287.82 126.74L287.82 96.81L281.52 100.57L281.52 130.74C281.52 134.4 279.49 138.7 276.98 140.25L272.42 143.14L272.42 145.13L296.9 129.58L296.9 127.6L292.37 130.49Z" fill="#FFFFFF" fill-opacity="1.000000" fill-rule="nonzero"/>
	<path id="Vector" d="M318.88 64.32C318.88 66.04 320.29 66.53 322.02 65.44L369.65 35.14C370.49 34.61 371.21 33.88 371.76 32.99C372.3 32.11 372.65 31.09 372.78 30.03C372.78 28.32 371.37 27.82 369.65 28.92L322.05 59.16C321.19 59.68 320.46 60.42 319.91 61.32C319.36 62.22 319.01 63.24 318.88 64.32Z" fill="#455A64" fill-opacity="1.000000" fill-rule="nonzero"/>
	<path id="Vector" d="M318.88 82.88C318.88 84.61 320.29 85.11 322.02 84.01L369.61 53.77C370.45 53.25 371.18 52.51 371.72 51.62C372.26 50.74 372.61 49.73 372.74 48.67C372.74 46.96 371.33 46.45 369.61 47.55L322.02 77.79C321.17 78.32 320.45 79.05 319.91 79.93C319.36 80.82 319.01 81.82 318.88 82.88Z" fill="#455A64" fill-opacity="1.000000" fill-rule="nonzero"/>
	<path id="Vector" d="M318.88 101.58C318.88 103.31 320.29 103.81 322.02 102.71L369.61 72.47C370.45 71.94 371.17 71.21 371.72 70.33C372.26 69.45 372.61 68.44 372.74 67.38C372.74 65.65 371.33 65.15 369.61 66.25L322.02 96.49C321.17 97.01 320.45 97.75 319.91 98.63C319.36 99.51 319.01 100.52 318.88 101.58Z" fill="#455A64" fill-opacity="1.000000" fill-rule="nonzero"/>
	<path id="Vector" d="M318.88 120.24C318.88 121.97 320.29 122.47 322.02 121.37L369.61 91.13C370.45 90.61 371.17 89.87 371.72 88.99C372.26 88.11 372.61 87.1 372.74 86.04C372.74 84.31 371.33 83.81 369.61 84.91L322.02 115.15C321.17 115.67 320.45 116.41 319.91 117.29C319.36 118.17 319.01 119.18 318.88 120.24Z" fill="#455A64" fill-opacity="1.000000" fill-rule="nonzero"/>
	<path id="Vector" d="M260.18 176.23C260.18 177.96 261.57 178.46 263.31 177.36L369.64 109.72C370.49 109.2 371.21 108.47 371.76 107.58C372.3 106.7 372.65 105.69 372.78 104.63C372.78 102.91 371.37 102.42 369.64 103.5L263.31 171.14C262.47 171.66 261.74 172.4 261.2 173.28C260.65 174.16 260.31 175.17 260.18 176.23Z" fill="#455A64" fill-opacity="1.000000" fill-rule="nonzero"/>
	<path id="Vector" d="M260.18 194.89C260.18 196.62 261.57 197.12 263.31 196.02L369.64 128.46C370.49 127.94 371.21 127.2 371.76 126.31C372.3 125.43 372.65 124.42 372.78 123.36C372.78 121.65 371.37 121.14 369.64 122.24L263.31 189.8C262.47 190.32 261.74 191.05 261.2 191.94C260.65 192.82 260.31 193.83 260.18 194.89Z" fill="#455A64" fill-opacity="1.000000" fill-rule="nonzero"/>
	<path id="Vector" d="M260.18 213.56C260.18 215.27 261.57 215.78 263.31 214.68L369.64 147.12C370.49 146.6 371.21 145.86 371.76 144.97C372.3 144.09 372.65 143.08 372.78 142.02C372.78 140.31 371.37 139.8 369.64 140.9L263.31 208.46C262.46 208.98 261.74 209.72 261.2 210.6C260.65 211.49 260.3 212.5 260.18 213.56Z" fill="#455A64" fill-opacity="1.000000" fill-rule="nonzero"/>
	<path id="Vector" d="M191.64 412.44L225.9 247.61L416.83 126.3L382.56 291.15L191.64 412.44Z" fill="#02897A" fill-opacity="1.000000" fill-rule="nonzero"/>
	<path id="Vector" d="M238.35 260.51L238.35 382.77L282.41 354.78L282.41 232.53L238.35 260.51Z" fill="#02897A" fill-opacity="1.000000" fill-rule="nonzero"/>
	<g opacity="0.200000">
		<path id="Vector" d="M238.35 260.51L238.35 382.77L282.41 354.78L282.41 232.53L238.35 260.51Z" fill="#000000" fill-opacity="1.000000" fill-rule="nonzero"/>
	</g>
	<path id="Vector" d="M318.97 455.2C315.22 452.12 279.09 421.74 260.72 378.28C241.17 332.07 241.2 278.18 241.2 257.9L241.2 257.26L372.18 174.06C372.18 194.52 372.18 248.5 391.81 294.86C409.75 337.3 444.5 367.3 450.01 371.88L318.97 455.2Z" fill="#FFFFFF" fill-opacity="1.000000" fill-rule="nonzero"/>
	<path id="Vector" d="M371.57 175.25C371.57 196.58 371.95 249.52 391.27 295.19C408.61 336.17 441.58 365.64 448.92 371.86L319 454.4C313.93 450.2 279.16 420.32 261.27 378.05C241.75 331.98 241.75 278.19 241.75 257.94L241.75 257.69L371.53 175.24L371.57 175.25ZM372.73 172.94L240.55 256.93C240.55 276.01 240.18 331.46 260.13 378.61C279.76 424.88 318.88 455.99 318.88 455.99L451.1 371.99C451.1 371.99 411.94 340.88 392.36 294.61C372.4 247.46 372.78 192.01 372.78 172.93L372.73 172.94Z" fill="#02897A" fill-opacity="1.000000" fill-rule="nonzero"/>
	<g opacity="0.700000">
		<path id="Vector" d="M371.57 175.25C371.57 196.58 371.95 249.52 391.27 295.19C408.61 336.17 441.58 365.64 448.92 371.86L319 454.4C313.93 450.2 279.16 420.32 261.27 378.05C241.75 331.98 241.75 278.19 241.75 257.94L241.75 257.69L371.53 175.24L371.57 175.25ZM372.73 172.94L240.55 256.93C240.55 276.01 240.18 331.46 260.13 378.61C279.76 424.88 318.88 455.99 318.88 455.99L451.1 371.99C451.1 371.99 411.94 340.88 392.36 294.61C372.4 247.46 372.78 192.01 372.78 172.93L372.73 172.94Z" fill="#FFFFFF" fill-opacity="1.000000" fill-rule="nonzero"/>
	</g>
	<path id="Vector" d="M357.82 201.11L316.03 227.64C315.19 228.14 314.48 228.86 313.95 229.74C313.42 230.61 313.09 231.62 312.99 232.66C313.05 234.35 314.51 234.82 316.23 233.72L358.04 207.2C358.87 206.7 359.57 205.98 360.1 205.12C360.62 204.26 360.96 203.27 361.06 202.24C360.99 200.49 359.56 200.01 357.82 201.11Z" fill="#455A64" fill-opacity="1.000000" fill-rule="nonzero"/>
	<path id="Vector" d="M358.71 219.21L316.92 245.74C316.09 246.23 315.39 246.94 314.88 247.81C314.37 248.67 314.07 249.67 314 250.7C314.13 252.33 315.65 252.77 317.38 251.67L359.18 225.14C360.01 224.65 360.7 223.94 361.21 223.08C361.71 222.21 362.01 221.22 362.06 220.2C361.94 218.55 360.45 218.15 358.71 219.21Z" fill="#455A64" fill-opacity="1.000000" fill-rule="nonzero"/>
	<path id="Vector" d="M360.39 236.81L318.58 263.34C316.86 264.44 315.6 266.63 315.81 268.2C316.01 269.78 317.59 270.19 319.33 269.09L361.14 242.57C362.86 241.47 364.09 239.29 363.87 237.71C363.66 236.14 362.11 235.71 360.39 236.81Z" fill="#455A64" fill-opacity="1.000000" fill-rule="nonzero"/>
	<path id="Vector" d="M362.9 253.88L321.09 280.4C319.36 281.51 318.17 283.65 318.46 285.19C318.75 286.73 320.39 287.07 322.08 285.97L363.87 259.45C365.61 258.35 366.76 256.21 366.48 254.68C366.19 253.14 364.68 252.78 362.9 253.88Z" fill="#455A64" fill-opacity="1.000000" fill-rule="nonzero"/>
	<path id="Vector" d="M366.29 270.38L324.49 296.9C322.76 298 321.64 300.1 322.08 301.57C322.51 303.04 324.16 303.37 325.88 302.27L367.69 275.75C369.43 274.65 370.51 272.57 370.1 271.08C369.69 269.6 368.02 269.28 366.29 270.38Z" fill="#455A64" fill-opacity="1.000000" fill-rule="nonzero"/>
	<path id="Vector" d="M370.71 286.28L268.82 351.01C267.1 352.11 266.05 354.15 266.52 355.57C266.99 356.99 268.78 357.26 270.51 356.16L372.39 291.43C374.13 290.32 375.13 288.29 374.66 286.86C374.19 285.43 372.37 285.18 370.71 286.28Z" fill="#455A64" fill-opacity="1.000000" fill-rule="nonzero"/>
	<path id="Vector" d="M376.07 301.46L274.19 366.2C272.46 367.3 271.51 369.29 272.09 370.64C272.66 371.99 274.5 372.2 276.26 371.1L378.14 306.37C379.88 305.27 380.81 303.28 380.23 301.93C379.65 300.57 377.8 300.38 376.07 301.46Z" fill="#455A64" fill-opacity="1.000000" fill-rule="nonzero"/>
	<path id="Vector" d="M382.76 315.93L280.87 380.66C279.14 381.76 278.28 383.7 278.97 384.99C279.65 386.27 281.62 386.41 283.35 385.31L385.17 320.57C386.89 319.49 387.72 317.56 387.04 316.28C386.35 314.99 384.44 314.83 382.76 315.93Z" fill="#455A64" fill-opacity="1.000000" fill-rule="nonzero"/>
	<path id="Vector" d="M390.56 329.62L288.68 394.34C286.94 395.44 286.17 397.33 286.96 398.54C287.74 399.75 289.8 399.87 291.54 398.75L393.41 334.02C395.15 332.92 395.89 331.05 395.11 329.83C394.33 328.61 392.29 328.52 390.56 329.62Z" fill="#455A64" fill-opacity="1.000000" fill-rule="nonzero"/>
	<path id="Vector" d="M399.45 342.63L297.56 407.35C295.84 408.45 295.15 410.29 296.02 411.44C296.89 412.6 299.02 412.65 300.76 411.55L402.64 346.79C404.37 345.69 405.05 343.88 404.16 342.72C403.27 341.57 401.18 341.49 399.45 342.63Z" fill="#455A64" fill-opacity="1.000000" fill-rule="nonzero"/>
	<path id="Vector" d="M409.27 355.02L307.42 419.73C305.69 420.83 305.01 422.64 306.02 423.71C307.04 424.79 309.18 424.81 310.9 423.71L412.79 358.98C414.53 357.88 415.13 356.1 414.16 355C413.2 353.9 411.03 353.93 409.27 355.02Z" fill="#455A64" fill-opacity="1.000000" fill-rule="nonzero"/>
	<path id="Vector" d="M420.12 366.86L318.23 431.58C316.51 432.68 315.94 434.44 317.03 435.49C318.11 436.54 320.33 436.5 322.06 435.4L423.87 370.66C425.59 369.56 426.13 367.84 425.07 366.78C424.01 365.72 421.81 365.76 420.12 366.86Z" fill="#455A64" fill-opacity="1.000000" fill-rule="nonzero"/>
	<path id="Vector" d="M300.88 237.3L252.81 267.81C253.34 286.97 255.33 314.61 262.61 342.44L310.69 311.94C303.4 284.1 301.41 256.45 300.88 237.3Z" fill="#02897A" fill-opacity="1.000000" fill-rule="nonzero"/>
	<g opacity="0.800000">
		<path id="Vector" d="M300.88 237.3L252.81 267.81C253.34 286.97 255.33 314.61 262.61 342.44L310.69 311.94C303.4 284.1 301.41 256.45 300.88 237.3Z" fill="#11B5E4" fill-opacity="1.000000" fill-rule="nonzero"/>
	</g>
	<path id="Vector" d="M272.41 263.59C272.48 262.35 272.3 261.11 271.9 259.96C271.49 258.8 270.87 257.75 270.07 256.88L252.81 267.83C252.96 272.9 253.2 278.56 253.62 284.66C255.87 284.95 258.14 284.48 260.14 283.33C266.93 279.91 272.41 271.04 272.41 263.59Z" fill="#02897A" fill-opacity="1.000000" fill-rule="nonzero"/>
	<g opacity="0.600000">
		<path id="Vector" d="M272.41 263.59C272.48 262.35 272.3 261.11 271.9 259.96C271.49 258.8 270.87 257.75 270.07 256.88L252.81 267.83C252.96 272.9 253.2 278.56 253.62 284.66C255.87 284.95 258.14 284.48 260.14 283.33C266.93 279.91 272.41 271.04 272.41 263.59Z" fill="#FFFFFF" fill-opacity="1.000000" fill-rule="nonzero"/>
	</g>
	<path id="Vector" d="M306.6 293.64C303.4 289.2 296.88 275.47 294.09 269.49C293.98 269.25 293.81 269.06 293.6 268.93C293.39 268.8 293.15 268.75 292.91 268.77C292.67 268.79 292.44 268.9 292.25 269.07C292.07 269.24 291.93 269.46 291.86 269.72C288.85 281.04 287.1 292.73 286.66 304.53C282.64 301.02 279.19 296.8 276.45 292.04C276.33 291.85 276.17 291.71 275.98 291.62C275.79 291.53 275.58 291.51 275.38 291.55C275.18 291.59 274.99 291.69 274.84 291.84C274.69 291.99 274.58 292.19 274.53 292.41C269.28 314.67 271.92 336.58 271.92 336.58L310.69 311.94C309.07 305.79 307.73 299.66 306.6 293.64Z" fill="#02897A" fill-opacity="1.000000" fill-rule="nonzero"/>
	<g opacity="0.600000">
		<path id="Vector" d="M306.6 293.64C303.4 289.2 296.88 275.47 294.09 269.49C293.98 269.25 293.81 269.06 293.6 268.93C293.39 268.8 293.15 268.75 292.91 268.77C292.67 268.79 292.44 268.9 292.25 269.07C292.07 269.24 291.93 269.46 291.86 269.72C288.85 281.04 287.1 292.73 286.66 304.53C282.64 301.02 279.19 296.8 276.45 292.04C276.33 291.85 276.17 291.71 275.98 291.62C275.79 291.53 275.58 291.51 275.38 291.55C275.18 291.59 274.99 291.69 274.84 291.84C274.69 291.99 274.58 292.19 274.53 292.41C269.28 314.67 271.92 336.58 271.92 336.58L310.69 311.94C309.07 305.79 307.73 299.66 306.6 293.64Z" fill="#FFFFFF" fill-opacity="1.000000" fill-rule="nonzero"/>
	</g>
</svg>
