<svg width="541.828613" height="451.202148" viewBox="0 0 541.829 451.202" fill="none" xmlns="http://www.w3.org/2000/svg" xmlns:xlink="http://www.w3.org/1999/xlink">
	<desc>
			Created with Pixso.
	</desc>
	<defs/>
	<path id="Vector" d="M101.19 401.95C201.97 467.61 365.43 467.61 466.21 401.95C566.99 336.29 566.99 229.85 466.21 164.2C365.43 98.56 201.97 98.54 101.19 164.2C0.41 229.86 0.37 336.31 101.19 401.95Z" fill="#FAFAFA" fill-opacity="1.000000" fill-rule="nonzero"/>
	<path id="Vector" d="M495.28 159.39C495.84 151.77 501.16 138.78 509.04 129.56C516.92 120.34 529.53 115.84 537.3 119.57C544.56 123.06 542.96 133.77 533.4 140.1C523.83 146.43 509.6 154.21 504.72 166.21L495.28 180.61L495.28 159.39Z" fill="#02897A" fill-opacity="1.000000" fill-rule="nonzero"/>
	<g opacity="0.200000">
		<path id="Vector" d="M495.28 159.39C495.84 151.77 501.16 138.78 509.04 129.56C516.92 120.34 529.53 115.84 537.3 119.57C544.56 123.06 542.96 133.77 533.4 140.1C523.83 146.43 509.6 154.21 504.72 166.21L495.28 180.61L495.28 159.39Z" fill="#000000" fill-opacity="1.000000" fill-rule="nonzero"/>
	</g>
	<path id="Vector" d="M534.29 123.1C525.26 124.99 498.79 143.8 495.32 172.19" stroke="#FFFFFF" stroke-opacity="1.000000" stroke-width="1.000000" stroke-linecap="round"/>
	<path id="Vector" d="M496.35 193.6C497.74 189.53 503.79 181.98 512.49 178.28C521.19 174.58 527.76 171.27 530.93 165.3C534.1 159.34 528.58 153.48 519.79 153.9C511 154.32 496.37 164.47 495.33 180.61L496.35 193.6Z" fill="#02897A" fill-opacity="1.000000" fill-rule="nonzero"/>
	<path id="Vector" d="M524.26 158.73C516.67 159.55 498.21 171.9 495.73 185.73" stroke="#FFFFFF" stroke-opacity="1.000000" stroke-width="1.000000" stroke-linecap="round"/>
	<path id="Vector" d="M42.39 232.32C42.02 221.55 39.84 210.94 35.99 201.04C29.51 184.11 16.41 175.14 9.43 173.92C2.45 172.7 -4.77 182.06 4.12 193.18C13 204.29 30.04 219.18 34.93 241.7L42.93 257.07L42.39 232.32Z" fill="#02897A" fill-opacity="1.000000" fill-rule="nonzero"/>
	<g opacity="0.200000">
		<path id="Vector" d="M42.39 232.32C42.02 221.55 39.84 210.94 35.99 201.04C29.51 184.11 16.41 175.14 9.43 173.92C2.45 172.7 -4.77 182.06 4.12 193.18C13 204.29 30.04 219.18 34.93 241.7L42.93 257.07L42.39 232.32Z" fill="#000000" fill-opacity="1.000000" fill-rule="nonzero"/>
	</g>
	<path id="Vector" d="M9.43 179.09C23.76 188.5 40.36 213.19 42.69 246" stroke="#FFFFFF" stroke-opacity="1.000000" stroke-width="1.000000" stroke-linejoin="round" stroke-linecap="round"/>
	<path id="Vector" d="M41.3 272.84C39.32 264.1 34.14 255.57 23.81 247C13.47 238.43 -0.34 231.07 0.79 222.33C1.92 213.58 12.39 214.19 20.06 218.05C27.73 221.92 41.03 237.82 42.93 257.05L41.3 272.84Z" fill="#02897A" fill-opacity="1.000000" fill-rule="nonzero"/>
	<path id="Vector" d="M8.04 219.59C17.99 222.3 39.36 243.86 42.45 262.21" stroke="#FFFFFF" stroke-opacity="1.000000" stroke-width="1.000000" stroke-linejoin="round" stroke-linecap="round"/>
	<path id="Vector" d="M44.12 278.24C43.3 277.64 42.61 276.84 42.12 275.9C41.63 274.96 41.35 273.9 41.3 272.81L41.3 77.11C41.35 76.02 41.63 74.97 42.12 74.02C42.61 73.08 43.3 72.28 44.12 71.68L107.5 31.32C108.32 30.76 109.27 30.45 110.23 30.43C111.2 30.41 112.15 30.69 112.99 31.22C113.82 31.75 114.51 32.53 114.98 33.46C115.45 34.39 115.68 35.45 115.64 36.52L115.64 49.58C115.64 51.58 116.87 52.39 118.48 51.39L197.79 0.89C198.61 0.32 199.55 0.01 200.51 0C201.48 -0.02 202.43 0.25 203.27 0.78C204.1 1.31 204.79 2.09 205.26 3.02C205.73 3.95 205.96 5 205.92 6.06L205.92 306.89L147.47 344.09L44.12 278.24Z" fill="#263238" fill-opacity="1.000000" fill-rule="nonzero"/>
	<path id="Vector" d="M203.27 0.79C202.41 0.33 201.47 0.1 200.52 0.12C199.56 0.14 198.63 0.4 197.79 0.9L118.48 51.4C116.91 52.4 115.64 51.59 115.64 49.6L115.64 36.53C115.68 35.46 115.45 34.41 114.98 33.48C114.51 32.54 113.82 31.77 112.99 31.23C112.15 30.7 111.2 30.43 110.23 30.45C109.27 30.46 108.32 30.77 107.5 31.34L44.12 71.7C43.29 72.28 42.6 73.08 42.12 74.03L78.47 97.19L205.92 15.99L205.92 6.08C205.89 5.03 205.63 4 205.17 3.08C204.71 2.17 204.06 1.38 203.27 0.79Z" fill="#455A64" fill-opacity="1.000000" fill-rule="nonzero"/>
	<path id="Vector" d="M203.1 4.27L118.48 58.17C116.91 59.17 115.64 58.36 115.64 56.36L115.64 36.53C115.64 34.54 114.41 33.72 112.81 34.73L49.43 75.09C48.61 75.68 47.92 76.48 47.43 77.43C46.94 78.37 46.66 79.42 46.61 80.51L46.61 269.52C46.66 270.61 46.94 271.67 47.43 272.61C47.93 273.55 48.62 274.35 49.45 274.94L152.82 340.78L205.92 306.97L205.92 6.08C205.92 4.09 204.66 3.29 203.1 4.27Z" fill="#37474F" fill-opacity="1.000000" fill-rule="nonzero"/>
	<path id="Vector" d="M47.44 272.53C47.92 273.48 48.61 274.29 49.45 274.86L152.82 340.7L205.92 306.89L205.92 171.59L47.44 272.53Z" fill="#263238" fill-opacity="1.000000" fill-rule="nonzero"/>
	<path id="Vector" d="M60.27 315.62L59.5 315.13C58.84 314.65 58.29 314.02 57.89 313.26C57.5 312.51 57.27 311.67 57.23 310.8L57.23 127.16C57.27 126.3 57.49 125.45 57.89 124.7C58.29 123.95 58.84 123.31 59.5 122.84L230.21 14.1C230.91 13.71 231.69 13.5 232.48 13.5C233.27 13.5 234.04 13.71 234.74 14.1L235.52 14.61C236.18 15.08 236.73 15.71 237.13 16.47C237.52 17.22 237.75 18.06 237.79 18.93L237.79 202.53C237.75 203.4 237.52 204.24 237.12 204.99C236.73 205.74 236.18 206.38 235.52 206.86L64.81 315.62C64.11 316.01 63.33 316.22 62.54 316.22C61.75 316.22 60.98 316.01 60.27 315.62Z" fill="#F5F5F5" fill-opacity="1.000000" fill-rule="nonzero"/>
	<path id="Vector" d="M67.84 131L57.89 124.66C57.48 125.4 57.25 126.25 57.23 127.12L57.23 310.76C57.27 311.63 57.5 312.47 57.89 313.22C58.29 313.98 58.84 314.61 59.5 315.09L60.27 315.58C60.98 315.97 61.75 316.18 62.54 316.18C63.33 316.18 64.11 315.97 64.81 315.58L67.84 313.64L67.84 131Z" fill="#E0E0E0" fill-opacity="1.000000" fill-rule="nonzero"/>
	<path id="Vector" d="M62.55 314.14L62.55 130.5C62.59 129.63 62.82 128.79 63.21 128.04C63.6 127.29 64.15 126.65 64.81 126.17L235.52 17.44C236.75 16.65 237.79 17.29 237.79 18.89L237.79 202.53C237.75 203.4 237.52 204.24 237.12 204.99C236.73 205.74 236.18 206.38 235.52 206.86L64.81 315.62C63.55 316.38 62.55 315.74 62.55 314.14Z" fill="#EBEBEB" fill-opacity="1.000000" fill-rule="nonzero"/>
	<path id="Vector" d="M75.99 132.59L224.34 38.11C225.9 37.11 227.16 37.93 227.16 39.92L227.16 181.52C227.11 182.6 226.83 183.66 226.34 184.6C225.85 185.54 225.16 186.35 224.34 186.94L75.99 281.4C74.43 282.4 73.17 281.59 73.17 279.59L73.17 138.01C73.22 136.92 73.5 135.87 73.99 134.92C74.48 133.98 75.17 133.18 75.99 132.59Z" fill="#FFFFFF" fill-opacity="1.000000" fill-rule="nonzero"/>
	<path id="Vector" d="M100.51 125.52C109.75 119.64 117.24 124.41 117.24 136.18C117.24 147.95 109.75 162.25 100.51 168.13C91.27 174.02 83.78 169.26 83.78 157.49C83.78 145.72 91.27 131.41 100.51 125.52Z" fill="#FFB900" fill-opacity="1.000000" fill-rule="nonzero"/>
	<path id="Vector" d="M116.01 168.2C116.58 167.04 117.39 166.03 118.37 165.28C119.36 164.52 120.49 164.04 121.68 163.86C122.87 163.67 124.08 163.81 125.21 164.24C126.35 164.68 127.37 165.4 128.2 166.36L147.47 188.5L184.1 89.38C184.63 87.92 185.53 86.67 186.68 85.75C187.84 84.83 189.2 84.28 190.62 84.17C192.04 84.07 193.46 84.4 194.71 85.14C195.97 85.88 197.01 86.99 197.73 88.35L227.14 144.53L227.14 181.52C227.09 182.6 226.81 183.66 226.31 184.6C225.82 185.54 225.14 186.35 224.31 186.94L75.99 281.4C74.43 282.4 73.17 281.59 73.17 279.59L73.17 256.14L116.01 168.2Z" fill="#FFB900" fill-opacity="1.000000" fill-rule="nonzero"/>
	<path id="Vector" d="M92.17 335.95L91.38 335.45C90.72 334.98 90.17 334.34 89.78 333.59C89.39 332.84 89.16 331.99 89.12 331.13L89.12 147.42C89.16 146.55 89.39 145.71 89.78 144.96C90.17 144.21 90.72 143.57 91.38 143.09L262.1 34.37C262.8 33.97 263.58 33.77 264.36 33.77C265.15 33.77 265.93 33.97 266.63 34.37L267.41 34.86C268.07 35.34 268.62 35.97 269.01 36.73C269.4 37.48 269.63 38.32 269.67 39.19L269.67 222.83C269.64 223.7 269.41 224.54 269.02 225.29C268.63 226.05 268.07 226.68 267.41 227.15L96.66 335.95C95.97 336.35 95.2 336.55 94.42 336.55C93.63 336.55 92.86 336.35 92.17 335.95Z" fill="#F5F5F5" fill-opacity="1.000000" fill-rule="nonzero"/>
	<path id="Vector" d="M99.71 151.31L89.76 144.96C89.35 145.71 89.12 146.55 89.09 147.42L89.09 331.06C89.14 331.93 89.36 332.77 89.76 333.52C90.15 334.27 90.7 334.91 91.35 335.38L92.14 335.89C92.84 336.29 93.62 336.49 94.4 336.49C95.19 336.49 95.97 336.29 96.66 335.89L99.71 333.95L99.71 151.31Z" fill="#E0E0E0" fill-opacity="1.000000" fill-rule="nonzero"/>
	<path id="Vector" d="M94.4 334.45L94.4 150.81C94.45 149.94 94.67 149.1 95.07 148.35C95.46 147.6 96.01 146.96 96.66 146.48L267.39 37.75C268.62 36.95 269.65 37.6 269.65 39.19L269.65 222.83C269.61 223.69 269.39 224.54 269 225.29C268.6 226.05 268.05 226.68 267.39 227.15L96.66 335.95C95.42 336.69 94.4 336.03 94.4 334.45Z" fill="#EBEBEB" fill-opacity="1.000000" fill-rule="nonzero"/>
	<path id="Vector" d="M107.86 152.92L256.2 58.44C257.76 57.45 259.03 58.26 259.03 60.24L259.03 201.81C258.98 202.9 258.7 203.96 258.21 204.9C257.71 205.84 257.03 206.64 256.2 207.24L107.86 301.72C106.29 302.71 105.02 301.91 105.02 299.92L105.02 158.35C105.07 157.26 105.36 156.2 105.85 155.26C106.34 154.32 107.03 153.52 107.86 152.92Z" fill="#FFFFFF" fill-opacity="1.000000" fill-rule="nonzero"/>
	<path id="Vector" d="M132.38 145.83C141.61 139.95 149.11 144.72 149.11 156.49C149.11 168.26 141.61 182.56 132.38 188.44C123.15 194.33 115.65 189.56 115.65 177.79C115.65 166.02 123.14 151.72 132.38 145.83Z" fill="#11B5E4" fill-opacity="1.000000" fill-rule="nonzero"/>
	<path id="Vector" d="M147.88 188.51C148.44 187.35 149.25 186.34 150.24 185.59C151.22 184.83 152.35 184.35 153.54 184.17C154.73 183.99 155.94 184.12 157.07 184.55C158.2 184.99 159.23 185.71 160.06 186.67L179.43 208.81L216.04 109.69C216.58 108.23 217.47 106.97 218.63 106.05C219.78 105.12 221.15 104.58 222.57 104.47C223.99 104.36 225.41 104.7 226.67 105.44C227.93 106.18 228.97 107.29 229.68 108.66L259.08 164.84L259.08 201.81C259.03 202.9 258.75 203.96 258.26 204.9C257.76 205.84 257.08 206.64 256.25 207.24L107.91 301.72C106.34 302.71 105.07 301.91 105.07 299.92L105.07 276.46L147.88 188.51Z" fill="#11B5E4" fill-opacity="1.000000" fill-rule="nonzero"/>
	<path id="Vector" d="M124 356.17L123.22 355.68C122.57 355.2 122.02 354.57 121.62 353.81C121.23 353.06 121 352.22 120.96 351.35L120.96 167.71C121 166.85 121.23 166 121.63 165.25C122.02 164.5 122.57 163.86 123.24 163.39L293.95 54.65C294.65 54.26 295.43 54.06 296.21 54.06C297 54.06 297.78 54.26 298.48 54.65L299.26 55.16C299.92 55.63 300.47 56.27 300.86 57.02C301.26 57.77 301.49 58.61 301.53 59.48L301.53 243.12C301.49 243.99 301.26 244.83 300.86 245.58C300.47 246.34 299.92 246.97 299.26 247.45L128.55 356.17C127.84 356.56 127.06 356.77 126.27 356.77C125.48 356.77 124.7 356.56 124 356.17Z" fill="#F5F5F5" fill-opacity="1.000000" fill-rule="nonzero"/>
	<path id="Vector" d="M131.58 171.59L121.66 165.25C121.26 166 121.03 166.84 121 167.71L121 351.36C121.04 352.22 121.27 353.06 121.66 353.82C122.05 354.57 122.6 355.21 123.26 355.68L124.03 356.17C124.74 356.56 125.51 356.77 126.3 356.77C127.09 356.77 127.87 356.56 128.57 356.17L131.62 354.23L131.58 171.59Z" fill="#E0E0E0" fill-opacity="1.000000" fill-rule="nonzero"/>
	<path id="Vector" d="M126.27 354.73L126.27 171.09C126.31 170.22 126.54 169.38 126.93 168.63C127.33 167.88 127.87 167.24 128.53 166.77L299.24 58.02C300.47 57.23 301.52 57.87 301.52 59.47L301.52 243.12C301.47 243.99 301.24 244.83 300.85 245.59C300.45 246.34 299.9 246.97 299.24 247.45L128.53 356.17C127.28 356.97 126.27 356.29 126.27 354.73Z" fill="#EBEBEB" fill-opacity="1.000000" fill-rule="nonzero"/>
	<path id="Vector" d="M139.72 173.16L288.06 78.69C289.62 77.69 290.89 78.5 290.89 80.5L290.89 222.07C290.84 223.15 290.55 224.21 290.06 225.15C289.57 226.1 288.88 226.9 288.06 227.49L139.72 321.99C138.16 322.99 136.89 322.18 136.89 320.19L136.89 178.57C136.94 177.49 137.23 176.44 137.72 175.5C138.21 174.56 138.89 173.76 139.72 173.16Z" fill="#FFFFFF" fill-opacity="1.000000" fill-rule="nonzero"/>
	<path id="Vector" d="M164.24 166.11C173.48 160.23 180.96 165 180.96 176.77C180.96 188.54 173.48 202.84 164.24 208.73C154.99 214.61 147.47 209.87 147.47 198.08C147.47 186.3 154.99 172 164.24 166.11Z" fill="#F03E3D" fill-opacity="1.000000" fill-rule="nonzero"/>
	<path id="Vector" d="M179.73 208.79C180.3 207.63 181.11 206.63 182.1 205.87C183.08 205.12 184.22 204.63 185.4 204.45C186.59 204.27 187.8 204.4 188.94 204.84C190.07 205.27 191.09 206 191.93 206.95L211.23 229.09L247.86 129.97C248.4 128.52 249.29 127.26 250.45 126.34C251.6 125.42 252.96 124.87 254.38 124.77C255.8 124.66 257.22 124.99 258.48 125.73C259.73 126.47 260.78 127.58 261.49 128.94L290.9 185.12L290.9 222.07C290.84 223.15 290.56 224.21 290.07 225.15C289.57 226.09 288.89 226.9 288.06 227.49L139.72 321.99C138.16 322.99 136.89 322.18 136.89 320.19L136.89 296.73L179.73 208.79Z" fill="#F03E3D" fill-opacity="1.000000" fill-rule="nonzero"/>
	<path id="Vector" d="M152.82 340.7L168.75 330.56L168.75 350.85L152.82 340.7Z" fill="#263238" fill-opacity="1.000000" fill-rule="nonzero"/>
	<path id="Vector" d="M168.75 198.87L168.75 347.25C168.75 349.24 167.52 350.04 165.92 349.05L152.82 340.7L147.47 344.09L171.19 359.19C172.07 359.69 173.04 359.94 174.03 359.94C175.01 359.94 175.98 359.69 176.86 359.19L341.17 254.61C341.99 254.01 342.68 253.21 343.17 252.27C343.67 251.33 343.95 250.27 344 249.18L344 94.03C344.04 92.96 343.81 91.91 343.34 90.98C342.87 90.04 342.18 89.27 341.34 88.74C340.51 88.2 339.55 87.93 338.59 87.95C337.62 87.97 336.68 88.27 335.86 88.83L171.59 193.46C170.76 194.05 170.07 194.85 169.58 195.79C169.08 196.73 168.8 197.79 168.75 198.87Z" fill="#263238" fill-opacity="1.000000" fill-rule="nonzero"/>
	<path id="Vector" d="M179.43 202.03L344.12 97.19L344.12 94.03C344.15 92.96 343.92 91.91 343.45 90.98C342.98 90.04 342.29 89.27 341.45 88.74C340.62 88.2 339.66 87.93 338.7 87.95C337.73 87.97 336.79 88.27 335.97 88.83L171.59 193.46C170.75 194.03 170.06 194.84 169.58 195.79L179.43 202.03Z" fill="#455A64" fill-opacity="1.000000" fill-rule="nonzero"/>
	<path id="Vector" d="M341.17 92.22L176.9 196.85C176.07 197.44 175.38 198.24 174.89 199.19C174.39 200.13 174.11 201.19 174.06 202.27L174.06 357.39C174.06 359.38 175.29 360.19 176.9 359.19L341.17 254.61C341.99 254.01 342.68 253.21 343.17 252.27C343.67 251.33 343.95 250.27 344 249.18L344 94.03C344 92.03 342.73 91.22 341.17 92.22Z" fill="#37474F" fill-opacity="1.000000" fill-rule="nonzero"/>
	<path id="Vector" d="M217.8 292.93C217.48 292.94 217.17 292.85 216.9 292.68C216.57 292.44 216.31 292.11 216.14 291.72C215.97 291.33 215.89 290.9 215.93 290.47L215.93 215.06C215.97 214.07 216.23 213.12 216.67 212.26C217.12 211.41 217.75 210.68 218.5 210.15L298.95 158.92C299.26 158.64 299.64 158.48 300.03 158.45C300.43 158.42 300.82 158.52 301.17 158.74C301.51 158.96 301.78 159.29 301.96 159.68C302.13 160.08 302.19 160.52 302.13 160.95L302.13 236.36C302.09 237.34 301.83 238.3 301.39 239.15C300.94 240.01 300.31 240.73 299.56 241.27L219.11 292.57C218.71 292.81 218.26 292.94 217.8 292.93ZM300.26 159.84C300.01 159.85 299.77 159.94 299.56 160.1L219.11 211.32C218.55 211.73 218.08 212.29 217.74 212.94C217.4 213.59 217.2 214.31 217.16 215.06L217.16 290.47C217.14 290.66 217.16 290.85 217.22 291.03C217.28 291.21 217.38 291.37 217.51 291.5C217.68 291.56 217.85 291.58 218.03 291.55C218.2 291.52 218.36 291.44 218.5 291.32L298.95 240.09C299.51 239.67 299.98 239.12 300.32 238.47C300.66 237.83 300.86 237.1 300.9 236.36L300.9 160.95C300.93 160.76 300.91 160.56 300.84 160.38C300.78 160.2 300.68 160.04 300.55 159.92C300.46 159.86 300.36 159.84 300.26 159.84Z" fill="#FAFAFA" fill-opacity="1.000000" fill-rule="nonzero"/>
	<path id="Vector" d="M230.76 227.99C230.06 228 229.37 227.8 228.76 227.42C228 226.85 227.39 226.06 227.01 225.14C226.62 224.22 226.46 223.2 226.55 222.19C226.68 219.59 227.36 217.05 228.55 214.79C229.73 212.53 231.38 210.61 233.36 209.19C234.07 208.54 234.95 208.16 235.88 208.08C236.8 208 237.72 208.23 238.53 208.74C239.33 209.26 239.97 210.03 240.36 210.95C240.75 211.88 240.88 212.91 240.73 213.92C240.6 216.52 239.92 219.06 238.74 221.32C237.55 223.58 235.9 225.5 233.92 226.92C232.97 227.57 231.88 227.94 230.76 227.99ZM236.56 209.47C235.64 209.52 234.75 209.83 233.97 210.37C232.18 211.67 230.69 213.42 229.62 215.47C228.55 217.52 227.94 219.83 227.83 222.19C227.66 222.97 227.73 223.78 228.02 224.51C228.31 225.24 228.8 225.85 229.42 226.24C230.05 226.64 230.77 226.81 231.49 226.72C232.21 226.63 232.88 226.29 233.41 225.74C235.2 224.44 236.69 222.69 237.76 220.64C238.82 218.59 239.44 216.28 239.55 213.92C239.63 213.15 239.53 212.36 239.25 211.65C238.97 210.93 238.52 210.31 237.95 209.85C237.53 209.59 237.05 209.45 236.56 209.47Z" fill="#FAFAFA" fill-opacity="1.000000" fill-rule="nonzero"/>
	<path id="Vector" d="M216.54 287.27C216.45 287.25 216.37 287.2 216.3 287.15C216.23 287.1 216.16 287.05 216.11 286.98C216.06 286.91 216.02 286.84 215.99 286.75C215.97 286.67 215.96 286.58 215.97 286.49C215.98 286.4 216 286.31 216.04 286.24L239.86 234.65C240.22 233.87 240.74 233.19 241.37 232.67C242.01 232.16 242.75 231.81 243.54 231.66C244.32 231.52 245.12 231.58 245.88 231.84C246.63 232.1 247.33 232.55 247.9 233.16L271.44 258.16C271.5 258.22 271.55 258.29 271.58 258.38C271.61 258.46 271.62 258.54 271.62 258.63C271.62 258.72 271.61 258.81 271.58 258.89C271.55 258.97 271.5 259.04 271.44 259.11C271.39 259.17 271.32 259.22 271.24 259.26C271.17 259.29 271.09 259.31 271.01 259.31C270.93 259.31 270.85 259.29 270.77 259.26C270.7 259.22 270.63 259.17 270.57 259.11L247.02 234.17C246.59 233.72 246.07 233.38 245.49 233.18C244.92 232.99 244.32 232.94 243.72 233.05C243.13 233.16 242.57 233.42 242.09 233.81C241.61 234.2 241.21 234.71 240.94 235.3L217.12 286.9C217.07 287.01 216.98 287.11 216.88 287.18C216.78 287.24 216.66 287.27 216.54 287.27Z" fill="#FAFAFA" fill-opacity="1.000000" fill-rule="nonzero"/>
	<path id="Vector" d="M259.03 246.67C258.95 246.69 258.87 246.69 258.78 246.67C258.64 246.6 258.52 246.47 258.46 246.31C258.4 246.14 258.4 245.96 258.46 245.79L276.9 198.78C277.23 197.92 277.75 197.17 278.42 196.61C279.08 196.04 279.87 195.67 280.7 195.53C281.54 195.4 282.39 195.5 283.17 195.83C283.96 196.16 284.66 196.71 285.2 197.42L301.96 219.78C302.01 219.84 302.05 219.92 302.08 220.01C302.1 220.09 302.11 220.18 302.1 220.27C302.1 220.36 302.07 220.44 302.04 220.52C302 220.6 301.95 220.67 301.89 220.73C301.77 220.82 301.63 220.87 301.49 220.87C301.35 220.87 301.21 220.81 301.1 220.71L284.34 198.36C283.93 197.82 283.41 197.4 282.82 197.15C282.24 196.9 281.6 196.82 280.97 196.91C280.35 197.01 279.75 197.29 279.25 197.71C278.75 198.13 278.35 198.69 278.1 199.33L259.67 246.34C259.61 246.46 259.51 246.56 259.4 246.62C259.28 246.68 259.16 246.7 259.03 246.67Z" fill="#FAFAFA" fill-opacity="1.000000" fill-rule="nonzero"/>
	<path id="Vector" d="M319.36 126.62C315.56 126.62 313.02 124.11 313.02 120.38L313.35 96.87C313.35 90.46 313.35 80.73 319.84 76.54C321.18 75.6 322.73 75.07 324.32 75.02C325.9 74.97 327.47 75.39 328.87 76.23C330.26 77.08 331.41 78.33 332.22 79.84C333.02 81.35 333.44 83.07 333.43 84.82C333.43 86.71 333.37 89.01 333.28 91.68C333.27 91.95 333.21 92.21 333.11 92.46C333.01 92.7 332.87 92.92 332.69 93.1C332.51 93.29 332.3 93.43 332.07 93.52C331.84 93.61 331.6 93.65 331.36 93.63C331.12 93.62 330.88 93.56 330.66 93.44C330.44 93.33 330.24 93.17 330.08 92.97C329.92 92.77 329.79 92.54 329.71 92.29C329.63 92.04 329.59 91.77 329.6 91.51C329.69 88.94 329.75 86.62 329.75 84.82C329.76 83.78 329.51 82.76 329.03 81.87C328.54 80.97 327.85 80.24 327.02 79.75C326.19 79.26 325.25 79.03 324.31 79.09C323.37 79.14 322.46 79.48 321.69 80.06C317.4 82.77 317.04 89.55 317.04 96.85L316.71 120.38C316.71 122.15 318.15 122.53 319.36 122.53C321.37 122.47 323.28 121.56 324.68 119.99C326.09 118.41 326.89 116.29 326.91 114.08L326.77 104.79C326.77 104.25 326.97 103.74 327.31 103.35C327.66 102.97 328.13 102.76 328.62 102.76C329.11 102.76 329.57 102.97 329.92 103.35C330.27 103.74 330.46 104.25 330.46 104.79L330.6 114.09C330.61 117.4 329.43 120.57 327.32 122.92C325.22 125.26 322.36 126.6 319.36 126.62Z" fill="#BA68C8" fill-opacity="1.000000" fill-rule="nonzero"/>
	<path id="Vector" d="M347.04 271.12L218.82 352.79C218.16 353.27 217.61 353.9 217.21 354.65C216.82 355.41 216.59 356.25 216.54 357.12L216.54 358.11C216.59 358.98 216.82 359.82 217.21 360.58C217.61 361.33 218.16 361.97 218.82 362.44L325.8 430.59C326.51 430.98 327.28 431.19 328.07 431.19C328.86 431.19 329.64 430.98 330.34 430.59L458.56 348.91C459.22 348.44 459.77 347.8 460.17 347.05C460.56 346.3 460.79 345.46 460.84 344.59L460.84 343.59C460.79 342.72 460.56 341.88 460.17 341.12C459.77 340.37 459.22 339.73 458.56 339.26L351.58 271.12C350.87 270.73 350.1 270.52 349.31 270.52C348.52 270.52 347.74 270.73 347.04 271.12Z" fill="#455A64" fill-opacity="1.000000" fill-rule="nonzero"/>
	<path id="Vector" d="M216.54 357.12L216.54 358.11C216.59 358.98 216.82 359.82 217.21 360.57C217.61 361.33 218.16 361.97 218.82 362.44L325.8 430.59C326.5 430.99 327.28 431.2 328.06 431.18L328.06 418.49L221.85 350.87L218.82 352.8C218.16 353.28 217.61 353.91 217.21 354.66C216.82 355.41 216.59 356.25 216.54 357.12Z" fill="#263238" fill-opacity="1.000000" fill-rule="nonzero"/>
	<path id="Vector" d="M218.82 352.79L347.04 271.12C347.74 270.72 348.52 270.52 349.31 270.52C350.1 270.52 350.87 270.72 351.58 271.12L458.56 339.26C458.84 339.36 459.08 339.55 459.25 339.81C459.42 340.07 459.51 340.38 459.51 340.7C459.51 341.02 459.42 341.34 459.25 341.6C459.08 341.86 458.84 342.05 458.56 342.15L330.34 423.82C329.64 424.21 328.86 424.42 328.07 424.42C327.28 424.42 326.51 424.21 325.8 423.82L218.82 355.68C218.54 355.58 218.3 355.39 218.13 355.13C217.96 354.87 217.87 354.56 217.87 354.24C217.87 353.91 217.96 353.6 218.13 353.34C218.3 353.08 218.54 352.89 218.82 352.79Z" fill="#37474F" fill-opacity="1.000000" fill-rule="nonzero"/>
	<path id="Vector" d="M234.73 355.68L317.83 408.55C318.53 408.95 319.3 409.16 320.09 409.16C320.87 409.16 321.65 408.95 322.35 408.55L434.66 337.04C434.93 336.94 435.17 336.74 435.34 336.49C435.52 336.23 435.61 335.91 435.61 335.59C435.61 335.27 435.52 334.96 435.34 334.7C435.17 334.44 434.93 334.25 434.66 334.15L351.56 281.27C350.86 280.89 350.08 280.68 349.3 280.68C348.51 280.68 347.73 280.89 347.03 281.27L234.73 352.79C234.46 352.89 234.22 353.08 234.04 353.34C233.87 353.6 233.78 353.91 233.78 354.24C233.78 354.56 233.87 354.87 234.04 355.13C234.22 355.39 234.46 355.58 234.73 355.68Z" fill="#FFFFFF" fill-opacity="1.000000" fill-rule="nonzero"/>
	<path id="Vector" d="M260.36 344.49C266.22 340.77 275.73 340.77 281.6 344.49C287.46 348.22 287.47 354.28 281.6 358.05C275.72 361.82 266.22 361.78 260.36 358.05C254.5 354.32 254.5 348.24 260.36 344.49Z" fill="#02897A" fill-opacity="1.000000" fill-rule="nonzero"/>
	<path id="Vector" d="M434.67 334.19L410.38 318.72L336.64 311.14C335.75 311.05 334.84 311.21 334.02 311.62C333.2 312.02 332.48 312.65 331.94 313.45C331.4 314.24 331.06 315.18 330.94 316.16C330.82 317.15 330.94 318.15 331.27 319.07L344 354.23L303.45 351.68C302.66 351.63 301.86 351.77 301.13 352.11C300.4 352.44 299.75 352.95 299.22 353.6C298.69 354.26 298.3 355.03 298.09 355.87C297.87 356.71 297.83 357.6 297.97 358.46L304.21 399.93L317.88 408.64C318.57 409.04 319.35 409.24 320.14 409.24C320.92 409.24 321.7 409.04 322.4 408.64L434.71 337.12C435 337.03 435.25 336.83 435.43 336.56C435.61 336.3 435.7 335.97 435.7 335.64C435.7 335.31 435.59 334.98 435.41 334.72C435.22 334.46 434.96 334.27 434.67 334.19Z" fill="#02897A" fill-opacity="1.000000" fill-rule="nonzero"/>
	<path id="Vector" d="M434.28 235.86L434.28 181.73L498 141.16L498 195.26L434.28 235.86Z" fill="#EBEBEB" fill-opacity="1.000000" fill-rule="nonzero"/>
	<path id="Vector" d="M434.28 181.73L354.61 131L354.61 185.12L434.28 235.86L434.28 181.73Z" fill="#E6E6E6" fill-opacity="1.000000" fill-rule="nonzero"/>
	<path id="Vector" d="M434.28 181.73L499.89 139.93L418.34 87.98L352.73 129.79L434.28 181.73Z" fill="#F0F0F0" fill-opacity="1.000000" fill-rule="nonzero"/>
	<path id="Vector" d="M434.28 181.73L434.28 195.26L499.89 153.48L499.89 139.93L434.28 181.73Z" fill="#EBEBEB" fill-opacity="1.000000" fill-rule="nonzero"/>
	<path id="Vector" d="M434.28 195.26L498 154.69L498 157.65L434.28 198.25L434.28 195.26Z" fill="#E6E6E6" fill-opacity="1.000000" fill-rule="nonzero"/>
	<path id="Vector" d="M352.73 129.79L434.28 181.73L434.28 195.26L352.73 143.32L352.73 129.79Z" fill="#EBEBEB" fill-opacity="1.000000" fill-rule="nonzero"/>
	<g opacity="0.500000" style="mix-blend-mode:multiply">
		<path id="Vector" d="M434.28 195.26L354.61 144.53L354.61 147.51L434.28 198.25L434.28 195.26Z" fill="#E0E0E0" fill-opacity="1.000000" fill-rule="nonzero"/>
	</g>
	<path id="Vector" d="M455.26 189.96L477.02 176.09C477.96 175.5 478.72 175.98 478.72 177.18L478.72 191.37C478.69 192.02 478.52 192.66 478.22 193.22C477.93 193.79 477.52 194.27 477.02 194.63L455.26 208.51C454.31 209.11 453.56 208.63 453.56 207.44L453.56 193.2C453.59 192.55 453.75 191.92 454.05 191.35C454.34 190.79 454.76 190.31 455.26 189.96Z" fill="#E0E0E0" fill-opacity="1.000000" fill-rule="nonzero"/>
	<path id="Vector" d="M456.64 191.58L475.62 179.48C476.25 179.09 476.76 179.42 476.76 180.2L476.76 190.88C476.75 191.32 476.63 191.75 476.43 192.12C476.23 192.5 475.96 192.82 475.62 193.05L456.64 205.15C456.02 205.54 455.51 205.15 455.51 204.42L455.51 193.73C455.53 193.3 455.64 192.88 455.84 192.5C456.04 192.13 456.31 191.81 456.64 191.58Z" fill="#FFFFFF" fill-opacity="1.000000" fill-rule="nonzero"/>
	<path id="Vector" d="M434.28 174.94L434.28 120.82L498 80.23L498 134.35L434.28 174.94Z" fill="#EBEBEB" fill-opacity="1.000000" fill-rule="nonzero"/>
	<path id="Vector" d="M434.28 120.82L354.61 70.08L354.61 124.21L434.28 174.94L434.28 120.82Z" fill="#E6E6E6" fill-opacity="1.000000" fill-rule="nonzero"/>
	<path id="Vector" d="M434.28 120.82L499.89 79.01L418.34 27.07L352.73 68.86L434.28 120.82Z" fill="#F5F5F5" fill-opacity="1.000000" fill-rule="nonzero"/>
	<path id="Vector" d="M434.28 120.82L434.28 134.35L499.89 92.56L499.89 79.01L434.28 120.82Z" fill="#EBEBEB" fill-opacity="1.000000" fill-rule="nonzero"/>
	<path id="Vector" d="M434.28 134.35L498 93.76L498 96.74L434.28 137.32L434.28 134.35Z" fill="#E6E6E6" fill-opacity="1.000000" fill-rule="nonzero"/>
	<path id="Vector" d="M352.73 68.86L434.28 120.82L434.28 134.35L352.73 82.41L352.73 68.86Z" fill="#EBEBEB" fill-opacity="1.000000" fill-rule="nonzero"/>
	<g opacity="0.500000" style="mix-blend-mode:multiply">
		<path id="Vector" d="M434.28 134.35L354.61 83.61L354.61 86.58L434.28 137.32L434.28 134.35Z" fill="#E0E0E0" fill-opacity="1.000000" fill-rule="nonzero"/>
	</g>
	<path id="Vector" d="M455.26 129.05L477.02 115.18C477.96 114.58 478.72 115.07 478.72 116.26L478.72 130.46C478.68 131.11 478.51 131.74 478.22 132.31C477.92 132.87 477.51 133.35 477.02 133.71L455.26 147.57C454.31 148.16 453.56 147.68 453.56 146.48L453.56 132.29C453.59 131.64 453.75 131 454.05 130.44C454.34 129.88 454.76 129.4 455.26 129.05Z" fill="#E0E0E0" fill-opacity="1.000000" fill-rule="nonzero"/>
	<path id="Vector" d="M456.64 130.65L475.62 118.57C476.25 118.17 476.76 118.49 476.76 119.29L476.76 129.87C476.74 130.31 476.62 130.73 476.42 131.11C476.23 131.49 475.95 131.81 475.62 132.04L456.64 144.12C456.02 144.53 455.51 144.21 455.51 143.41L455.51 132.76C455.54 132.34 455.65 131.92 455.85 131.56C456.05 131.19 456.32 130.88 456.64 130.65Z" fill="#FFFFFF" fill-opacity="1.000000" fill-rule="nonzero"/>
	<path id="Vector" d="M494.56 136.53L434.28 174.94L358.05 126.36L356.18 127.58L434.28 177.15L496.44 137.72L494.56 136.53Z" fill="#E0E0E0" fill-opacity="1.000000" fill-rule="nonzero"/>
</svg>
