<svg width="158.491211" height="50.033569" viewBox="0 0 158.491 50.0336" fill="none" xmlns="http://www.w3.org/2000/svg" xmlns:xlink="http://www.w3.org/1999/xlink">
	<desc>
			Created with Pixso.
	</desc>
	<defs/>
	<path id="Vector" d="M45.61 35.47C45.36 34.86 45.12 34.22 44.87 33.67L43.72 31.06L43.67 31.01C40.25 23.51 36.58 15.89 32.7 8.39L32.54 8.08C32.15 7.34 31.76 6.53 31.36 5.78C30.86 4.89 30.38 3.93 29.58 3.03C28.81 2.08 27.83 1.32 26.73 0.79C25.62 0.27 24.41 0 23.19 0C21.97 0 20.76 0.27 19.66 0.79C18.55 1.32 17.58 2.08 16.8 3.03C16.07 3.93 15.52 4.89 15.02 5.78C14.63 6.59 14.24 7.39 13.84 8.12L13.68 8.43C9.86 15.93 6.14 23.56 2.71 31.06L2.62 31.15C2.27 31.97 1.87 32.81 1.48 33.72C1.23 34.26 0.98 34.86 0.73 35.51C0.06 37.23 -0.16 39.1 0.11 40.92C0.37 42.75 1.1 44.48 2.24 45.93C3.37 47.39 4.86 48.52 6.57 49.22C8.27 49.93 10.13 50.17 11.95 49.93C13.7 49.7 15.39 49.12 16.91 48.22C18.94 47.08 20.88 45.42 23.07 43.03C25.25 45.42 27.24 47.08 29.22 48.23C31.13 49.35 33.28 49.97 35.49 50.03C38.05 50.04 40.52 49.12 42.45 47.45C44.39 45.77 45.65 43.45 46.01 40.92C46.43 39.1 46.29 37.19 45.61 35.45L45.61 35.47ZM23.22 38.06C20.54 34.62 18.8 31.47 18.2 28.76C17.96 27.76 17.91 26.72 18.05 25.7C18.16 24.9 18.45 24.2 18.86 23.61C19.79 22.25 21.43 21.4 23.22 21.4C24.07 21.38 24.92 21.56 25.68 21.95C26.44 22.33 27.1 22.89 27.59 23.59C27.99 24.22 28.29 24.9 28.38 25.7C28.54 26.61 28.48 27.65 28.23 28.76C27.63 31.42 25.89 34.61 23.22 38.06ZM43.08 40.37C42.91 41.66 42.39 42.88 41.6 43.91C40.81 44.93 39.76 45.74 38.56 46.23C37.38 46.73 36.07 46.87 34.79 46.73C33.54 46.58 32.29 46.17 31.02 45.42C28.89 44.1 26.99 42.47 25.36 40.58C28.63 36.51 30.61 32.81 31.36 29.51C31.72 27.95 31.76 26.54 31.61 25.25C31.41 24.02 30.96 22.85 30.27 21.81C29.48 20.69 28.43 19.77 27.21 19.15C25.99 18.53 24.64 18.22 23.27 18.25C20.39 18.25 17.81 19.59 16.25 21.79C15.55 22.83 15.1 24.01 14.93 25.25C14.73 26.56 14.77 28.01 15.18 29.51C15.93 32.81 17.95 36.56 21.18 40.61C19.58 42.54 17.67 44.19 15.52 45.48C14.23 46.23 13 46.62 11.75 46.78C9.81 47.03 7.85 46.5 6.3 45.31C4.75 44.12 3.72 42.36 3.46 40.42C3.3 39.17 3.41 37.92 3.91 36.51C4.06 36.01 4.3 35.51 4.55 34.92C4.89 34.11 5.3 33.26 5.69 32.42L5.75 32.31C9.12 24.86 12.79 17.25 16.61 9.79L16.77 9.48C17.16 8.73 17.55 7.93 17.95 7.18C18.36 6.39 18.8 5.62 19.36 5C19.84 4.42 20.45 3.95 21.13 3.63C21.82 3.31 22.57 3.14 23.32 3.14C24.08 3.14 24.83 3.31 25.51 3.63C26.2 3.95 26.81 4.42 27.29 5C27.84 5.62 28.29 6.39 28.69 7.18C29.08 7.93 29.47 8.75 29.88 9.48L30.04 9.79C33.84 17.25 37.52 24.86 40.95 32.31L40.99 32.36C41.4 33.17 41.74 34.08 42.13 34.86C42.38 35.47 42.63 35.95 42.79 36.47C43.08 37.87 43.24 39.12 43.08 40.37ZM64.78 37.72C63.61 37.73 62.44 37.49 61.38 36.99C60.31 36.5 59.37 35.77 58.62 34.86C56.95 32.92 56.06 30.42 56.13 27.86C56.1 25.24 57.02 22.7 58.72 20.7C59.5 19.78 60.48 19.04 61.58 18.54C62.67 18.04 63.87 17.78 65.08 17.79C66.21 17.76 67.34 18.02 68.35 18.55C69.36 19.07 70.22 19.84 70.84 20.79L71 18.34L75.55 18.34L75.55 37.22L70.99 37.22L70.83 34.47C70.18 35.48 69.29 36.31 68.23 36.88C67.17 37.45 65.98 37.74 64.78 37.72ZM65.97 33.22C66.87 33.22 67.66 32.97 68.41 32.51C69.1 32.01 69.66 31.36 70.1 30.56C70.49 29.76 70.69 28.81 70.69 27.75C70.75 26.82 70.57 25.9 70.17 25.07C69.77 24.24 69.16 23.52 68.4 23C67.67 22.54 66.83 22.3 65.97 22.3C65.11 22.3 64.26 22.54 63.53 23C62.85 23.5 62.29 24.15 61.85 24.95C61.44 25.83 61.24 26.79 61.26 27.76C61.2 28.69 61.38 29.61 61.78 30.44C62.18 31.27 62.79 31.99 63.55 32.51C64.28 32.97 65.08 33.22 65.97 33.22ZM83.35 13.25C83.35 13.79 83.25 14.29 83 14.7C82.75 15.09 82.41 15.45 81.96 15.7C81.51 15.95 81.02 16.04 80.53 16.04C80.03 16.04 79.53 15.95 79.08 15.7C78.65 15.46 78.29 15.12 78.03 14.7C77.79 14.26 77.67 13.75 77.69 13.25C77.69 12.68 77.8 12.18 78.03 11.79C78.28 11.33 78.64 11.04 79.08 10.79C79.53 10.54 80.01 10.43 80.53 10.43C81.02 10.42 81.51 10.54 81.95 10.78C82.39 11.01 82.75 11.36 83.02 11.78C83.25 12.23 83.36 12.74 83.35 13.25ZM78.05 37.15L78.05 18.31L83 18.31L83 37.18L78.03 37.18L78.05 37.15ZM96.25 23.25L96.25 23.31C96.02 23.2 95.71 23.15 95.47 23.11C95.16 23.04 94.91 23.04 94.62 23.04C93.23 23.04 92.18 23.45 91.5 24.29C90.75 25.15 90.41 26.36 90.41 27.9L90.41 37.17L85.44 37.17L85.44 18.29L90 18.29L90.16 21.15C90.66 20.15 91.25 19.4 92.09 18.84C92.93 18.29 93.91 18.02 94.91 18.06C95.27 18.06 95.61 18.09 95.91 18.15C96.07 18.2 96.16 18.2 96.25 18.25L96.25 23.25ZM98.25 37.15L98.25 10.56L103.21 10.56L103.21 20.72C103.91 19.81 104.7 19.11 105.7 18.56C107.28 17.78 109.07 17.56 110.79 17.93C112.51 18.31 114.06 19.25 115.18 20.61C116.86 22.55 117.75 25.05 117.67 27.62C117.7 30.24 116.78 32.78 115.08 34.78C114.3 35.7 113.33 36.44 112.23 36.94C111.13 37.44 109.93 37.7 108.72 37.68C107.59 37.72 106.46 37.46 105.45 36.93C104.44 36.41 103.59 35.63 102.96 34.68L102.8 37.14L98.25 37.18L98.25 37.15ZM107.84 33.22C108.72 33.22 109.52 32.97 110.27 32.51C110.95 32.01 111.52 31.36 111.95 30.56C112.36 29.76 112.54 28.81 112.54 27.75C112.54 26.7 112.36 25.75 111.95 24.95C111.54 24.18 110.97 23.51 110.27 23C109.54 22.54 108.7 22.3 107.84 22.3C106.98 22.3 106.13 22.54 105.4 23C104.7 23.5 104.16 24.15 103.71 24.95C103.29 25.83 103.09 26.79 103.11 27.76C103.05 28.69 103.23 29.61 103.63 30.44C104.03 31.27 104.64 31.99 105.4 32.51C106.14 32.97 106.93 33.22 107.84 33.22ZM119.54 37.17L119.54 18.29L124.11 18.29L124.27 20.75C124.84 19.81 125.65 19.04 126.62 18.52C127.59 18 128.68 17.75 129.78 17.79C131.04 17.77 132.28 18.12 133.34 18.8C134.39 19.48 135.23 20.45 135.74 21.61C136.28 22.79 136.58 24.26 136.58 25.9L136.58 37.22L131.61 37.22L131.61 26.56C131.61 25.25 131.31 24.22 130.72 23.45C130.13 22.7 129.32 22.29 128.29 22.29C127.54 22.29 126.89 22.45 126.31 22.79C125.76 23.15 125.31 23.61 124.97 24.25C124.62 24.89 124.45 25.62 124.47 26.36L124.47 37.17L119.54 37.17ZM139.06 37.17L139.06 10.54L144.03 10.54L144.03 20.7C144.71 19.79 145.58 19.05 146.59 18.54C147.6 18.02 148.72 17.75 149.85 17.75C151.02 17.73 152.18 17.98 153.25 18.47C154.32 18.97 155.26 19.7 156 20.61C157.67 22.55 158.56 25.05 158.48 27.61C158.51 30.23 157.59 32.77 155.89 34.76C155.11 35.68 154.14 36.42 153.04 36.92C151.94 37.43 150.74 37.68 149.53 37.67C148.4 37.7 147.27 37.44 146.26 36.92C145.25 36.39 144.39 35.62 143.77 34.67L143.63 37.12L139.06 37.17ZM148.69 33.22C149.6 33.22 150.39 32.97 151.12 32.51C151.83 32.01 152.37 31.36 152.82 30.56C153.21 29.76 153.42 28.81 153.42 27.75C153.48 26.82 153.3 25.9 152.89 25.07C152.49 24.24 151.88 23.52 151.12 23C150.39 22.54 149.55 22.3 148.69 22.3C147.83 22.3 146.99 22.54 146.26 23C145.58 23.5 145.01 24.15 144.58 24.95C144.14 25.82 143.94 26.79 143.98 27.76C143.92 28.69 144.1 29.61 144.5 30.44C144.91 31.27 145.52 31.99 146.28 32.51C147.01 32.97 147.76 33.22 148.69 33.22Z" fill="#FF385C" fill-opacity="1.000000" fill-rule="nonzero"/>
</svg>
