<svg width="106.400024" height="18.348633" viewBox="0 0 106.4 18.3486" fill="none" xmlns="http://www.w3.org/2000/svg" xmlns:xlink="http://www.w3.org/1999/xlink">
	<desc>
			Created with Pixso.
	</desc>
	<defs/>
	<path id="Vector" d="M18.29 6.58C18.23 6.41 18.13 6.26 17.99 6.15C17.84 6.04 17.67 5.98 17.49 5.96L12.27 5.55L10 0.54C9.93 0.38 9.81 0.24 9.67 0.14C9.52 0.05 9.34 0 9.17 0C8.99 0 8.82 0.05 8.67 0.14C8.52 0.24 8.4 0.37 8.33 0.54L6.07 5.55L0.84 5.96C0.66 5.98 0.5 6.04 0.36 6.15C0.22 6.25 0.11 6.4 0.05 6.56C-0.01 6.73 -0.02 6.91 0.02 7.08C0.06 7.25 0.15 7.41 0.27 7.53L4.14 11.3L2.77 17.22C2.73 17.4 2.74 17.58 2.81 17.76C2.87 17.93 2.99 18.08 3.14 18.18C3.29 18.28 3.47 18.34 3.66 18.34C3.84 18.34 4.02 18.29 4.17 18.19L9.17 14.86L14.16 18.19C14.32 18.29 14.5 18.34 14.69 18.34C14.88 18.34 15.06 18.27 15.21 18.16C15.36 18.05 15.48 17.9 15.54 17.72C15.6 17.55 15.6 17.35 15.55 17.17L13.88 11.3L18.04 7.56C18.31 7.31 18.41 6.93 18.29 6.58Z" fill="#F3CD03" fill-opacity="1.000000" fill-rule="nonzero"/>
	<path id="Vector" d="M40.31 6.58C40.25 6.41 40.14 6.26 40 6.15C39.86 6.04 39.69 5.98 39.51 5.96L34.28 5.55L32.02 0.54C31.95 0.38 31.83 0.24 31.68 0.14C31.53 0.05 31.36 0 31.18 0C31.01 0 30.83 0.05 30.68 0.14C30.54 0.24 30.42 0.37 30.35 0.54L28.08 5.55L22.85 5.96C22.68 5.98 22.51 6.04 22.37 6.15C22.23 6.25 22.12 6.4 22.06 6.56C22 6.73 21.99 6.91 22.03 7.08C22.07 7.25 22.16 7.41 22.29 7.53L26.15 11.3L24.78 17.22C24.74 17.4 24.76 17.58 24.82 17.76C24.89 17.93 25 18.08 25.16 18.18C25.31 18.28 25.49 18.34 25.67 18.34C25.85 18.34 26.03 18.29 26.19 18.19L31.18 14.86L36.18 18.19C36.33 18.29 36.52 18.34 36.7 18.34C36.89 18.34 37.07 18.27 37.22 18.16C37.38 18.05 37.49 17.9 37.55 17.72C37.61 17.55 37.62 17.35 37.57 17.17L35.89 11.3L40.05 7.56C40.32 7.31 40.42 6.93 40.31 6.58Z" fill="#F3CD03" fill-opacity="1.000000" fill-rule="nonzero"/>
	<path id="Vector" d="M62.32 6.58C62.26 6.41 62.15 6.26 62.01 6.15C61.87 6.04 61.7 5.98 61.52 5.96L56.29 5.55L54.03 0.54C53.96 0.38 53.84 0.24 53.69 0.14C53.54 0.05 53.37 0 53.19 0C53.02 0 52.84 0.05 52.69 0.14C52.55 0.24 52.43 0.37 52.36 0.54L50.09 5.55L44.86 5.96C44.69 5.98 44.52 6.04 44.38 6.15C44.24 6.25 44.13 6.4 44.07 6.56C44.01 6.73 44 6.91 44.04 7.08C44.08 7.25 44.17 7.41 44.3 7.53L48.16 11.3L46.79 17.22C46.75 17.4 46.77 17.58 46.83 17.76C46.9 17.93 47.02 18.08 47.17 18.18C47.32 18.28 47.5 18.34 47.68 18.34C47.87 18.34 48.05 18.29 48.2 18.19L53.19 14.86L58.19 18.19C58.34 18.29 58.53 18.34 58.71 18.34C58.9 18.34 59.08 18.27 59.24 18.16C59.39 18.05 59.5 17.9 59.56 17.72C59.62 17.55 59.63 17.35 59.58 17.17L57.9 11.3L62.06 7.56C62.33 7.31 62.43 6.93 62.32 6.58Z" fill="#F3CD03" fill-opacity="1.000000" fill-rule="nonzero"/>
	<path id="Vector" d="M84.33 6.58C84.27 6.41 84.17 6.26 84.03 6.15C83.89 6.04 83.71 5.98 83.54 5.96L78.31 5.55L76.04 0.54C75.97 0.38 75.85 0.24 75.71 0.14C75.56 0.05 75.39 0 75.21 0C75.03 0 74.86 0.05 74.71 0.14C74.56 0.24 74.45 0.37 74.37 0.54L72.11 5.55L66.88 5.96C66.71 5.98 66.54 6.04 66.4 6.15C66.26 6.25 66.15 6.4 66.09 6.56C66.03 6.73 66.02 6.91 66.06 7.08C66.1 7.25 66.19 7.41 66.31 7.53L70.18 11.3L68.81 17.22C68.77 17.4 68.78 17.58 68.85 17.76C68.92 17.93 69.03 18.08 69.18 18.18C69.33 18.28 69.51 18.34 69.7 18.34C69.88 18.34 70.06 18.29 70.21 18.19L75.21 14.86L80.2 18.19C80.36 18.29 80.54 18.34 80.73 18.34C80.92 18.34 81.1 18.27 81.25 18.16C81.4 18.05 81.52 17.9 81.58 17.72C81.64 17.55 81.65 17.35 81.59 17.17L79.92 11.3L84.08 7.56C84.35 7.31 84.45 6.93 84.33 6.58Z" fill="#F3CD03" fill-opacity="1.000000" fill-rule="nonzero"/>
	<path id="Vector" d="M92.19 11.3L90.83 17.22C90.78 17.4 90.8 17.58 90.86 17.76C90.93 17.93 91.04 18.08 91.2 18.18C91.35 18.29 91.53 18.34 91.71 18.34C91.9 18.34 92.08 18.29 92.23 18.19L97.22 14.86L102.22 18.19C102.37 18.29 102.56 18.34 102.75 18.34C102.93 18.34 103.11 18.27 103.27 18.16C103.42 18.05 103.53 17.9 103.59 17.72C103.65 17.55 103.66 17.35 103.61 17.17L101.93 11.3L106.09 7.56C106.23 7.44 106.32 7.28 106.37 7.11C106.41 6.93 106.4 6.75 106.35 6.58C106.29 6.41 106.18 6.26 106.04 6.15C105.9 6.04 105.73 5.98 105.55 5.96L100.32 5.55L98.06 0.54C97.99 0.38 97.87 0.24 97.72 0.14C97.57 0.05 97.4 0 97.22 0C97.05 0 96.87 0.05 96.72 0.14C96.58 0.24 96.46 0.38 96.39 0.54L94.12 5.55L88.9 5.96C88.72 5.98 88.55 6.04 88.41 6.15C88.27 6.25 88.16 6.4 88.11 6.56C88.05 6.73 88.03 6.91 88.07 7.08C88.11 7.25 88.2 7.41 88.33 7.53L92.19 11.3ZM94.81 7.33C94.97 7.32 95.13 7.26 95.26 7.17C95.4 7.07 95.51 6.94 95.57 6.79L97.22 3.14L98.87 6.79C98.94 6.94 99.05 7.07 99.18 7.17C99.32 7.26 99.47 7.32 99.64 7.33L103.28 7.62L100.28 10.32C100.02 10.56 99.91 10.92 100.01 11.25L101.16 15.28L97.73 12.99C97.58 12.89 97.41 12.84 97.22 12.84C97.04 12.84 96.87 12.89 96.72 12.99L93.13 15.38L94.1 11.21C94.13 11.06 94.13 10.9 94.08 10.75C94.04 10.59 93.96 10.46 93.84 10.35L91.06 7.63L94.81 7.33Z" fill="#F3CD03" fill-opacity="1.000000" fill-rule="nonzero"/>
</svg>
