<svg width="50.000000" height="50.000000" viewBox="0 0 50 50" fill="none" xmlns="http://www.w3.org/2000/svg" xmlns:xlink="http://www.w3.org/1999/xlink">
	<desc>
			Created with Pixso.
	</desc>
	<defs>
		<clipPath id="clip34_104">
			<rect id="Feature Icons / 04" width="24.000000" height="24.000000" transform="translate(13.000000 13.000000)" fill="white" fill-opacity="0"/>
		</clipPath>
	</defs>
	<rect id="Feature Icon with circle" rx="25.000000" width="50.000000" height="50.000000" fill="#F4F5F7" fill-opacity="1.000000"/>
	<rect id="Feature Icons / 04" width="24.000000" height="24.000000" transform="translate(13.000000 13.000000)" fill="#FFFFFF" fill-opacity="0"/>
	<g clip-path="url(#clip34_104)">
		<path id="Vector" d="M34 37L25 37C24.73 37 24.48 36.89 24.29 36.7C24.1 36.51 24 36.26 24 36L24 34C24 33.73 24.1 33.48 24.29 33.29C24.48 33.1 24.73 33 25 33L34 33C34.26 33 34.51 33.1 34.7 33.29C34.89 33.48 35 33.73 35 34L35 36C35 36.26 34.89 36.51 34.7 36.7C34.51 36.89 34.26 37 34 37Z" fill="#D6B1FF" fill-opacity="1.000000" fill-rule="nonzero"/>
		<path id="Vector" d="M34 13L16 13C15.73 13 15.48 13.1 15.29 13.29C15.1 13.48 15 13.73 15 14L15 16C15 16.26 15.1 16.51 15.29 16.7C15.48 16.89 15.73 17 16 17L34 17C34.26 17 34.51 16.89 34.7 16.7C34.89 16.51 35 16.26 35 16L35 14C35 13.73 34.89 13.48 34.7 13.29C34.51 13.1 34.26 13 34 13Z" fill="#11B5E4" fill-opacity="1.000000" fill-rule="nonzero"/>
		<path id="Vector" d="M34 19L16 19C15.73 19 15.48 19.1 15.29 19.29C15.1 19.48 15 19.73 15 20L15 30C15 30.26 15.1 30.51 15.29 30.7C15.48 30.89 15.73 31 16 31L34 31C34.26 31 34.51 30.89 34.7 30.7C34.89 30.51 35 30.26 35 30L35 20C35 19.73 34.89 19.48 34.7 19.29C34.51 19.1 34.26 19 34 19Z" fill="#11B5E4" fill-opacity="1.000000" fill-rule="nonzero"/>
	</g>
</svg>
