<svg width="50.000000" height="50.000000" viewBox="0 0 50 50" fill="none" xmlns="http://www.w3.org/2000/svg" xmlns:xlink="http://www.w3.org/1999/xlink">
	<desc>
			Created with Pixso.
	</desc>
	<defs>
		<clipPath id="clip34_124">
			<rect id="Feature Icons / 01" width="24.000000" height="24.000000" transform="translate(13.000000 13.000000)" fill="white" fill-opacity="0"/>
		</clipPath>
	</defs>
	<rect id="Feature Icon with circle" rx="25.000000" width="50.000000" height="50.000000" fill="#F4F5F7" fill-opacity="1.000000"/>
	<g clip-path="url(#clip34_124)">
		<path id="Vector" d="M31 23L37 23L34 19L31 23ZM31 27L37 27L34 31L31 27Z" fill="#D6B1FF" fill-opacity="1.000000" fill-rule="nonzero"/>
		<path id="Vector" d="M14 13L20 13L20 37L14 37C13.73 37 13.48 36.89 13.29 36.7C13.1 36.51 13 36.26 13 36L13 14C13 13.73 13.1 13.48 13.29 13.29C13.48 13.1 13.73 13 14 13Z" fill="#02897A" fill-opacity="1.000000" fill-rule="nonzero"/>
		<path id="Vector" d="M22 13L28 13C28.26 13 28.51 13.1 28.7 13.29C28.89 13.48 29 13.73 29 14L29 36C29 36.26 28.89 36.51 28.7 36.7C28.51 36.89 28.26 37 28 37L22 37L22 13Z" fill="#02897A" fill-opacity="1.000000" fill-rule="nonzero"/>
	</g>
</svg>
