<svg width="50.000000" height="50.000000" viewBox="0 0 50 50" fill="none" xmlns="http://www.w3.org/2000/svg" xmlns:xlink="http://www.w3.org/1999/xlink">
	<desc>
			Created with Pixso.
	</desc>
	<defs>
		<clipPath id="clip34_114">
			<rect id="Feature Icons / 05" width="24.000000" height="24.000000" transform="translate(13.000000 13.000000)" fill="white" fill-opacity="0"/>
		</clipPath>
	</defs>
	<rect id="Feature Icon with circle" rx="25.000000" width="50.000000" height="50.000000" fill="#F4F5F7" fill-opacity="1.000000"/>
	<rect id="Feature Icons / 05" width="24.000000" height="24.000000" transform="translate(13.000000 13.000000)" fill="#FFFFFF" fill-opacity="0"/>
	<g clip-path="url(#clip34_114)">
		<path id="Vector" d="M18 14L15 14C14.73 14 14.48 14.1 14.29 14.29C14.1 14.48 14 14.73 14 15L14 35C14 35.26 14.1 35.51 14.29 35.7C14.48 35.89 14.73 36 15 36L18 36L18 14Z" fill="#D6B1FF" fill-opacity="1.000000" fill-rule="nonzero"/>
		<path id="Vector" d="M20 36L30 36L30 14L20 14L20 36ZM25 32C24.73 32 24.48 31.89 24.29 31.7C24.1 31.51 24 31.26 24 31C24 30.73 24.1 30.48 24.29 30.29C24.48 30.1 24.73 30 25 30C25.26 30 25.51 30.1 25.7 30.29C25.89 30.48 26 30.73 26 31C26 31.26 25.89 31.51 25.7 31.7C25.51 31.89 25.26 32 25 32ZM25 18C25.26 18 25.51 18.1 25.7 18.29C25.89 18.48 26 18.73 26 19C26 19.26 25.89 19.51 25.7 19.7C25.51 19.89 25.26 20 25 20C24.73 20 24.48 19.89 24.29 19.7C24.1 19.51 24 19.26 24 19C24 18.73 24.1 18.48 24.29 18.29C24.48 18.1 24.73 18 25 18ZM25 24C25.26 24 25.51 24.1 25.7 24.29C25.89 24.48 26 24.73 26 25C26 25.26 25.89 25.51 25.7 25.7C25.51 25.89 25.26 26 25 26C24.73 26 24.48 25.89 24.29 25.7C24.1 25.51 24 25.26 24 25C24 24.73 24.1 24.48 24.29 24.29C24.48 24.1 24.73 24 25 24Z" fill="#F03E3D" fill-opacity="1.000000" fill-rule="nonzero"/>
		<path id="Vector" d="M35 14L32 14L32 36L35 36C35.26 36 35.51 35.89 35.7 35.7C35.89 35.51 36 35.26 36 35L36 15C36 14.73 35.89 14.48 35.7 14.29C35.51 14.1 35.26 14 35 14Z" fill="#F03E3D" fill-opacity="1.000000" fill-rule="nonzero"/>
	</g>
</svg>
