<svg width="40.000000" height="40.000000" viewBox="0 0 40 40" fill="none" xmlns="http://www.w3.org/2000/svg" xmlns:xlink="http://www.w3.org/1999/xlink">
	<desc>
			Created with Pixso.
	</desc>
	<defs>
		<clipPath id="clip34_1218">
			<rect id="facebook" width="24.000000" height="24.000000" transform="translate(8.000000 8.000000)" fill="white" fill-opacity="0"/>
		</clipPath>
	</defs>
	<circle id="Ellipse 5" cx="20.000000" cy="20.000000" r="20.000000" fill="#EDFFFC" fill-opacity="1.000000"/>
	<g clip-path="url(#clip34_1218)">
		<path id="Vector" d="M23 10C21.67 10 20.4 10.52 19.46 11.46C18.52 12.4 18 13.67 18 15L18 18L15 18L15 22L18 22L18 30L22 30L22 22L25 22L26 18L22 18L22 15C22 14.73 22.1 14.48 22.29 14.29C22.48 14.1 22.73 14 23 14L26 14L26 10L23 10Z" stroke="#02897A" stroke-opacity="1.000000" stroke-width="2.000000" stroke-linejoin="round"/>
	</g>
</svg>
