<svg width="32.000000" height="32.000000" viewBox="0 0 32 32" fill="none" xmlns="http://www.w3.org/2000/svg" xmlns:xlink="http://www.w3.org/1999/xlink">
	<desc>
			Created with Pixso.
	</desc>
	<defs>
		<clipPath id="clip22_23">
			<rect id="Frame" width="24.000000" height="24.000000" transform="translate(4.000000 4.000000)" fill="white" fill-opacity="0"/>
		</clipPath>
		<clipPath id="clip8_2">
			<rect id="Frame 49" rx="16.000000" width="32.000000" height="32.000000" fill="white" fill-opacity="0"/>
		</clipPath>
	</defs>
	<rect id="Frame 49" rx="16.000000" width="32.000000" height="32.000000" fill="#F3F3F3" fill-opacity="1.000000"/>
	<g clip-path="url(#clip8_2)">
		<rect id="Frame" width="24.000000" height="24.000000" transform="translate(4.000000 4.000000)" fill="#FFFFFF" fill-opacity="0"/>
		<g clip-path="url(#clip22_23)">
			<path id="Vector" d="M16 26C21.51 26 26 21.51 26 16C26 10.48 21.51 6 16 6C10.48 6 6 10.48 6 16C6 21.51 10.48 26 16 26ZM16 8C20.41 8 24 11.58 24 16C24 20.41 20.41 24 16 24C11.58 24 8 20.41 8 16C8 11.58 11.58 8 16 8Z" fill="#02897A" fill-opacity="1.000000" fill-rule="nonzero"/>
			<path id="Vector" d="M23 16C23 12.13 19.86 9 16 9L16 23C19.86 23 23 19.86 23 16Z" fill="#02897A" fill-opacity="1.000000" fill-rule="nonzero"/>
		</g>
	</g>
</svg>
