<svg width="150.000000" height="150.000000" viewBox="0 0 150 150" fill="none" xmlns="http://www.w3.org/2000/svg" xmlns:xlink="http://www.w3.org/1999/xlink">
	<desc>
			Created with Pixso.
	</desc>
	<defs>
		<filter id="filter_42_36_dd" x="46.542969" y="46.708252" width="50.455078" height="53.831543" filterUnits="userSpaceOnUse" color-interpolation-filters="sRGB">
			<feFlood flood-opacity="0" result="BackgroundImageFix"/>
			<feGaussianBlur in="BackgroundImage" stdDeviation="4.33333"/>
			<feComposite in2="SourceAlpha" operator="in" result="effect_backgroundBlur_1"/>
			<feBlend mode="normal" in="SourceGraphic" in2="effect_backgroundBlur_1" result="shape"/>
		</filter>
		<filter id="filter_42_37_dd" x="39.985352" y="40.941162" width="59.680664" height="63.127930" filterUnits="userSpaceOnUse" color-interpolation-filters="sRGB">
			<feFlood flood-opacity="0" result="BackgroundImageFix"/>
			<feBlend mode="normal" in="SourceGraphic" in2="BackgroundImageFix" result="shape"/>
			<feGaussianBlur stdDeviation="4.33333" result="effect_layerBlur_1"/>
		</filter>
		<filter id="filter_42_39_dd" x="59.661133" y="56.625977" width="47.331055" height="50.365723" filterUnits="userSpaceOnUse" color-interpolation-filters="sRGB">
			<feFlood flood-opacity="0" result="BackgroundImageFix"/>
			<feGaussianBlur in="BackgroundImage" stdDeviation="5"/>
			<feComposite in2="SourceAlpha" operator="in" result="effect_backgroundBlur_1"/>
			<feBlend mode="normal" in="SourceGraphic" in2="effect_backgroundBlur_1" result="shape"/>
		</filter>
		<filter id="filter_42_40_dd" x="65.955078" y="62.514404" width="44.760742" height="48.568848" filterUnits="userSpaceOnUse" color-interpolation-filters="sRGB">
			<feFlood flood-opacity="0" result="BackgroundImageFix"/>
			<feGaussianBlur in="BackgroundImage" stdDeviation="5"/>
			<feComposite in2="SourceAlpha" operator="in" result="effect_backgroundBlur_1"/>
			<feColorMatrix in="SourceAlpha" type="matrix" values="0 0 0 0 0 0 0 0 0 0 0 0 0 0 0 0 0 0 127 0" result="hardAlpha"/>
			<feOffset dx="5" dy="5"/>
			<feGaussianBlur stdDeviation="3.33333"/>
			<feComposite in2="hardAlpha" operator="out" k2="-1" k3="1"/>
			<feColorMatrix type="matrix" values="0 0 0 0 1 0 0 0 0 0.44706 0 0 0 0 0.36863 0 0 0 0.5 0"/>
			<feBlend mode="normal" in2="effect_backgroundBlur_1" result="effect_dropShadow_2"/>
			<feBlend mode="normal" in="SourceGraphic" in2="effect_dropShadow_2" result="shape"/>
		</filter>
		<filter id="filter_42_41_dd" x="70.955078" y="75.447266" width="3.767578" height="20.635986" filterUnits="userSpaceOnUse" color-interpolation-filters="sRGB">
			<feFlood flood-opacity="0" result="BackgroundImageFix"/>
			<feGaussianBlur in="BackgroundImage" stdDeviation="5"/>
			<feComposite in2="SourceAlpha" operator="in" result="effect_backgroundBlur_1"/>
			<feBlend mode="normal" in="SourceGraphic" in2="effect_backgroundBlur_1" result="shape"/>
		</filter>
		<filter id="filter_42_42_dd" x="81.532227" y="67.514404" width="3.767578" height="28.568115" filterUnits="userSpaceOnUse" color-interpolation-filters="sRGB">
			<feFlood flood-opacity="0" result="BackgroundImageFix"/>
			<feGaussianBlur in="BackgroundImage" stdDeviation="5"/>
			<feComposite in2="SourceAlpha" operator="in" result="effect_backgroundBlur_1"/>
			<feBlend mode="normal" in="SourceGraphic" in2="effect_backgroundBlur_1" result="shape"/>
		</filter>
		<filter id="filter_42_43_dd" x="91.949219" y="84.217285" width="3.767578" height="11.865723" filterUnits="userSpaceOnUse" color-interpolation-filters="sRGB">
			<feFlood flood-opacity="0" result="BackgroundImageFix"/>
			<feGaussianBlur in="BackgroundImage" stdDeviation="5"/>
			<feComposite in2="SourceAlpha" operator="in" result="effect_backgroundBlur_1"/>
			<feBlend mode="normal" in="SourceGraphic" in2="effect_backgroundBlur_1" result="shape"/>
		</filter>
		<linearGradient x1="75.778870" y1="75.833374" x2="52.824760" y2="119.726013" id="paint_linear_42_36_0" gradientUnits="userSpaceOnUse">
			<stop stop-color="#11B5E4"/>
			<stop offset="1.000000" stop-color="#035B81"/>
		</linearGradient>
		<linearGradient x1="67.877106" y1="63.260639" x2="96.740952" y2="101.517090" id="paint_linear_42_39_0" gradientUnits="userSpaceOnUse">
			<stop stop-color="#FFFFFF" stop-opacity="0.250980"/>
			<stop offset="1.000000" stop-color="#FFFFFF" stop-opacity="0.000000"/>
		</linearGradient>
		<linearGradient x1="64.545708" y1="88.718719" x2="102.290924" y2="100.563614" id="paint_linear_42_40_0" gradientUnits="userSpaceOnUse">
			<stop stop-color="#FFFFFF"/>
			<stop offset="1.000000" stop-color="#FFFFFF" stop-opacity="0.200000"/>
		</linearGradient>
		<linearGradient x1="74.896652" y1="70.842697" x2="90.662964" y2="93.440063" id="paint_linear_42_40_1" gradientUnits="userSpaceOnUse">
			<stop stop-color="#FFFFFF" stop-opacity="0.250980"/>
			<stop offset="1.000000" stop-color="#FFFFFF" stop-opacity="0.000000"/>
		</linearGradient>
	</defs>
	<rect id="Image Placeholder" rx="75.000000" width="150.000000" height="150.000000" fill="#F2F6FF" fill-opacity="1.000000"/>
	<g filter="url(#filter_42_36_dd)">
		<path id="Fill 1" d="M76.14 47.34L55.68 53.18C48.23 55.31 45.13 61.03 47.13 68.98L52.61 90.78C54.6 98.73 59.96 102.03 67.41 99.9L87.87 94.05C95.32 91.92 98.39 86.22 96.4 78.26L90.92 56.46C88.92 48.51 83.59 45.21 76.14 47.34Z" fill="url(#paint_linear_42_36_0)" fill-opacity="1.000000" fill-rule="nonzero"/>
	</g>
	<g opacity="0.500000" filter="url(#filter_42_37_dd)">
		<path id="Path" d="M86.21 75.91L82.5 60.89C81.15 55.45 77.78 53.01 73.35 54.26L58.33 58.49C53.82 59.76 52.08 63.64 53.42 69.08L57.14 84.1C58.51 89.63 61.8 92 66.31 90.73L81.32 86.5C85.76 85.25 87.58 81.44 86.21 75.91Z" fill="#11B5E4" fill-opacity="1.000000" fill-rule="nonzero"/>
	</g>
	<g filter="url(#filter_42_39_dd)">
		<path id="Fill 1" d="M93.92 57.62L72.74 57.62C65.03 57.62 60.66 62.29 60.66 70.52L60.66 93.09C60.66 101.32 65.03 105.99 72.74 105.99L93.92 105.99C101.64 105.99 105.99 101.32 105.99 93.09L105.99 70.52C105.99 62.29 101.64 57.62 93.92 57.62Z" fill="#00ACDD" fill-opacity="1.000000" fill-rule="nonzero"/>
		<path id="Fill 1" d="M93.92 56.62L72.74 56.62Q66.59 56.62 63.33 59.69Q59.66 63.15 59.66 70.52L59.66 93.09Q59.66 100.45 63.33 103.92Q66.59 106.99 72.74 106.99L93.92 106.99Q98.98 106.99 102.2 104.55Q102.93 104 103.58 103.31Q103.74 103.14 103.89 102.95Q106.99 99.35 106.99 93.09L106.99 70.52Q106.99 63.14 103.31 59.68Q100.05 56.62 93.92 56.62ZM72.74 57.62L93.92 57.62C101.64 57.62 105.99 62.29 105.99 70.52L105.99 93.09C105.99 101.32 101.64 105.99 93.92 105.99L72.74 105.99C65.03 105.99 60.66 101.32 60.66 93.09L60.66 70.52C60.66 62.29 65.03 57.62 72.74 57.62Z" fill="url(#paint_linear_42_39_0)" fill-opacity="1.000000" fill-rule="evenodd"/>
	</g>
	<g filter="url(#filter_42_40_dd)">
		<mask id="mask_42_40" fill="white">
			<path id="Union" d="M83.4053 67.5144C82.3779 67.5144 81.5322 68.4172 81.5322 69.5349L81.5322 94.0833C81.5322 95.1797 82.3779 96.0825 83.4053 96.0825C84.4531 96.0825 85.2998 95.1797 85.2998 94.0833L85.2998 69.5349C85.2998 68.4172 84.4531 67.5144 83.4053 67.5144ZM70.9551 77.4678C70.9551 76.3499 71.8008 75.447 72.8291 75.447C73.876 75.447 74.7227 76.3499 74.7227 77.4678L74.7227 94.084C74.7227 95.1804 73.876 96.0833 72.8291 96.0833C71.8008 96.0833 70.9551 95.1804 70.9551 94.084L70.9551 77.4678ZM91.9492 86.2378C91.9492 85.1201 92.7949 84.2173 93.8428 84.2173C94.8701 84.2173 95.7158 85.1201 95.7158 86.2378L95.7158 94.0837C95.7158 95.1802 94.8701 96.083 93.8223 96.083C92.7949 96.083 91.9492 95.1802 91.9492 94.0837L91.9492 86.2378Z" clip-rule="evenodd" fill="" fill-opacity="1.000000" fill-rule="evenodd"/>
		</mask>
		<path id="Union" d="M83.4053 67.5144C82.3779 67.5144 81.5322 68.4172 81.5322 69.5349L81.5322 94.0833C81.5322 95.1797 82.3779 96.0825 83.4053 96.0825C84.4531 96.0825 85.2998 95.1797 85.2998 94.0833L85.2998 69.5349C85.2998 68.4172 84.4531 67.5144 83.4053 67.5144ZM70.9551 77.4678C70.9551 76.3499 71.8008 75.447 72.8291 75.447C73.876 75.447 74.7227 76.3499 74.7227 77.4678L74.7227 94.084C74.7227 95.1804 73.876 96.0833 72.8291 96.0833C71.8008 96.0833 70.9551 95.1804 70.9551 94.084L70.9551 77.4678ZM91.9492 86.2378C91.9492 85.1201 92.7949 84.2173 93.8428 84.2173C94.8701 84.2173 95.7158 85.1201 95.7158 86.2378L95.7158 94.0837C95.7158 95.1802 94.8701 96.083 93.8223 96.083C92.7949 96.083 91.9492 95.1802 91.9492 94.0837L91.9492 86.2378Z" clip-rule="evenodd" fill="url(#paint_linear_42_40_0)" fill-opacity="1.000000" fill-rule="evenodd" mask="url(#mask_42_40)"/>
		<path id="Union" d="M81.5322 69.5349C81.5322 68.4172 82.3779 67.5144 83.4053 67.5144C84.4531 67.5144 85.2998 68.4172 85.2998 69.5349L85.2998 94.0833C85.2998 95.1797 84.4531 96.0825 83.4053 96.0825C82.3779 96.0825 81.5322 95.1797 81.5322 94.0833L81.5322 69.5349ZM83.1642 67.936Q83.2827 67.9143 83.4053 67.9143Q83.5604 67.9143 83.7082 67.9471Q83.8471 67.9779 83.9795 68.0376Q84.0523 68.0705 84.1207 68.1109Q84.3026 68.2184 84.4531 68.3792Q84.5225 68.4531 84.5816 68.5344Q84.7015 68.6994 84.7793 68.895Q84.8182 68.9937 84.8446 69.0956Q84.8994 69.3082 84.8994 69.5349L84.8994 94.0833Q84.8994 94.2774 84.8571 94.4617Q84.8281 94.5879 84.7793 94.7095Q84.7081 94.8874 84.601 95.0403Q84.5349 95.1347 84.4551 95.2195Q84.3075 95.3756 84.1299 95.4813Q84.0572 95.5245 83.9795 95.5593Q83.8374 95.623 83.6885 95.6538Q83.5499 95.6824 83.4053 95.6824Q83.2873 95.6824 83.1728 95.6623Q83.005 95.6328 82.8447 95.5601Q82.7808 95.531 82.7203 95.4961Q82.5311 95.3869 82.375 95.2205Q82.2987 95.1388 82.2348 95.0482Q82.1247 94.8921 82.0518 94.7097Q82.0012 94.5835 81.9719 94.4526Q81.9316 94.2724 81.9316 94.0833L81.9316 69.5349Q81.9316 69.3181 81.9823 69.1139Q82.0099 69.0024 82.0527 68.8945Q82.1315 68.695 82.2536 68.5269Q82.3101 68.449 82.376 68.3779Q82.535 68.2075 82.7282 68.097Q82.7855 68.0643 82.8457 68.0369Q83.0012 67.9659 83.1642 67.936ZM72.8291 75.447C71.8008 75.447 70.9551 76.3499 70.9551 77.4678L70.9551 94.084C70.9551 95.1804 71.8008 96.0833 72.8291 96.0833C73.876 96.0833 74.7227 95.1804 74.7227 94.084L74.7227 77.4678C74.7227 76.3499 73.876 75.447 72.8291 75.447ZM71.3555 94.084L71.3555 77.4678Q71.3555 77.2458 71.4081 77.037Q71.435 76.9304 71.4756 76.8271Q71.5527 76.6317 71.6718 76.4666Q71.7307 76.385 71.7998 76.3108Q71.9543 76.1443 72.142 76.035Q72.2035 75.9992 72.2686 75.9695Q72.4186 75.9011 72.576 75.871Q72.7003 75.8472 72.8291 75.8472Q72.9788 75.8472 73.1218 75.8778Q73.2654 75.9086 73.4023 75.9702Q73.481 76.0056 73.5544 76.0497Q73.7308 76.1556 73.877 76.3118Q73.9485 76.3881 74.0091 76.4723Q74.1262 76.6352 74.2021 76.8276Q74.2405 76.9248 74.2666 77.0251Q74.3223 77.2392 74.3223 77.4678L74.3223 94.084Q74.3223 94.2827 74.2783 94.4711Q74.2498 94.5927 74.2031 94.71Q74.129 94.8937 74.0172 95.0504Q73.9537 95.1395 73.8779 95.22Q73.7297 95.3769 73.5511 95.4829Q73.4792 95.5256 73.4023 95.5601Q73.2654 95.6217 73.1218 95.6524Q72.9788 95.6831 72.8291 95.6831Q72.7003 95.6831 72.576 95.6593Q72.4186 95.6291 72.2686 95.5608Q72.2046 95.5317 72.1441 95.4968Q71.9549 95.3876 71.7988 95.2212Q71.7185 95.1356 71.652 95.0404Q71.5455 94.8878 71.4746 94.7104Q71.4255 94.587 71.3967 94.4589Q71.3555 94.2761 71.3555 94.084ZM93.8428 84.2173C92.7949 84.2173 91.9492 85.1201 91.9492 86.2378L91.9492 94.0837C91.9492 95.1802 92.7949 96.083 93.8223 96.083C94.8701 96.083 95.7158 95.1802 95.7158 94.0837L95.7158 86.2378C95.7158 85.1201 94.8701 84.2173 93.8428 84.2173ZM92.3486 94.0837L92.3486 86.2378Q92.3486 86.016 92.4016 85.8077Q92.4287 85.7009 92.4697 85.5977Q92.5447 85.4078 92.6598 85.2466Q92.7216 85.1601 92.7949 85.0818Q92.9448 84.9219 93.1258 84.8146Q93.1949 84.7737 93.2686 84.7405Q93.4111 84.6764 93.5606 84.6456Q93.6987 84.6172 93.8428 84.6172Q93.9761 84.6172 94.1043 84.6427Q94.2569 84.6731 94.4023 84.7397Q94.4626 84.7672 94.5198 84.7999Q94.7131 84.9103 94.8721 85.0808Q94.9402 85.1539 94.9983 85.2342Q95.1186 85.4004 95.1963 85.5974Q95.2375 85.7022 95.2646 85.8105Q95.3164 86.0177 95.3164 86.2378L95.3164 94.0837Q95.3164 94.2778 95.2741 94.4622Q95.2451 94.5884 95.1963 94.71Q95.127 94.883 95.0235 95.0323Q94.9548 95.1314 94.8711 95.22Q94.7276 95.3724 94.5551 95.4768Q94.4786 95.523 94.3965 95.5598Q94.2544 95.6235 94.1055 95.6542Q93.9668 95.6829 93.8223 95.6829Q93.7043 95.6829 93.5898 95.6628Q93.422 95.6333 93.2617 95.5605Q93.1978 95.5315 93.1373 95.4966Q92.9481 95.3874 92.792 95.2209Q92.7165 95.1402 92.6532 95.0508Q92.5421 94.8939 92.4688 94.7104Q92.4188 94.5858 92.3896 94.4565Q92.3486 94.2747 92.3486 94.0837Z" clip-rule="evenodd" fill="url(#paint_linear_42_40_1)" fill-opacity="1.000000" fill-rule="evenodd"/>
	</g>
</svg>
