<svg width="13.804688" height="21.814453" viewBox="0 0 13.8047 21.8145" fill="none" xmlns="http://www.w3.org/2000/svg" xmlns:xlink="http://www.w3.org/1999/xlink">
	<desc>
			Created with Pixso.
	</desc>
	<defs/>
	<path id="$" d="M7.72 21.81L6.32 21.81L6.32 19.86C2.49 19.65 0.08 17.71 0 14.15L3.56 14.15C3.67 15.69 4.75 16.56 6.32 16.75L6.32 12.26L5.21 11.98C2.26 11.27 0.45 9.79 0.45 7.22C0.44 4.26 2.88 2.23 6.32 1.96L6.32 0L7.72 0L7.72 1.95C11.23 2.19 13.51 4.26 13.57 7.2L10.03 7.2C9.91 6.01 9.08 5.25 7.72 5.06L7.72 9.31L8.57 9.51C11.6 10.2 13.79 11.74 13.8 14.64C13.79 17.66 11.56 19.65 7.72 19.86L7.72 21.81ZM4.24 6.97C4.21 8.03 5.13 8.6 6.32 8.96L6.32 5.08C4.97 5.26 4.24 6.01 4.24 6.97ZM7.72 12.62L7.72 16.73C9.16 16.54 10.07 15.73 10.08 14.64C10.07 13.59 9.24 13.04 7.72 12.62Z" fill="#02897A" fill-opacity="1.000000" fill-rule="evenodd"/>
</svg>
