<svg width="338.000000" height="310.920197" viewBox="0 0 338 310.92" fill="none" xmlns="http://www.w3.org/2000/svg" xmlns:xlink="http://www.w3.org/1999/xlink">
	<desc>
			Created with Pixso.
	</desc>
	<defs/>
	<path id="Vector" d="M49.49 285.23C115.5 319.48 222.5 319.48 288.5 285.23C354.5 250.99 354.49 195.48 288.5 161.24C222.5 126.99 115.5 126.99 49.49 161.24C-16.51 195.48 -16.5 250.99 49.49 285.23Z" fill="#F5F5F5" fill-opacity="1.000000" fill-rule="nonzero"/>
	<path id="Vector" d="M312.7 189.81C312.7 195.9 302.27 200.84 289.4 200.84C276.54 200.84 266.11 195.9 266.11 189.81C266.11 183.73 276.54 178.79 289.4 178.79C302.27 178.79 312.7 183.73 312.7 189.81Z" fill="#E6E6E6" fill-opacity="1.000000" fill-rule="evenodd"/>
	<path id="Vector" d="M70.44 255.22C70.44 260.8 60.88 265.32 49.08 265.32C37.29 265.32 27.73 260.8 27.73 255.22C27.73 249.63 37.29 245.11 49.08 245.11C60.88 245.11 70.44 249.63 70.44 255.22Z" fill="#E6E6E6" fill-opacity="1.000000" fill-rule="evenodd"/>
	<path id="Vector" d="M229.85 274.23C229.85 280.04 219.9 284.76 207.63 284.76C195.36 284.76 185.41 280.04 185.41 274.23C185.41 268.42 195.36 263.71 207.63 263.71C219.9 263.71 229.85 268.42 229.85 274.23Z" fill="#E6E6E6" fill-opacity="1.000000" fill-rule="evenodd"/>
	<path id="Vector" d="M119.56 223.88C119.56 229.7 109.61 234.41 97.34 234.41C85.07 234.41 75.12 229.7 75.12 223.88C75.12 218.07 85.07 213.36 97.34 213.36C109.61 213.36 119.56 218.07 119.56 223.88Z" fill="#E6E6E6" fill-opacity="1.000000" fill-rule="evenodd"/>
	<path id="Vector" d="M228.1 164.08C228.65 157.6 243.61 133.27 248.19 129.5C252.77 125.73 260.85 116.2 257.37 110.78C253.89 105.37 243.65 107.78 234.04 124.65C226.59 137.74 224.28 166.69 224.28 166.69L228.1 164.08Z" fill="#02897A" fill-opacity="1.000000" fill-rule="nonzero"/>
	<path id="Vector" d="M226.06 163.47L225.99 163.47C225.94 163.47 225.89 163.45 225.85 163.42C225.81 163.39 225.77 163.36 225.74 163.32C225.71 163.28 225.69 163.23 225.67 163.18C225.66 163.13 225.66 163.08 225.67 163.03C229.9 135.87 238.89 118.92 253.15 111.22C253.24 111.17 253.35 111.16 253.45 111.19C253.5 111.2 253.54 111.23 253.58 111.26C253.62 111.29 253.66 111.33 253.68 111.38C253.71 111.42 253.72 111.47 253.73 111.52C253.73 111.58 253.73 111.63 253.71 111.68C253.7 111.73 253.67 111.77 253.64 111.81C253.61 111.85 253.57 111.89 253.52 111.91C239.49 119.48 230.64 136.25 226.44 163.15C226.43 163.24 226.38 163.32 226.31 163.38C226.24 163.44 226.15 163.47 226.06 163.47Z" fill="#FFFFFF" fill-opacity="1.000000" fill-rule="nonzero"/>
	<path id="Vector" d="M229.61 132.62C229.61 132.62 241.62 112 251.57 102.55C257.08 97.32 260.47 93.95 260.17 89.99C259.95 86.99 257.44 85.38 252.03 86.7C241.27 89.33 235.49 100.17 231.78 112.3C229.14 120.84 229.61 132.62 229.61 132.62Z" fill="#37474F" fill-opacity="1.000000" fill-rule="nonzero"/>
	<g opacity="0.200000">
		<path id="Vector" d="M229.61 132.62C229.61 132.62 241.62 112 251.57 102.55C257.08 97.32 260.47 93.95 260.17 89.99C259.95 86.99 257.44 85.38 252.03 86.7C241.27 89.33 235.49 100.17 231.78 112.3C229.14 120.84 229.61 132.62 229.61 132.62Z" fill="#00FFE3" fill-opacity="1.000000" fill-rule="nonzero"/>
	</g>
	<path id="Vector" d="M231 129.23L230.95 129.23C230.84 129.21 230.75 129.16 230.69 129.07C230.63 128.99 230.6 128.88 230.62 128.78C234.89 101.98 251.15 91.88 256.04 89.43C256.13 89.38 256.24 89.37 256.34 89.4C256.43 89.44 256.52 89.51 256.56 89.6C256.59 89.64 256.6 89.69 256.61 89.75C256.61 89.8 256.6 89.85 256.59 89.9C256.57 89.95 256.55 89.99 256.51 90.03C256.48 90.07 256.44 90.1 256.39 90.12C251.59 92.54 235.62 102.46 231.4 128.9C231.38 129 231.33 129.08 231.26 129.14C231.19 129.2 231.1 129.23 231 129.23Z" fill="#FFFFFF" fill-opacity="1.000000" fill-rule="nonzero"/>
	<path id="Vector" d="M296.89 71.75L294.29 66.9L296.38 60.9L296.38 57.23L289.99 60.9L289.99 64.57L292.74 69.31C292.78 69.39 292.84 69.44 292.92 69.48L296.89 71.75Z" fill="#11B5E4" fill-opacity="1.000000" fill-rule="nonzero"/>
	<g opacity="0.100000">
		<path id="Vector" d="M296.89 71.75L294.29 66.9L296.38 60.9L296.38 57.23L289.99 60.9L289.99 64.57L292.74 69.31C292.78 69.39 292.84 69.44 292.92 69.48L296.89 71.75Z" fill="#000000" fill-opacity="1.000000" fill-rule="nonzero"/>
	</g>
	<path id="Vector" d="M282.05 48.97L299.67 38.8C300.26 38.51 300.92 38.35 301.59 38.35C302.25 38.35 302.91 38.51 303.5 38.8L305.08 39.7C305.64 40.06 306.1 40.55 306.44 41.12C306.77 41.7 306.97 42.34 307 43L307 57.18C306.96 57.84 306.77 58.48 306.44 59.06C306.1 59.63 305.64 60.12 305.08 60.48L287.45 70.65C286.85 70.95 286.2 71.1 285.53 71.1C284.87 71.1 284.21 70.95 283.61 70.65L282.04 69.75C281.48 69.39 281.01 68.9 280.68 68.33C280.35 67.75 280.16 67.11 280.12 66.45L280.12 52.26C280.16 51.6 280.36 50.96 280.7 50.39C281.03 49.82 281.5 49.33 282.05 48.97Z" fill="#11B5E4" fill-opacity="1.000000" fill-rule="nonzero"/>
	<g opacity="0.300000">
		<path id="Vector" d="M282.05 48.97L299.67 38.8C300.26 38.51 300.92 38.35 301.59 38.35C302.25 38.35 302.91 38.51 303.5 38.8L305.08 39.7C305.64 40.06 306.1 40.55 306.44 41.12C306.77 41.7 306.97 42.34 307 43L307 57.18C306.96 57.84 306.77 58.48 306.44 59.06C306.1 59.63 305.64 60.12 305.08 60.48L287.45 70.65C286.85 70.95 286.2 71.1 285.53 71.1C284.87 71.1 284.21 70.95 283.61 70.65L282.04 69.75C281.48 69.39 281.01 68.9 280.68 68.33C280.35 67.75 280.16 67.11 280.12 66.45L280.12 52.26C280.16 51.6 280.36 50.96 280.7 50.39C281.03 49.82 281.5 49.33 282.05 48.97Z" fill="#FFFFFF" fill-opacity="1.000000" fill-rule="nonzero"/>
	</g>
	<path id="Vector" d="M287.46 70.64C286.39 71.24 285.54 70.75 285.54 69.53L285.54 55.36C285.57 54.69 285.76 54.05 286.1 53.48C286.43 52.9 286.9 52.42 287.46 52.05L305.09 41.88C306.15 41.27 307.01 41.77 307.01 42.99L307.01 57.16C306.97 57.83 306.78 58.47 306.44 59.04C306.11 59.62 305.65 60.1 305.09 60.46L287.46 70.64Z" fill="#11B5E4" fill-opacity="1.000000" fill-rule="nonzero"/>
	<path id="Vector" d="M280.14 66.43C280.17 67.1 280.37 67.74 280.7 68.31C281.03 68.89 281.5 69.37 282.05 69.74L283.63 70.64C284.17 70.9 284.76 71.06 285.37 71.08C285.97 71.11 286.57 71.01 287.13 70.78C286.24 71.13 285.56 70.62 285.56 69.53L285.56 55.36C285.58 54.69 285.78 54.05 286.13 53.48L280.72 50.35C280.38 50.92 280.19 51.56 280.16 52.23L280.14 66.43Z" fill="#11B5E4" fill-opacity="1.000000" fill-rule="nonzero"/>
	<g opacity="0.100000">
		<path id="Vector" d="M280.14 66.43C280.17 67.1 280.37 67.74 280.7 68.31C281.03 68.89 281.5 69.37 282.05 69.74L283.63 70.64C284.17 70.9 284.76 71.06 285.37 71.08C285.97 71.11 286.57 71.01 287.13 70.78C286.24 71.13 285.56 70.62 285.56 69.53L285.56 55.36C285.58 54.69 285.78 54.05 286.13 53.48L280.72 50.35C280.38 50.92 280.19 51.56 280.16 52.23L280.14 66.43Z" fill="#000000" fill-opacity="1.000000" fill-rule="nonzero"/>
	</g>
	<path id="Vector" d="M294 66.87L296.74 71.61C296.79 71.67 296.84 71.73 296.91 71.76C296.98 71.8 297.06 71.81 297.14 71.8C297.22 71.8 297.29 71.77 297.35 71.72C297.42 71.67 297.47 71.61 297.49 71.53L300.4 63.2L300.4 59.53L294 63.2L294 66.87Z" fill="#11B5E4" fill-opacity="1.000000" fill-rule="nonzero"/>
	<path id="Vector" d="M296.28 62.03L294.31 61.51C292.44 61.02 290.2 59.95 290.2 57.55C290.29 56.57 290.62 55.63 291.15 54.8C291.68 53.96 292.4 53.27 293.25 52.77C293.53 52.57 293.85 52.45 294.19 52.42C294.54 52.39 294.88 52.45 295.19 52.6C295.5 52.75 295.76 52.97 295.95 53.26C296.14 53.54 296.25 53.87 296.27 54.21C296.47 52.64 297.75 50.19 299.3 49.29C300.98 48.33 302.35 48.9 302.35 50.58C302.35 52.97 300.12 56.62 298.24 59.26L296.28 62.03Z" fill="#FFFFFF" fill-opacity="1.000000" fill-rule="nonzero"/>
	<path id="Vector" d="M35.87 108.98L53.49 98.85C54.09 98.54 54.75 98.39 55.41 98.39C56.08 98.39 56.74 98.54 57.33 98.85L58.91 99.74C59.46 100.1 59.93 100.59 60.26 101.16C60.59 101.74 60.78 102.38 60.82 103.04L60.82 117.21C60.78 117.88 60.59 118.52 60.26 119.09C59.93 119.67 59.46 120.15 58.91 120.52L41.3 130.65C40.71 130.95 40.05 131.11 39.38 131.11C38.71 131.11 38.05 130.95 37.46 130.65L35.88 129.75C35.32 129.39 34.84 128.9 34.51 128.32C34.17 127.74 33.98 127.09 33.94 126.42L33.94 112.28C33.98 111.62 34.17 110.97 34.51 110.4C34.84 109.82 35.31 109.34 35.87 108.98Z" fill="#FF7800" fill-opacity="1.000000" fill-rule="nonzero"/>
	<g opacity="0.300000">
		<path id="Vector" d="M35.87 108.98L53.49 98.85C54.09 98.54 54.75 98.39 55.41 98.39C56.08 98.39 56.74 98.54 57.33 98.85L58.91 99.74C59.46 100.1 59.93 100.59 60.26 101.16C60.59 101.74 60.78 102.38 60.82 103.04L60.82 117.21C60.78 117.88 60.59 118.52 60.26 119.09C59.93 119.67 59.46 120.15 58.91 120.52L41.3 130.65C40.71 130.95 40.05 131.11 39.38 131.11C38.71 131.11 38.05 130.95 37.46 130.65L35.88 129.75C35.32 129.39 34.84 128.9 34.51 128.32C34.17 127.74 33.98 127.09 33.94 126.42L33.94 112.28C33.98 111.62 34.17 110.97 34.51 110.4C34.84 109.82 35.31 109.34 35.87 108.98Z" fill="#FFFFFF" fill-opacity="1.000000" fill-rule="nonzero"/>
	</g>
	<path id="Vector" d="M50.7 131.77L48.1 126.91L50.19 120.92L50.19 117.25L43.79 120.95L43.79 124.62L46.55 129.31C46.59 129.38 46.65 129.44 46.73 129.47L50.7 131.77Z" fill="#FF7800" fill-opacity="1.000000" fill-rule="nonzero"/>
	<g opacity="0.100000">
		<path id="Vector" d="M50.7 131.77L48.1 126.91L50.19 120.92L50.19 117.25L43.79 120.95L43.79 124.62L46.55 129.31C46.59 129.38 46.65 129.44 46.73 129.47L50.7 131.77Z" fill="#000000" fill-opacity="1.000000" fill-rule="nonzero"/>
	</g>
	<path id="Vector" d="M41.3 130.65C40.24 131.26 39.38 130.76 39.38 129.54L39.38 115.37C39.42 114.71 39.61 114.07 39.94 113.49C40.28 112.92 40.74 112.44 41.3 112.08L58.94 101.9C59.99 101.3 60.85 101.8 60.85 103.01L60.85 117.18C60.82 117.84 60.62 118.49 60.29 119.06C59.96 119.63 59.49 120.12 58.94 120.49L41.3 130.65Z" fill="#FF7800" fill-opacity="1.000000" fill-rule="nonzero"/>
	<path id="Vector" d="M33.94 126.42C33.98 127.08 34.17 127.73 34.51 128.3C34.84 128.88 35.31 129.36 35.87 129.72L37.44 130.62C37.98 130.89 38.58 131.04 39.18 131.07C39.79 131.09 40.39 130.99 40.95 130.77C40.05 131.11 39.38 130.6 39.38 129.51L39.38 115.37C39.4 114.71 39.59 114.06 39.94 113.49L34.54 110.4C34.2 110.97 34 111.61 33.98 112.28L33.94 126.42Z" fill="#FF7800" fill-opacity="1.000000" fill-rule="nonzero"/>
	<g opacity="0.100000">
		<path id="Vector" d="M33.94 126.42C33.98 127.08 34.17 127.73 34.51 128.3C34.84 128.88 35.31 129.36 35.87 129.72L37.44 130.62C37.98 130.89 38.58 131.04 39.18 131.07C39.79 131.09 40.39 130.99 40.95 130.77C40.05 131.11 39.38 130.6 39.38 129.51L39.38 115.37C39.4 114.71 39.59 114.06 39.94 113.49L34.54 110.4C34.2 110.97 34 111.61 33.98 112.28L33.94 126.42Z" fill="#000000" fill-opacity="1.000000" fill-rule="nonzero"/>
	</g>
	<path id="Vector" d="M47.81 126.88L50.56 131.58C50.6 131.64 50.65 131.7 50.72 131.74C50.79 131.77 50.87 131.78 50.95 131.78C51.03 131.77 51.1 131.74 51.16 131.69C51.22 131.64 51.27 131.58 51.3 131.51L54.2 123.18L54.2 119.51L47.81 123.18L47.81 126.88Z" fill="#FF7800" fill-opacity="1.000000" fill-rule="nonzero"/>
	<path id="Vector" d="M43.43 118.42C42.9 118.76 42.46 119.22 42.14 119.77C41.83 120.31 41.65 120.92 41.62 121.55C41.62 122.69 42.41 123.11 43.43 122.58C43.96 122.24 44.39 121.78 44.71 121.23C45.02 120.69 45.2 120.08 45.23 119.45C45.24 118.31 44.45 117.82 43.43 118.42Z" fill="#FFFFFF" fill-opacity="1.000000" fill-rule="nonzero"/>
	<path id="Vector" d="M50.08 114.59C49.55 114.94 49.11 115.4 48.8 115.94C48.48 116.49 48.3 117.1 48.27 117.72C48.27 118.87 49.06 119.33 50.08 118.76C50.61 118.41 51.05 117.95 51.36 117.41C51.68 116.86 51.86 116.25 51.89 115.63C51.89 114.48 51.08 114.02 50.08 114.59Z" fill="#FFFFFF" fill-opacity="1.000000" fill-rule="nonzero"/>
	<path id="Vector" d="M56.73 110.78C56.2 111.12 55.77 111.58 55.45 112.13C55.14 112.67 54.96 113.28 54.93 113.91C54.93 115.05 55.72 115.47 56.73 114.94C57.26 114.6 57.7 114.14 58.02 113.59C58.33 113.05 58.51 112.44 58.54 111.81C58.54 110.66 57.73 110.2 56.73 110.78Z" fill="#FFFFFF" fill-opacity="1.000000" fill-rule="nonzero"/>
	<path id="Vector" d="M222.8 6.28L146.22 50.17C145.22 50.81 144.4 51.68 143.8 52.7C143.21 53.72 142.87 54.86 142.8 56.04L142.8 224.39C142.8 226.54 144.33 227.42 146.22 226.34L222.8 182.45C223.79 181.81 224.61 180.94 225.21 179.92C225.8 178.9 226.14 177.76 226.21 176.59L226.21 8.24C226.21 6.08 224.68 5.2 222.8 6.28Z" fill="#37474F" fill-opacity="1.000000" fill-rule="nonzero"/>
	<path id="Vector" d="M146.22 50.17L222.8 6.28C224.48 5.32 225.88 5.92 226.15 7.6C226 6.55 225.62 5.53 225.04 4.63C224.46 3.73 223.69 2.96 222.8 2.37L220.01 0.81C218.96 0.27 217.79 0 216.6 0C215.42 0 214.25 0.27 213.19 0.81L136.61 44.67C135.61 45.29 134.78 46.16 134.2 47.2L143.8 52.67C144.38 51.65 145.21 50.79 146.22 50.17Z" fill="#455A64" fill-opacity="1.000000" fill-rule="nonzero"/>
	<path id="Vector" d="M133.2 218.88C133.27 220.05 133.61 221.2 134.2 222.22C134.79 223.24 135.62 224.1 136.61 224.75L139.39 226.31C140.36 226.79 141.41 227.06 142.48 227.11C143.56 227.16 144.63 226.98 145.63 226.58C144.06 227.19 142.8 226.29 142.8 224.35L142.8 56.01C142.84 54.83 143.19 53.68 143.81 52.67L134.2 47.2C133.59 48.21 133.24 49.36 133.2 50.54L133.2 218.88Z" fill="#263238" fill-opacity="1.000000" fill-rule="nonzero"/>
	<path id="Vector" d="M148.05 71.14L220.96 29.35C222.09 28.7 223.01 29.23 223.01 30.53L223.01 157.97C222.97 158.68 222.76 159.36 222.41 159.98C222.05 160.59 221.55 161.11 220.96 161.49L148.05 203.27C146.92 203.92 146 203.4 146 202.1L146 74.66C146.04 73.95 146.25 73.26 146.6 72.65C146.96 72.04 147.45 71.52 148.05 71.14Z" fill="#FAFAFA" fill-opacity="1.000000" fill-rule="nonzero"/>
	<path id="Vector" d="M183.73 34.76C183.38 34.99 183.1 35.29 182.89 35.65C182.68 36.01 182.56 36.41 182.54 36.82C182.54 37.61 183.07 37.9 183.73 37.51C184.08 37.29 184.37 36.98 184.58 36.62C184.79 36.26 184.91 35.86 184.93 35.45C184.93 34.69 184.39 34.38 183.73 34.76Z" fill="#263238" fill-opacity="1.000000" fill-rule="nonzero"/>
	<path id="Vector" d="M172.4 46.87C171.71 47.33 171.13 47.94 170.72 48.65C170.31 49.37 170.08 50.17 170.04 51C170.04 52.52 171.11 53.13 172.4 52.38C173.1 51.92 173.68 51.31 174.1 50.6C174.52 49.88 174.76 49.07 174.8 48.25C174.8 46.73 173.72 46.11 172.4 46.87Z" fill="#263238" fill-opacity="1.000000" fill-rule="nonzero"/>
	<path id="Vector" d="M178.27 46.35C178.27 47.37 179.05 47.75 179.98 47.21L195.73 38.16C196.22 37.86 196.62 37.44 196.92 36.95C197.21 36.47 197.39 35.91 197.43 35.34C197.43 34.34 196.64 33.95 195.73 34.49L179.98 43.54C179.49 43.85 179.08 44.26 178.78 44.74C178.49 45.23 178.31 45.78 178.27 46.35Z" fill="#263238" fill-opacity="1.000000" fill-rule="nonzero"/>
	<path id="Vector" d="M138.51 76.17C139.07 76.53 139.54 77.02 139.87 77.6C140.21 78.17 140.4 78.81 140.43 79.48C140.43 80.69 139.57 81.18 138.51 80.58C137.95 80.21 137.49 79.73 137.16 79.15C136.83 78.58 136.63 77.93 136.6 77.27C136.61 76.06 137.46 75.57 138.51 76.17Z" fill="#37474F" fill-opacity="1.000000" fill-rule="nonzero"/>
	<path id="Vector" d="M138.51 90.86C139.07 91.22 139.53 91.71 139.87 92.28C140.2 92.85 140.4 93.5 140.43 94.16C140.43 95.38 139.57 95.87 138.51 95.26C137.96 94.9 137.5 94.42 137.17 93.85C136.85 93.29 136.65 92.65 136.61 92C136.61 90.75 137.46 90.26 138.51 90.86Z" fill="#37474F" fill-opacity="1.000000" fill-rule="nonzero"/>
	<path id="Vector" d="M137.92 76.46C138.48 76.83 138.94 77.31 139.28 77.89C139.61 78.46 139.81 79.1 139.84 79.76C139.84 80.99 138.98 81.48 137.92 80.87C137.36 80.51 136.9 80.02 136.56 79.44C136.23 78.87 136.04 78.23 136 77.57C136 76.35 136.87 75.86 137.92 76.46Z" fill="#455A64" fill-opacity="1.000000" fill-rule="nonzero"/>
	<path id="Vector" d="M137.92 91.16C138.48 91.52 138.94 92 139.28 92.58C139.61 93.15 139.81 93.8 139.84 94.46C139.84 95.68 138.98 96.17 137.92 95.56C137.36 95.2 136.9 94.71 136.56 94.14C136.23 93.56 136.04 92.92 136 92.26C136 91.04 136.87 90.55 137.92 91.16Z" fill="#455A64" fill-opacity="1.000000" fill-rule="nonzero"/>
	<path id="Vector" d="M184.51 188.01C183.13 188.9 181.98 190.1 181.16 191.52C180.34 192.93 179.87 194.52 179.78 196.15C179.78 199.16 181.9 200.37 184.51 198.87C185.88 197.98 187.03 196.77 187.85 195.36C188.67 193.94 189.14 192.35 189.23 190.72C189.24 187.72 187.12 186.51 184.51 188.01Z" fill="#263238" fill-opacity="1.000000" fill-rule="nonzero"/>
	<path id="Vector" d="M163.17 201.46C162.5 201.46 162.43 200.67 162.43 200.39L162.43 72.95C162.47 72.31 162.66 71.7 162.98 71.14C163.3 70.59 163.74 70.12 164.28 69.77L237.19 27.98C237.4 27.85 237.65 27.78 237.9 27.76C238.57 27.76 238.64 28.5 238.64 28.82L238.64 156.27C238.6 156.9 238.42 157.52 238.09 158.07C237.77 158.62 237.33 159.09 236.79 159.44L163.88 201.23C163.67 201.36 163.42 201.44 163.17 201.46Z" fill="#FFFFFF" fill-opacity="1.000000" fill-rule="nonzero"/>
	<path id="Vector" d="M162.43 200.39L162.43 72.95C162.47 72.31 162.66 71.7 162.98 71.14C163.3 70.59 163.74 70.12 164.28 69.77L237.19 27.98C237.4 27.85 237.65 27.78 237.9 27.76C238.57 27.76 238.64 28.5 238.64 28.82L238.64 156.27C238.6 156.9 238.42 157.52 238.09 158.07C237.77 158.62 237.33 159.09 236.79 159.44L163.88 201.23C163.67 201.36 163.42 201.44 163.17 201.46C162.5 201.46 162.43 200.67 162.43 200.39Z" stroke="#141414" stroke-opacity="1.000000" stroke-width="1.000000"/>
	<path id="Vector" d="M237.9 28.16C238.2 28.16 238.25 28.57 238.25 28.82L238.25 156.27C238.21 156.84 238.04 157.39 237.75 157.88C237.47 158.37 237.07 158.79 236.6 159.11L163.69 200.89C163.53 200.99 163.35 201.05 163.17 201.06C162.87 201.06 162.82 200.64 162.82 200.39L162.82 72.95C162.86 72.38 163.03 71.83 163.32 71.34C163.6 70.85 164 70.43 164.47 70.11L237.38 28.33C237.54 28.23 237.72 28.17 237.9 28.16ZM237.9 27.37C237.58 27.38 237.27 27.48 236.99 27.65L164.08 69.43C163.48 69.82 162.99 70.33 162.63 70.95C162.28 71.56 162.07 72.25 162.03 72.95L162.03 200.39C162.03 201.31 162.5 201.85 163.17 201.85C163.49 201.83 163.81 201.74 164.08 201.56L236.99 159.79C237.59 159.4 238.08 158.88 238.44 158.27C238.79 157.66 239 156.97 239.04 156.27L239.04 28.82C239.04 27.9 238.57 27.37 237.9 27.37Z" fill="#37474F" fill-opacity="1.000000" fill-rule="nonzero"/>
	<path id="Vector" d="M238.25 28.82L238.25 156.27C238.21 156.84 238.04 157.39 237.75 157.88C237.47 158.37 237.07 158.79 236.6 159.11L163.69 200.89C163.53 200.99 163.35 201.05 163.17 201.06C162.87 201.06 162.82 200.64 162.82 200.39L162.82 72.95C162.86 72.38 163.03 71.83 163.32 71.34C163.6 70.85 164 70.43 164.47 70.11L237.38 28.33C237.54 28.23 237.72 28.17 237.9 28.16C238.2 28.16 238.25 28.57 238.25 28.82ZM236.99 27.65L164.08 69.43C163.48 69.82 162.99 70.33 162.63 70.95C162.28 71.56 162.07 72.25 162.03 72.95L162.03 200.39C162.03 201.31 162.5 201.85 163.17 201.85C163.49 201.83 163.81 201.74 164.08 201.56L236.99 159.79C237.59 159.4 238.08 158.88 238.44 158.27C238.79 157.66 239 156.97 239.04 156.27L239.04 28.82C239.04 27.9 238.57 27.37 237.9 27.37C237.58 27.38 237.27 27.48 236.99 27.65Z" stroke="#141414" stroke-opacity="1.000000" stroke-width="1.000000"/>
	<path id="Vector" d="M239.01 28.82C239.01 27.52 238.1 27 236.97 27.65L164.06 69.43C163.46 69.82 162.96 70.33 162.61 70.95C162.25 71.56 162.05 72.25 162.01 72.95L162.01 83.39L239.01 39.26L239.01 28.82Z" fill="#37474F" fill-opacity="1.000000" fill-rule="nonzero"/>
	<g opacity="0.100000">
		<path id="Vector" d="M239.01 28.82C239.01 27.52 238.1 27 236.97 27.65L164.06 69.43C163.46 69.82 162.96 70.33 162.61 70.95C162.25 71.56 162.05 72.25 162.01 72.95L162.01 83.39L239.01 39.26L239.01 28.82Z" fill="#000000" fill-opacity="1.000000" fill-rule="nonzero"/>
	</g>
	<path id="Vector" d="M170.07 71.84C169.94 71.79 169.8 71.78 169.66 71.79C169.52 71.81 169.39 71.86 169.28 71.94C168.87 72.21 168.54 72.57 168.29 72.98C168.05 73.4 167.91 73.87 167.88 74.35C167.86 74.49 167.88 74.63 167.93 74.76C167.98 74.89 168.07 75 168.18 75.09C168.31 75.14 168.45 75.16 168.59 75.14C168.73 75.12 168.86 75.06 168.97 74.98C169.37 74.71 169.71 74.35 169.95 73.94C170.19 73.52 170.34 73.06 170.37 72.58C170.39 72.44 170.37 72.3 170.32 72.17C170.26 72.04 170.18 71.92 170.07 71.84Z" fill="#FFFFFF" fill-opacity="1.000000" fill-rule="nonzero"/>
	<path id="Vector" d="M171.73 69.17L171.56 69.27L171.56 68.92C171.56 68.43 171.21 68.23 170.77 68.48L167.46 70.37C167.23 70.52 167.04 70.71 166.91 70.94C166.77 71.18 166.69 71.44 166.67 71.71L166.67 72.07L166.49 72.17C166.19 72.36 165.94 72.63 165.76 72.94C165.58 73.25 165.47 73.59 165.45 73.95L165.45 77.14C165.45 77.79 165.92 78.07 166.49 77.74L171.71 74.74C172.02 74.55 172.27 74.28 172.45 73.97C172.63 73.66 172.73 73.31 172.75 72.95L172.75 69.75C172.77 69.11 172.3 68.84 171.73 69.17ZM169.27 75.49C169.02 75.65 168.73 75.73 168.43 75.74C168.24 75.75 168.05 75.7 167.88 75.6C167.67 75.47 167.51 75.28 167.4 75.06C167.3 74.84 167.25 74.59 167.27 74.35C167.3 73.76 167.47 73.19 167.76 72.69C168.06 72.18 168.47 71.75 168.97 71.43C169.17 71.29 169.41 71.2 169.65 71.18C169.9 71.17 170.15 71.21 170.37 71.32C170.57 71.46 170.73 71.65 170.84 71.87C170.94 72.09 170.99 72.33 170.96 72.58C170.94 73.16 170.77 73.73 170.47 74.24C170.18 74.75 169.77 75.18 169.27 75.49ZM171.63 71.25C171.37 71.39 171.15 71.25 171.15 70.96C171.16 70.8 171.21 70.64 171.29 70.49C171.38 70.35 171.49 70.22 171.63 70.13C171.9 69.98 172.12 70.13 172.12 70.41C172.12 70.57 172.07 70.73 171.99 70.88C171.91 71.03 171.8 71.15 171.67 71.25L171.63 71.25Z" fill="#FFFFFF" fill-opacity="1.000000" fill-rule="nonzero"/>
	<path id="Vector" d="M234.82 32.04L229.73 34.95C229.43 35.14 229.19 35.4 229.01 35.71C228.83 36.01 228.73 36.35 228.71 36.7L228.71 39.83C228.71 40.46 229.17 40.73 229.73 40.41L232.76 38.67L233.95 39.85C233.98 39.88 234.01 39.89 234.05 39.9C234.09 39.91 234.13 39.9 234.16 39.89C234.2 39.87 234.23 39.85 234.25 39.82C234.27 39.78 234.28 39.75 234.28 39.71L234.28 37.79L234.82 37.48C235.12 37.29 235.37 37.04 235.55 36.73C235.74 36.43 235.84 36.09 235.86 35.74L235.86 32.61C235.86 31.97 235.38 31.71 234.82 32.04Z" fill="#FFFFFF" fill-opacity="1.000000" fill-rule="nonzero"/>
	<path id="Vector" d="M171.85 81.53C174.51 80.03 176.67 81.25 176.67 84.27C176.57 85.92 176.09 87.53 175.25 88.96C174.41 90.39 173.25 91.6 171.85 92.5C169.18 94.07 167.02 92.81 167.02 89.76C167.11 88.11 167.59 86.5 168.43 85.07C169.27 83.64 170.44 82.43 171.85 81.53Z" fill="#37474F" fill-opacity="1.000000" fill-rule="nonzero"/>
	<path id="Vector" d="M181.44 77.85L197.44 68.68C198.38 68.14 199.15 68.52 199.15 69.53C199.11 70.1 198.93 70.65 198.63 71.14C198.34 71.63 197.93 72.05 197.44 72.35L181.44 81.52C180.5 82.06 179.74 81.67 179.74 80.66C179.78 80.1 179.96 79.54 180.25 79.05C180.55 78.57 180.95 78.15 181.44 77.85Z" fill="#37474F" fill-opacity="1.000000" fill-rule="nonzero"/>
	<g opacity="0.700000">
		<g opacity="0.700000">
			<path id="Vector" d="M181.44 77.85L197.44 68.68C198.38 68.14 199.15 68.52 199.15 69.53C199.11 70.1 198.93 70.65 198.63 71.14C198.34 71.63 197.93 72.05 197.44 72.35L181.44 81.52C180.5 82.06 179.74 81.67 179.74 80.66C179.78 80.1 179.96 79.54 180.25 79.05C180.55 78.57 180.95 78.15 181.44 77.85Z" fill="#FFFFFF" fill-opacity="1.000000" fill-rule="nonzero"/>
		</g>
	</g>
	<path id="Vector" d="M180.91 84.35L191.88 78.09C192.52 77.72 193.04 77.98 193.04 78.68C193.02 79.07 192.9 79.45 192.69 79.78C192.49 80.12 192.21 80.4 191.88 80.61L180.91 86.87C180.26 87.24 179.74 86.97 179.74 86.27C179.77 85.88 179.89 85.51 180.09 85.17C180.29 84.84 180.57 84.56 180.91 84.35Z" fill="#37474F" fill-opacity="1.000000" fill-rule="nonzero"/>
	<g opacity="0.700000">
		<g opacity="0.700000">
			<path id="Vector" d="M180.91 84.35L191.88 78.09C192.52 77.72 193.04 77.98 193.04 78.68C193.02 79.07 192.9 79.45 192.69 79.78C192.49 80.12 192.21 80.4 191.88 80.61L180.91 86.87C180.26 87.24 179.74 86.97 179.74 86.27C179.77 85.88 179.89 85.51 180.09 85.17C180.29 84.84 180.57 84.56 180.91 84.35Z" fill="#FFFFFF" fill-opacity="1.000000" fill-rule="nonzero"/>
		</g>
	</g>
	<path id="Vector" d="M171.85 163.79C174.51 162.28 176.67 163.51 176.67 166.52C176.57 168.18 176.09 169.78 175.25 171.21C174.41 172.64 173.25 173.86 171.85 174.75C169.18 176.32 167.02 175.06 167.02 172.02C167.11 170.36 167.6 168.75 168.43 167.32C169.27 165.89 170.44 164.68 171.85 163.79Z" fill="#37474F" fill-opacity="1.000000" fill-rule="nonzero"/>
	<path id="Vector" d="M181.44 160.11L197.44 150.93C198.38 150.39 199.15 150.78 199.15 151.78C199.11 152.36 198.93 152.91 198.63 153.4C198.34 153.89 197.93 154.3 197.44 154.6L181.44 163.78C180.5 164.32 179.74 163.94 179.74 162.92C179.78 162.35 179.96 161.8 180.25 161.31C180.55 160.83 180.96 160.41 181.44 160.11Z" fill="#37474F" fill-opacity="1.000000" fill-rule="nonzero"/>
	<g opacity="0.700000">
		<g opacity="0.700000">
			<path id="Vector" d="M181.44 160.11L197.44 150.93C198.38 150.39 199.15 150.78 199.15 151.78C199.11 152.36 198.93 152.91 198.63 153.4C198.34 153.89 197.93 154.3 197.44 154.6L181.44 163.78C180.5 164.32 179.74 163.94 179.74 162.92C179.78 162.35 179.96 161.8 180.25 161.31C180.55 160.83 180.96 160.41 181.44 160.11Z" fill="#FFFFFF" fill-opacity="1.000000" fill-rule="nonzero"/>
		</g>
	</g>
	<path id="Vector" d="M180.91 166.6L191.88 160.34C192.52 159.98 193.04 160.24 193.04 160.93C193.02 161.32 192.9 161.7 192.69 162.03C192.49 162.37 192.21 162.65 191.88 162.86L180.91 169.12C180.26 169.49 179.74 169.22 179.74 168.54C179.77 168.14 179.89 167.77 180.09 167.43C180.29 167.09 180.57 166.81 180.91 166.6Z" fill="#37474F" fill-opacity="1.000000" fill-rule="nonzero"/>
	<g opacity="0.700000">
		<g opacity="0.700000">
			<path id="Vector" d="M180.91 166.6L191.88 160.34C192.52 159.98 193.04 160.24 193.04 160.93C193.02 161.32 192.9 161.7 192.69 162.03C192.49 162.37 192.21 162.65 191.88 162.86L180.91 169.12C180.26 169.49 179.74 169.22 179.74 168.54C179.77 168.14 179.89 167.77 180.09 167.43C180.29 167.09 180.57 166.81 180.91 166.6Z" fill="#FFFFFF" fill-opacity="1.000000" fill-rule="nonzero"/>
		</g>
	</g>
	<path id="Vector" d="M170.35 97.05L230.93 62.32C231.88 61.78 232.64 62.22 232.64 63.3L232.64 123.39C232.61 123.98 232.44 124.55 232.14 125.06C231.84 125.57 231.43 126.01 230.93 126.33L170.35 161.27C169.4 161.81 168.65 161.37 168.65 160.29L168.65 99.99C168.68 99.4 168.85 98.83 169.15 98.32C169.44 97.81 169.85 97.38 170.35 97.05Z" fill="#F5F5F5" fill-opacity="1.000000" fill-rule="nonzero"/>
	<path id="Vector" d="M192.59 110.82C192.43 110.59 192.22 110.41 191.97 110.3C191.72 110.19 191.44 110.14 191.17 110.17C190.9 110.21 190.64 110.31 190.42 110.48C190.21 110.64 190.04 110.87 189.94 111.12L168.67 151.24L168.67 160.29C168.67 161.37 169.46 161.81 170.37 161.27L230.96 126.51C231.45 126.19 231.87 125.75 232.16 125.24C232.46 124.73 232.63 124.16 232.67 123.57L232.67 103.54L221.16 83.24C220.52 82.1 219.63 82.17 219.16 83.39L203.84 123.72L192.59 110.82Z" fill="#37474F" fill-opacity="1.000000" fill-rule="nonzero"/>
	<g opacity="0.300000">
		<g opacity="0.300000">
			<path id="Vector" d="M192.59 110.82C192.43 110.59 192.22 110.41 191.97 110.3C191.72 110.19 191.44 110.14 191.17 110.17C190.9 110.21 190.64 110.31 190.42 110.48C190.21 110.64 190.04 110.87 189.94 111.12L168.67 151.24L168.67 160.29C168.67 161.37 169.46 161.81 170.37 161.27L230.96 126.51C231.45 126.19 231.87 125.75 232.16 125.24C232.46 124.73 232.63 124.16 232.67 123.57L232.67 103.54L221.16 83.24C220.52 82.1 219.63 82.17 219.16 83.39L203.84 123.72L192.59 110.82Z" fill="#00564C" fill-opacity="1.000000" fill-rule="nonzero"/>
		</g>
	</g>
	<path id="Vector" d="M175.04 113.31C180.38 110.27 184.72 102.85 184.72 96.75C184.72 93.62 183.58 91.48 181.78 90.49L170.35 97.04C169.85 97.36 169.44 97.79 169.15 98.3C168.85 98.81 168.68 99.38 168.65 99.97L168.65 114.16C170.35 114.92 172.58 114.69 175.04 113.31Z" fill="#37474F" fill-opacity="1.000000" fill-rule="nonzero"/>
	<g opacity="0.600000">
		<g opacity="0.600000">
			<path id="Vector" d="M175.04 113.31C180.38 110.27 184.72 102.85 184.72 96.75C184.72 93.62 183.58 91.48 181.78 90.49L170.35 97.04C169.85 97.36 169.44 97.79 169.15 98.3C168.85 98.81 168.68 99.38 168.65 99.97L168.65 114.16C170.35 114.92 172.58 114.69 175.04 113.31Z" fill="#FFFFFF" fill-opacity="1.000000" fill-rule="nonzero"/>
		</g>
	</g>
	<path id="Vector" d="M170.35 179.62L230.93 144.88C231.88 144.34 232.64 144.72 232.64 145.74C232.6 146.31 232.42 146.86 232.12 147.35C231.83 147.83 231.42 148.25 230.93 148.55L170.35 183.29C169.4 183.83 168.65 183.45 168.65 182.43C168.69 181.86 168.86 181.31 169.16 180.82C169.46 180.33 169.86 179.92 170.35 179.62Z" fill="#37474F" fill-opacity="1.000000" fill-rule="nonzero"/>
	<g opacity="0.600000">
		<g opacity="0.600000">
			<path id="Vector" d="M170.35 179.62L230.93 144.88C231.88 144.34 232.64 144.72 232.64 145.74C232.6 146.31 232.42 146.86 232.12 147.35C231.83 147.83 231.42 148.25 230.93 148.55L170.35 183.29C169.4 183.83 168.65 183.45 168.65 182.43C168.69 181.86 168.86 181.31 169.16 180.82C169.46 180.33 169.86 179.92 170.35 179.62Z" fill="#FFFFFF" fill-opacity="1.000000" fill-rule="nonzero"/>
		</g>
	</g>
	<path id="Vector" d="M170.35 186.96L230.93 152.24C231.88 151.7 232.64 152.08 232.64 153.1C232.6 153.67 232.42 154.22 232.12 154.71C231.83 155.2 231.42 155.61 230.93 155.91L170.35 190.65C169.4 191.19 168.65 190.81 168.65 189.79C168.69 189.22 168.86 188.66 169.16 188.17C169.45 187.68 169.86 187.26 170.35 186.96Z" fill="#37474F" fill-opacity="1.000000" fill-rule="nonzero"/>
	<g opacity="0.600000">
		<g opacity="0.600000">
			<path id="Vector" d="M170.35 186.96L230.93 152.24C231.88 151.7 232.64 152.08 232.64 153.1C232.6 153.67 232.42 154.22 232.12 154.71C231.83 155.2 231.42 155.61 230.93 155.91L170.35 190.65C169.4 191.19 168.65 190.81 168.65 189.79C168.69 189.22 168.86 188.66 169.16 188.17C169.45 187.68 169.86 187.26 170.35 186.96Z" fill="#FFFFFF" fill-opacity="1.000000" fill-rule="nonzero"/>
		</g>
	</g>
	<path id="Vector" d="M179.69 64.35L222.91 39.58C224.24 38.8 225.28 39.44 225.28 40.95C225.24 41.77 225 42.57 224.59 43.28C224.18 44 223.6 44.6 222.91 45.05L179.7 69.74C178.38 70.53 177.34 69.9 177.34 68.41C177.38 67.6 177.62 66.81 178.03 66.1C178.44 65.39 179.01 64.79 179.69 64.35Z" fill="#FAFAFA" fill-opacity="1.000000" fill-rule="nonzero"/>
	<path id="Vector" d="M306.68 111.31L309.74 116.89L304.98 120.95L300.6 114.07L306.68 111.31Z" fill="#F28F8F" fill-opacity="1.000000" fill-rule="nonzero"/>
	<path id="Vector" d="M295.18 98.88C298.22 98.88 301.57 100 302.72 102.37L307.44 112.11C307.44 112.11 304.76 116.02 300.49 115.74L295.18 98.88Z" fill="#E0E0E0" fill-opacity="1.000000" fill-rule="nonzero"/>
	<path id="Vector" d="M306.44 117.75C307.33 116.11 307.55 116.03 308.08 115.67C308.61 115.31 311.85 114.84 313.2 114.72C314.78 114.59 315.35 114.88 314.91 116.23C313.7 119.64 312.21 122.95 310.47 126.13C310.04 126.69 309.96 127.21 308.17 127.39C306.51 127.54 304.42 127.64 303.81 127.67C303.2 127.7 302.35 127.86 302.89 126.06C303.59 124.03 304.41 122.04 305.33 120.09C306.01 118.6 306.44 117.75 306.44 117.75Z" fill="#37474F" fill-opacity="1.000000" fill-rule="nonzero"/>
	<path id="Vector" d="M270.95 173.1C270.16 172.71 269.71 173.67 269.03 174.43C268.44 175 267.98 175.68 267.68 176.44C267.51 177.34 268.34 178.78 269.25 179.57C270.17 180.35 271.22 180.92 271.55 182.64C271.64 183.43 271.95 184.18 272.44 184.8C272.94 185.43 273.6 185.9 274.36 186.16C276.33 187.01 278.97 186.73 279.87 186.16C280.93 185.48 279.96 184.73 278.48 182.62C276.54 179.86 275.03 177.92 275.03 175.32L270.95 173.1Z" fill="#263238" fill-opacity="1.000000" fill-rule="nonzero"/>
	<path id="Vector" d="M272.5 170.84L270.92 173.19C270.58 173.67 270.45 174.26 270.55 174.84C270.65 175.42 270.98 175.93 271.46 176.27L271.51 176.31C271.99 176.6 272.56 176.71 273.12 176.62C273.67 176.53 274.18 176.25 274.56 175.83L277.04 173.14L272.5 170.84Z" fill="#FFA8A7" fill-opacity="1.000000" fill-rule="nonzero"/>
	<path id="Vector" d="M301.75 125.59C301.86 128.55 301.01 140.5 298.96 145.78C296.9 151.06 295.71 154.34 295.07 155.45C294.42 156.55 275.78 174.56 275.78 174.56C275.78 174.56 272.63 174.33 272.12 171.29C272.12 171.29 279.75 158.4 281.41 155.75C283.06 153.11 288.92 149.06 288.92 149.06L288.39 125.93L301.75 125.59Z" fill="#37474F" fill-opacity="1.000000" fill-rule="nonzero"/>
	<path id="Vector" d="M274.15 122.71C274.15 122.21 275.72 116.36 276.51 113.66L282.28 115.63L280.93 119.89L275.85 125.11C275.31 125 274.83 124.69 274.51 124.25C274.2 123.8 274.07 123.25 274.15 122.71Z" fill="#FFA8A7" fill-opacity="1.000000" fill-rule="nonzero"/>
	<path id="Vector" d="M301.59 187.64L297.65 188.53L296.34 182.83L300.28 181.94L301.59 187.64Z" fill="#FFA8A7" fill-opacity="1.000000" fill-rule="evenodd"/>
	<path id="Vector" d="M301.75 125.59L282.85 125.59C282.44 128.33 282.2 131.1 282.14 133.87C281.99 142.01 289.62 156.78 289.62 156.78C289.25 160.07 289.41 163.4 290.1 166.63C291.77 173.11 296.33 184.09 296.33 184.09C296.33 184.09 299.19 184.49 300.6 182.85C300.6 182.85 298.07 160.58 297.4 154.88C296.67 148.7 294.78 137.42 294.78 137.42C296.02 136.19 297.15 134.84 298.15 133.4C299.91 131.08 301.13 128.41 301.75 125.58L301.75 125.59Z" fill="#37474F" fill-opacity="1.000000" fill-rule="nonzero"/>
	<path id="Vector" d="M288.94 99.04C285.32 99.91 280.38 101.04 278.95 104.93C277.52 108.83 275.47 115.74 275.47 115.74C276.26 117.11 280.63 118.24 282.15 117.45L282.86 115.1L282.86 125.57C285.69 128.64 295.57 130.06 301.76 125.57L301.76 106.01C301.76 102.88 300.01 99.13 295.18 98.85L288.94 99.04Z" fill="#11B5E4" fill-opacity="1.000000" fill-rule="nonzero"/>
	<path id="Vector" d="M282.86 115.13L284.68 109.44L282.86 117.67L282.86 115.13Z" fill="#E0E0E0" fill-opacity="1.000000" fill-rule="nonzero"/>
	<path id="Vector" d="M287.57 83.06C287.25 83.02 286.92 83.06 286.61 83.17C286.31 83.28 286.03 83.45 285.79 83.68C285.01 84.47 285.19 85.9 285.79 89.21L288.16 89.47L287.57 83.06Z" fill="#263238" fill-opacity="1.000000" fill-rule="nonzero"/>
	<path id="Vector" d="M301.37 82.1C301.86 82.11 302.36 82.02 302.82 81.83C303.54 81.42 303.73 82.24 303.33 82.95C303.07 83.46 302.68 83.89 302.2 84.21C301.72 84.53 301.16 84.72 300.59 84.76C300.59 84.66 299.91 82.93 299.91 82.93L301.37 82.1Z" fill="#263238" fill-opacity="1.000000" fill-rule="nonzero"/>
	<path id="Vector" d="M288.69 89.47C288.34 89.68 287.84 89.01 287.4 88.57C287.23 88.37 287.02 88.22 286.77 88.14C286.53 88.05 286.27 88.02 286.01 88.06C285.76 88.1 285.52 88.21 285.31 88.37C285.11 88.53 284.95 88.74 284.85 88.97C284.13 90.47 285.76 92.48 286.72 93.13C286.99 93.37 287.32 93.51 287.68 93.54C288.03 93.57 288.38 93.49 288.69 93.31L288.94 99.06C289.36 99.98 290.01 100.78 290.82 101.39C291.63 102.01 292.59 102.41 293.59 102.57C297 103.02 296.29 100.22 295.17 98.88L295.17 96.79C296.02 96.97 296.9 97.01 297.76 96.91C298.2 96.8 299.26 95.53 299.94 94.1C301.4 91.25 301.72 87.97 300.85 84.89C299.63 79.74 294.06 79.58 290.74 81.66C287.43 83.73 288.69 89.47 288.69 89.47Z" fill="#FFA8A7" fill-opacity="1.000000" fill-rule="nonzero"/>
	<path id="Vector" d="M288.69 90.06C288.51 90.06 287.84 88.96 287.4 88.57C286.8 88.02 287.57 83.09 287.57 83.09C287.41 82.56 287.37 82 287.48 81.45C287.58 80.91 287.82 80.39 288.17 79.96C289.36 78.71 291.68 78.92 293.37 78.87C295.46 78.87 297.52 78.46 299.44 77.65C301.85 76.61 302.03 76.49 302.32 77.54C302.55 78.41 302.58 79.32 302.41 80.2C302.23 81.08 301.85 81.9 301.3 82.61L300.51 83.88C300.51 83.88 299.78 84.49 297.53 84.76C295.29 85.04 291.46 83.83 290.98 83.77C290.32 83.68 290.19 84.31 289.84 86.02C289.54 87.5 289.29 90.05 288.69 90.06Z" fill="#263238" fill-opacity="1.000000" fill-rule="nonzero"/>
	<path id="Vector" d="M287.58 83.45L285.46 82.32C285.52 82.18 285.62 82.05 285.74 81.95C285.85 81.85 285.99 81.77 286.13 81.72C286.28 81.67 286.43 81.65 286.59 81.66C286.74 81.67 286.89 81.72 287.03 81.78C287.32 81.94 287.54 82.19 287.65 82.51C287.75 82.82 287.73 83.16 287.58 83.45Z" fill="#263238" fill-opacity="1.000000" fill-rule="nonzero"/>
	<path id="Vector" d="M295.17 96.79C293.72 96.51 292.3 96.11 290.92 95.58C290.28 95.24 289.75 94.72 289.4 94.08C289.57 94.72 289.86 95.32 290.27 95.84C291.06 96.87 295.17 97.62 295.17 97.62L295.17 96.79Z" fill="#F28F8F" fill-opacity="1.000000" fill-rule="nonzero"/>
	<path id="Vector" d="M295.27 89.36C295.27 89.53 295.21 89.7 295.09 89.82C294.97 89.94 294.81 90.01 294.64 90.01C294.56 90.01 294.47 89.99 294.4 89.96C294.32 89.92 294.25 89.88 294.19 89.81C294.13 89.75 294.08 89.68 294.05 89.6C294.02 89.52 294.01 89.44 294.01 89.36C294.01 89.19 294.07 89.02 294.19 88.9C294.31 88.78 294.47 88.71 294.64 88.71C294.73 88.71 294.81 88.73 294.89 88.76C294.96 88.8 295.04 88.84 295.09 88.91C295.15 88.97 295.2 89.04 295.23 89.12C295.26 89.2 295.27 89.28 295.27 89.36Z" fill="#263238" fill-opacity="1.000000" fill-rule="nonzero"/>
	<path id="Vector" d="M294.6 86.99L293.26 87.78C293.2 87.69 293.17 87.59 293.16 87.48C293.15 87.38 293.16 87.27 293.19 87.17C293.22 87.07 293.26 86.98 293.33 86.9C293.4 86.82 293.48 86.75 293.57 86.7C293.75 86.61 293.95 86.59 294.14 86.65C294.33 86.7 294.5 86.82 294.6 86.99Z" fill="#263238" fill-opacity="1.000000" fill-rule="nonzero"/>
	<path id="Vector" d="M294.89 93.57L296.33 94.11C296.26 94.29 296.11 94.45 295.93 94.53C295.75 94.62 295.54 94.64 295.35 94.57C295.25 94.54 295.16 94.48 295.09 94.41C295.01 94.34 294.95 94.26 294.91 94.17C294.86 94.07 294.84 93.97 294.84 93.87C294.83 93.76 294.85 93.66 294.89 93.57Z" fill="#F28F8F" fill-opacity="1.000000" fill-rule="nonzero"/>
	<path id="Vector" d="M300.9 87.52L299.67 86.58C299.79 86.42 299.97 86.32 300.17 86.28C300.37 86.25 300.57 86.3 300.74 86.41C300.82 86.48 300.89 86.55 300.95 86.64C301 86.73 301.03 86.83 301.05 86.93C301.06 87.04 301.06 87.14 301.03 87.24C301.01 87.34 300.96 87.44 300.9 87.52Z" fill="#263238" fill-opacity="1.000000" fill-rule="nonzero"/>
	<path id="Vector" d="M300.52 89.18C300.52 89.35 300.45 89.52 300.34 89.64C300.22 89.76 300.06 89.83 299.89 89.83C299.8 89.83 299.72 89.81 299.64 89.78C299.56 89.74 299.49 89.7 299.44 89.63C299.38 89.57 299.33 89.5 299.3 89.42C299.27 89.34 299.26 89.26 299.26 89.18C299.26 89.01 299.32 88.84 299.44 88.72C299.56 88.6 299.72 88.53 299.89 88.53C300.06 88.53 300.22 88.61 300.34 88.73C300.46 88.85 300.52 89.01 300.52 89.18Z" fill="#263238" fill-opacity="1.000000" fill-rule="nonzero"/>
	<path id="Vector" d="M297.55 89.11L296.96 92.83L299.03 92.59L297.55 89.11Z" fill="#F28F8F" fill-opacity="1.000000" fill-rule="nonzero"/>
	<path id="Vector" d="M301.14 185.74L301.01 185.18C301.42 185.25 303.2 188.17 304.95 189.44C306.87 190.82 308.54 191.64 309.39 192.27C310.54 193.11 308.88 194.82 306.06 194.98C304.65 195.05 302.12 194.63 301.33 193.88C300.54 193.14 299.97 191.91 299.34 191.38C298.71 190.85 297.46 190.38 297.03 189.7C296.8 189.02 296.71 188.3 296.78 187.59C296.78 186.86 296.84 186.03 297.09 186.07L297.19 186.49C297.92 186.86 298.73 187.04 299.55 187.01C300.23 186.98 301.47 186.83 301.14 185.74Z" fill="#263238" fill-opacity="1.000000" fill-rule="nonzero"/>
	<path id="Vector" d="M296.91 151.09C296.91 151.09 295.23 139.25 294.78 137.42C296.13 136.69 297.38 135.8 298.52 134.77C297.74 135.88 296.88 136.94 295.96 137.94L296.91 151.09Z" fill="#263238" fill-opacity="1.000000" fill-rule="nonzero"/>
	<path id="Vector" d="M286.79 150.67C286.79 150.67 288.8 155.66 289.62 156.76C289.62 156.76 289.42 160.56 289.44 161.33L288.39 162.25C288.36 160.53 288.52 158.81 288.86 157.12C287.93 155.05 287.24 152.89 286.79 150.67Z" fill="#263238" fill-opacity="1.000000" fill-rule="nonzero"/>
	<path id="Vector" d="M280.95 119.89C280.95 119.89 296.84 121.58 298.71 121.01C300.57 120.44 303.08 118.6 304.39 117.82C305.71 117.04 306.71 116.99 306.71 117.31C306.71 117.63 305.56 119.37 305.3 120.1C305.04 120.83 306.54 120.83 308.51 120.38C310.49 119.92 311.28 118.81 311.79 119.45C312.3 120.09 310.69 123.36 307.42 124.59C304.14 125.82 301.71 125 299 125.12C296.29 125.23 279.6 126.29 275.84 125.12C275.74 124.52 275.81 123.9 276.04 123.34C276.27 122.78 276.65 122.29 277.14 121.93C278.27 121.03 279.57 120.34 280.95 119.89Z" fill="#FFA8A7" fill-opacity="1.000000" fill-rule="nonzero"/>
	<path id="Vector" d="M192.87 195.27C192.91 194.76 193.88 189.28 194.54 186.22L201.02 188.19L199.98 192.48L194.6 197.66C194.05 197.56 193.57 197.25 193.25 196.81C192.93 196.36 192.79 195.81 192.87 195.27Z" fill="#FFA8A7" fill-opacity="1.000000" fill-rule="nonzero"/>
	<path id="Vector" d="M207.08 148.91L210.23 148.91C212.56 148.91 214.79 149.82 216.43 151.46C218.07 153.09 219 155.3 219 157.61L219 179.8L198.31 179.8L198.31 157.61C198.31 155.3 199.24 153.09 200.88 151.46C202.53 149.82 204.76 148.91 207.08 148.91Z" fill="#263238" fill-opacity="1.000000" fill-rule="nonzero"/>
	<path id="Vector" d="M224.23 183.76L227.29 189.34L222.52 193.39L218.16 186.51L224.23 183.76Z" fill="#F28F8F" fill-opacity="1.000000" fill-rule="nonzero"/>
	<path id="Vector" d="M212.73 171.32C215.77 171.32 219.12 172.45 220.27 174.82L224.99 184.55C224.99 184.55 222.31 188.46 218.05 188.19L212.73 171.32Z" fill="#455A64" fill-opacity="1.000000" fill-rule="nonzero"/>
	<path id="Vector" d="M215.19 267.84C216.23 269.23 217.41 270.51 218.7 271.68C218.91 271.85 219.07 272.06 219.18 272.3C219.31 272.71 219.49 273.69 217.67 274.09C216.75 274.29 215.79 274.29 214.87 274.09C213.94 273.89 213.08 273.5 212.32 272.94C210.99 271.87 211.15 270 209.92 268.77C209 267.87 207.77 267.52 207.08 266.43C206.6 265.64 206.86 264.71 207.29 263.56C207.73 262.41 208.03 261.37 208.45 261.51L208.31 262.09C208.74 263.01 211.46 263.59 212.79 263.15C213.51 264.75 214.31 266.32 215.19 267.84Z" fill="#263238" fill-opacity="1.000000" fill-rule="nonzero"/>
	<path id="Vector" d="M216.26 269.18C215.89 268.75 215.52 268.31 215.19 267.84C214.49 266.68 213.87 265.49 213.32 264.26C212.96 263.53 212.9 262.69 213.15 261.91L214.04 258.9L209.32 257.82L208.29 262.04C208.07 263 208.77 263.95 210.06 265.35C211.34 266.74 212.82 269.81 214 270.68C215.17 271.54 216.13 271.63 216.73 271.33C217.33 271.03 217.48 270.76 216.26 269.18Z" fill="#FFA8A7" fill-opacity="1.000000" fill-rule="nonzero"/>
	<path id="Vector" d="M202.47 270.49L202.47 269.82C202.74 270.6 203.95 273.94 205.8 275.61C207.27 276.93 209.27 278.47 209.77 279.95C210.28 281.43 206.99 282.01 205.62 281.77C203.79 281.46 202.12 280.57 200.85 279.23C200.06 278.26 199.56 277.12 198.99 276.36C198.42 275.6 197.13 274.8 196.83 273.89C196.74 273.07 196.83 272.24 197.09 271.47C197.31 270.68 197.54 269.75 197.83 269.82L197.83 270.37C198.5 270.89 199.33 271.17 200.19 271.15C200.83 271.15 202.48 271 202.47 270.49Z" fill="#263238" fill-opacity="1.000000" fill-rule="nonzero"/>
	<path id="Vector" d="M207.13 276.78L205.8 275.6C204.56 274.3 203.6 272.78 202.96 271.1C202.64 270.33 202.47 269.51 202.47 268.67L202.47 266.04L197.83 266.04L197.83 270.32L197.83 270.44C198.05 271.4 200.19 273.95 201.39 275.62C202.38 277.05 203.89 278.05 205.6 278.4C207.37 278.64 208.29 278.09 207.13 276.78Z" fill="#FFA8A7" fill-opacity="1.000000" fill-rule="nonzero"/>
	<path id="Vector" d="M198.75 198.7C195.15 206.52 198.88 234.07 198.88 234.07C198.77 235.35 197.31 237.84 196.77 243.46C196.12 250.06 197.78 266.63 197.78 266.63C198.49 267.04 199.29 267.28 200.12 267.31C200.94 267.34 201.76 267.18 202.5 266.82C202.5 266.82 206.94 241.85 207.77 235.29L210.44 214.23L214.37 234.78C213.32 236.39 212.45 238.11 211.78 239.91C210.84 242.82 208.94 259.35 208.94 259.35C209.58 259.94 210.35 260.37 211.18 260.61C212.01 260.85 212.89 260.9 213.74 260.76C213.74 260.76 222.84 238.07 223.25 233.44C223.5 230.66 219.42 197.59 219.42 197.59L198.75 198.7Z" fill="#37474F" fill-opacity="1.000000" fill-rule="nonzero"/>
	<path id="Vector" d="M210.4 214.2L211.04 209.68C211.04 209.68 215.99 208.66 218.23 206.55C216.68 208.35 214.66 209.69 212.38 210.41L211.72 214.78L212.51 224.89L210.4 214.2Z" fill="#263238" fill-opacity="1.000000" fill-rule="nonzero"/>
	<path id="Vector" d="M205.14 171.53C203.82 171.85 202.58 172.46 201.52 173.32C200.47 174.18 199.62 175.26 199.04 176.49C198.19 178.36 198.11 180.48 198.82 182.41L201.99 191.66C201.99 191.66 200.49 195.28 198.73 198.7C206.82 203.18 216.91 200.83 219.35 197.56C219.45 196.86 219.31 193.73 219.5 190.18C219.71 186.39 220.24 182.1 219.64 179.76C218.52 175.4 216.43 171.32 212.28 171.32L205.14 171.53Z" fill="#F03E3D" fill-opacity="1.000000" fill-rule="nonzero"/>
	<path id="Vector" d="M203.91 171.53C201.15 171.91 197.1 172.47 195.7 178.98C194.3 185.49 193.88 187.87 193.88 187.87C194.78 188.75 195.85 189.43 197.03 189.88C198.2 190.33 199.46 190.53 200.72 190.47L202.14 185.46L203.91 171.53Z" fill="#455A64" fill-opacity="1.000000" fill-rule="nonzero"/>
	<path id="Vector" d="M205.47 177.02C205 177.02 204.53 176.93 204.09 176.75C203.65 176.57 203.25 176.3 202.91 175.97C202.58 175.64 202.31 175.24 202.13 174.8C201.94 174.37 201.85 173.9 201.85 173.42L201.85 162.95L205.47 162.95L205.47 177.02Z" fill="#263238" fill-opacity="1.000000" fill-rule="nonzero"/>
	<path id="Vector" d="M215.6 153.06C216.7 153.7 218.05 156.43 217.91 162.15C217.8 167 216.22 168.21 215.42 168.55C214.63 168.89 213.1 168.68 211.61 168.43L211.61 171.34C211.61 171.34 213.67 173.69 213.54 175.06C213.41 176.43 210.56 176.71 208.63 175.4C207.39 174.51 206.32 173.39 205.48 172.12L205.48 165.08C205.32 165.27 205.13 165.43 204.91 165.54C204.69 165.66 204.45 165.73 204.21 165.75C203.96 165.78 203.71 165.75 203.47 165.68C203.24 165.6 203.02 165.49 202.83 165.33C201.18 164.24 201.12 161.56 202.08 160.63C203.04 159.71 205.1 159.98 205.48 161.31C207.43 161.22 209.32 160.66 211 159.66C212.24 159 213.3 158.06 214.1 156.91C214.9 155.77 215.42 154.45 215.6 153.06Z" fill="#FFA8A7" fill-opacity="1.000000" fill-rule="nonzero"/>
	<path id="Vector" d="M212.46 160.94C212.46 161.06 212.43 161.18 212.36 161.28C212.3 161.38 212.2 161.46 212.09 161.5C211.98 161.55 211.86 161.57 211.74 161.55C211.62 161.53 211.51 161.47 211.43 161.39C211.34 161.31 211.28 161.2 211.25 161.09C211.22 160.97 211.23 160.85 211.27 160.74C211.31 160.62 211.38 160.53 211.48 160.45C211.58 160.38 211.69 160.34 211.81 160.34C211.9 160.33 211.98 160.35 212.06 160.38C212.13 160.4 212.2 160.45 212.26 160.5C212.32 160.56 212.37 160.63 212.41 160.7C212.44 160.78 212.46 160.86 212.46 160.94Z" fill="#263238" fill-opacity="1.000000" fill-rule="nonzero"/>
	<path id="Vector" d="M212.63 165.05L214.05 165.5C214.03 165.6 213.98 165.68 213.92 165.76C213.86 165.84 213.78 165.9 213.7 165.95C213.61 166 213.51 166.03 213.42 166.04C213.32 166.05 213.22 166.04 213.12 166.01C212.93 165.94 212.77 165.81 212.68 165.63C212.59 165.45 212.57 165.24 212.63 165.05Z" fill="#F28F8F" fill-opacity="1.000000" fill-rule="nonzero"/>
	<path id="Vector" d="M217.49 159.06L216.26 158.21C216.31 158.13 216.38 158.05 216.46 158C216.54 157.94 216.63 157.9 216.73 157.88C216.82 157.86 216.92 157.86 217.02 157.88C217.12 157.9 217.21 157.94 217.29 158C217.46 158.11 217.57 158.29 217.61 158.49C217.65 158.69 217.6 158.89 217.49 159.06Z" fill="#263238" fill-opacity="1.000000" fill-rule="nonzero"/>
	<path id="Vector" d="M217.21 160.49C217.22 160.66 217.17 160.82 217.06 160.95C216.95 161.07 216.79 161.15 216.63 161.16C216.46 161.16 216.3 161.1 216.18 160.99C216.06 160.87 215.99 160.72 215.98 160.56C215.98 160.48 215.99 160.39 216.02 160.32C216.04 160.24 216.09 160.17 216.14 160.11C216.19 160.06 216.26 160.01 216.33 159.97C216.4 159.94 216.48 159.92 216.56 159.91C216.65 159.91 216.73 159.92 216.8 159.95C216.88 159.98 216.95 160.02 217.01 160.07C217.07 160.12 217.12 160.19 217.15 160.26C217.19 160.33 217.21 160.41 217.21 160.49Z" fill="#263238" fill-opacity="1.000000" fill-rule="nonzero"/>
	<path id="Vector" d="M214.31 160.15L214.41 163.82L216.36 163.22L214.31 160.15Z" fill="#F28F8F" fill-opacity="1.000000" fill-rule="nonzero"/>
	<path id="Vector" d="M211.61 168.43C210.03 168.23 206.81 167.31 206.3 166.04C206.5 166.68 206.9 167.25 207.44 167.66C208.4 168.48 211.61 169.41 211.61 169.41L211.61 168.43Z" fill="#F28F8F" fill-opacity="1.000000" fill-rule="nonzero"/>
	<path id="Vector" d="M223.98 190.2C224.87 188.55 225.1 188.48 225.63 188.12C226.17 187.76 229.4 187.28 230.75 187.16C232.33 187.03 232.9 187.32 232.46 188.68C231.23 192.09 229.74 195.4 227.99 198.58C227.56 199.14 227.47 199.66 225.69 199.83C223.91 200 221.94 200.08 221.32 200.12C220.71 200.16 219.86 200.31 220.41 198.51C221.11 196.47 221.92 194.48 222.84 192.54C223.56 191.06 223.98 190.2 223.98 190.2Z" fill="#37474F" fill-opacity="1.000000" fill-rule="nonzero"/>
	<path id="Vector" d="M199.98 192.51C199.98 192.51 214.39 194.02 216.26 193.45C218.12 192.88 220.63 191.03 221.98 190.26C223.32 189.49 224.29 189.43 224.29 189.74C224.29 190.06 223.14 191.82 222.87 192.54C222.61 193.26 224.12 193.26 226.09 192.81C228.06 192.36 228.85 191.25 229.37 191.89C229.89 192.53 228.28 195.8 225 197.03C221.72 198.26 219.29 197.44 216.58 197.55C213.87 197.66 198.35 198.87 194.6 197.69C194.5 197.09 194.57 196.48 194.79 195.92C195.02 195.36 195.4 194.87 195.9 194.51C197.11 193.58 198.5 192.9 199.98 192.51Z" fill="#FFA8A7" fill-opacity="1.000000" fill-rule="nonzero"/>
	<path id="Vector" d="M201.02 188.84C201.64 187.17 202.17 185.48 202.6 183.76C202.6 183.76 202.34 187.54 201.27 189.56L201.02 188.84Z" fill="#37474F" fill-opacity="1.000000" fill-rule="nonzero"/>
	<path id="Vector" d="M84.45 142.31L81.89 147.8L86.66 151.86L90.78 144.95L84.45 142.31Z" fill="#F28F8F" fill-opacity="1.000000" fill-rule="nonzero"/>
	<path id="Vector" d="M96.2 129.75C93.16 129.75 89.82 130.88 88.67 133.24C87.52 135.61 83.94 142.98 83.94 142.98C83.94 142.98 86.63 146.9 90.89 146.61L96.2 129.75Z" fill="#37474F" fill-opacity="1.000000" fill-rule="nonzero"/>
	<path id="Vector" d="M105.18 216.89L109.39 216.89L109.39 222.97L105.18 222.97L105.18 216.89Z" fill="#FFA8A7" fill-opacity="1.000000" fill-rule="evenodd"/>
	<path id="Vector" d="M90.4 209.51L94.6 209.37L94.81 215.44L90.61 215.59L90.4 209.51Z" fill="#FFA8A7" fill-opacity="1.000000" fill-rule="evenodd"/>
	<path id="Vector" d="M109.11 157.54C109.11 161.53 109.63 187.32 109.63 187.32C109.73 188.46 110.81 190.58 110.57 194.99C110.26 200.97 109.74 217.59 109.74 217.59C109.74 217.59 107.77 219.53 105.01 217.59C105.01 217.59 101.2 195 100.45 189.07C99.79 183.9 98.68 169.84 98.68 169.84L94.78 186.39C94.78 186.39 95.46 190.3 95.62 193.02C95.78 195.74 94.9 211.63 94.9 211.63C94.22 212.06 93.44 212.29 92.64 212.32C91.84 212.35 91.04 212.18 90.33 211.81C90.33 211.81 86.96 188.63 86.52 186.15C86.09 183.67 89.48 157.54 89.48 157.54L109.11 157.54Z" fill="#37474F" fill-opacity="1.000000" fill-rule="nonzero"/>
	<path id="Vector" d="M102.78 129.94L102.84 129.94C104.65 130.39 106.25 131.42 107.39 132.88C108.53 134.34 109.15 136.14 109.15 137.99L109.15 157.54C106.2 160.73 95.93 162.24 89.45 157.54L89.45 137.2C89.45 133.96 91.27 130.05 96.29 129.75L102.78 129.94Z" fill="#02897A" fill-opacity="1.000000" fill-rule="nonzero"/>
	<path id="Vector" d="M104.2 113.3C104.54 113.26 104.88 113.3 105.2 113.41C105.52 113.52 105.81 113.71 106.05 113.94C106.84 114.73 106.68 116.25 106.05 119.69L103.59 119.97L104.2 113.3Z" fill="#263238" fill-opacity="1.000000" fill-rule="nonzero"/>
	<path id="Vector" d="M89.85 112.34C89.33 112.34 88.81 112.24 88.32 112.04C87.53 111.61 87.37 112.46 87.78 113.19C88.05 113.72 88.46 114.18 88.96 114.51C89.46 114.84 90.04 115.03 90.63 115.08C90.63 114.98 91.34 113.18 91.34 113.18L89.85 112.34Z" fill="#263238" fill-opacity="1.000000" fill-rule="nonzero"/>
	<path id="Vector" d="M103.04 119.97C103.41 120.19 103.93 119.49 104.38 119.02C104.56 118.82 104.78 118.66 105.04 118.57C105.29 118.48 105.56 118.45 105.83 118.5C106.1 118.54 106.35 118.65 106.56 118.82C106.77 118.99 106.93 119.2 107.04 119.45C107.82 121.02 106.08 123.1 105.09 123.78C104.81 124.02 104.46 124.17 104.09 124.2C103.73 124.23 103.36 124.15 103.04 123.96L102.78 129.94C102.34 130.89 101.67 131.73 100.82 132.37C99.98 133 98.99 133.42 97.94 133.59C94.4 134.07 95.13 131.17 96.29 129.75L96.29 127.57C95.41 127.76 94.5 127.81 93.6 127.71C93.14 127.59 92.03 126.27 91.33 124.79C90.54 123.13 89.21 120.19 90.39 115.2C91.66 109.85 97.48 109.68 100.9 111.84C104.32 114 103.04 119.97 103.04 119.97Z" fill="#FFA8A7" fill-opacity="1.000000" fill-rule="nonzero"/>
	<path id="Vector" d="M103.04 120.58C103.23 120.58 103.92 119.44 104.38 119.01C105.01 118.44 104.2 113.29 104.2 113.29C104.2 113.29 104.84 111.34 103.59 110.04C102.35 108.74 99.93 108.96 98.16 108.9C96 108.91 93.85 108.48 91.86 107.64C89.36 106.56 89.17 106.43 88.86 107.52C88.62 108.42 88.59 109.37 88.77 110.28C88.96 111.2 89.35 112.06 89.93 112.8L91.17 113.25C91.17 113.25 91.84 113.84 94.18 114.13C96.34 114.28 98.5 114.24 100.65 114.01C101.33 113.91 101.44 114.56 101.84 116.35C102.16 117.92 102.43 120.57 103.04 120.58Z" fill="#263238" fill-opacity="1.000000" fill-rule="nonzero"/>
	<path id="Vector" d="M104.19 113.7L106.4 112.52C106.33 112.37 106.24 112.24 106.11 112.13C105.99 112.03 105.84 111.94 105.69 111.89C105.53 111.84 105.37 111.82 105.2 111.84C105.04 111.85 104.88 111.9 104.74 111.97C104.44 112.14 104.22 112.41 104.12 112.73C104.01 113.05 104.04 113.4 104.19 113.7Z" fill="#263238" fill-opacity="1.000000" fill-rule="nonzero"/>
	<path id="Vector" d="M96.3 127.57C97.81 127.29 99.29 126.87 100.72 126.31C101.39 125.96 101.94 125.42 102.29 124.75C102.12 125.41 101.82 126.04 101.4 126.58C100.56 127.64 96.29 128.42 96.29 128.42L96.3 127.57Z" fill="#F28F8F" fill-opacity="1.000000" fill-rule="nonzero"/>
	<path id="Vector" d="M97.09 119.16C97.09 119.29 97.13 119.41 97.21 119.52C97.28 119.62 97.39 119.71 97.51 119.75C97.63 119.8 97.76 119.81 97.89 119.78C98.02 119.75 98.13 119.69 98.22 119.6C98.31 119.5 98.37 119.39 98.4 119.26C98.42 119.13 98.41 119 98.35 118.88C98.3 118.76 98.22 118.66 98.11 118.59C98 118.52 97.87 118.48 97.74 118.48C97.56 118.49 97.4 118.56 97.27 118.69C97.15 118.81 97.08 118.98 97.09 119.16Z" fill="#263238" fill-opacity="1.000000" fill-rule="nonzero"/>
	<path id="Vector" d="M97.78 116.7L99.19 117.48C99.29 117.29 99.31 117.07 99.25 116.86C99.18 116.65 99.05 116.48 98.86 116.37C98.77 116.32 98.66 116.29 98.56 116.28C98.46 116.27 98.35 116.28 98.25 116.31C98.15 116.34 98.06 116.39 97.97 116.46C97.89 116.52 97.83 116.61 97.78 116.7Z" fill="#263238" fill-opacity="1.000000" fill-rule="nonzero"/>
	<path id="Vector" d="M97.13 123.58L95.64 124.14C95.67 124.24 95.72 124.33 95.79 124.41C95.86 124.49 95.95 124.55 96.04 124.6C96.13 124.64 96.24 124.67 96.34 124.68C96.45 124.68 96.55 124.67 96.65 124.63C96.86 124.55 97.02 124.4 97.11 124.2C97.2 124 97.21 123.78 97.13 123.58Z" fill="#F28F8F" fill-opacity="1.000000" fill-rule="nonzero"/>
	<path id="Vector" d="M91.23 117.24L92.5 116.25C92.44 116.17 92.36 116.09 92.27 116.04C92.18 115.98 92.08 115.95 91.98 115.93C91.87 115.92 91.77 115.92 91.67 115.95C91.56 115.97 91.47 116.02 91.38 116.08C91.21 116.22 91.1 116.41 91.07 116.63C91.05 116.85 91.1 117.06 91.23 117.24Z" fill="#263238" fill-opacity="1.000000" fill-rule="nonzero"/>
	<path id="Vector" d="M91.63 118.98C91.62 119.15 91.69 119.32 91.81 119.45C91.94 119.57 92.1 119.64 92.28 119.65C92.46 119.64 92.63 119.57 92.75 119.44C92.88 119.32 92.94 119.14 92.94 118.97C92.95 118.88 92.94 118.78 92.91 118.7C92.89 118.61 92.84 118.53 92.78 118.46C92.72 118.39 92.64 118.33 92.55 118.3C92.47 118.26 92.38 118.24 92.28 118.24C92.19 118.24 92.1 118.26 92.02 118.3C91.93 118.33 91.85 118.39 91.79 118.46C91.73 118.53 91.68 118.61 91.65 118.7C91.63 118.78 91.62 118.88 91.63 118.97L91.63 118.98Z" fill="#263238" fill-opacity="1.000000" fill-rule="nonzero"/>
	<path id="Vector" d="M94.97 118.36L94.75 122.28L92.7 121.58L94.97 118.36Z" fill="#F28F8F" fill-opacity="1.000000" fill-rule="nonzero"/>
	<path id="Vector" d="M105.18 220.9L105.18 220.3C104.78 220.47 103.84 224.02 102.18 225.53C100.85 226.72 99.03 228.12 98.58 229.44C98.13 230.76 101.1 231.6 102.34 231.38C103.78 231.13 106.28 230.12 106.9 229.19C107.52 228.26 107.82 226.88 108.33 226.19C108.83 225.5 110.01 224.75 110.29 223.95C110.37 223.22 110.29 222.47 110.04 221.76C109.85 221.03 109.64 220.2 109.39 220.29C109.39 220.37 109.39 220.74 109.39 220.74C108.79 221.21 108.05 221.46 107.29 221.44C106.68 221.49 105.18 221.37 105.18 220.9Z" fill="#263238" fill-opacity="1.000000" fill-rule="nonzero"/>
	<path id="Vector" d="M90.57 214.29C90.35 214.29 90.17 214.61 89.69 215.12C88.97 215.85 88.14 216.45 87.22 216.89C85.64 217.67 82.58 218.88 81.2 219.5C80.34 219.89 80.41 220.92 81.27 221.51C82.13 222.11 84.33 222.53 86.92 221.95C88.33 221.64 90.17 220.35 91.33 220.39C92.49 220.43 94.67 220.44 95.53 219.86C96.38 219.27 96.05 218.01 95.8 216.93C95.56 215.85 95.16 213.96 94.76 214.04L94.76 214.4C94.26 215.19 91.68 215.47 90.57 214.92L90.57 214.29Z" fill="#263238" fill-opacity="1.000000" fill-rule="nonzero"/>
	<path id="Vector" d="M84.95 148.63C84.06 146.98 83.84 146.91 83.3 146.55C82.77 146.19 79.53 145.71 78.18 145.6C76.61 145.46 76.03 145.75 76.47 147.11C77.69 150.52 79.18 153.83 80.91 157.01C81.34 157.57 81.43 158.08 83.21 158.25C84.99 158.43 86.96 158.51 87.58 158.55C88.19 158.58 89.04 158.73 88.49 156.93C87.79 154.9 86.98 152.91 86.06 150.96C85.41 149.49 84.95 148.63 84.95 148.63Z" fill="#37474F" fill-opacity="1.000000" fill-rule="nonzero"/>
	<path id="Vector" d="M117.24 153.59C117.2 153.08 115.66 147.24 114.87 144.54L109.11 146.51L110.46 150.76L115.53 155.98C116.07 155.87 116.55 155.57 116.87 155.12C117.18 154.68 117.31 154.13 117.24 153.59Z" fill="#FFA8A7" fill-opacity="1.000000" fill-rule="nonzero"/>
	<path id="Vector" d="M110.44 150.76C110.44 150.76 94.54 152.45 92.67 151.88C90.81 151.31 88.3 149.45 86.96 148.69C85.61 147.92 84.64 147.86 84.64 148.18C84.64 148.5 85.79 150.24 86.06 150.96C86.33 151.68 84.81 151.69 82.84 151.24C80.88 150.78 80.08 149.67 79.56 150.32C79.04 150.96 80.65 154.23 83.93 155.46C87.21 156.68 89.64 155.87 92.35 155.98C95.06 156.09 111.75 157.15 115.51 155.98C115.61 155.38 115.54 154.77 115.31 154.21C115.08 153.65 114.7 153.16 114.21 152.8C113.09 151.9 111.81 151.21 110.44 150.76Z" fill="#FFA8A7" fill-opacity="1.000000" fill-rule="nonzero"/>
	<path id="Vector" d="M104.11 130.38C106.61 131.2 111.56 131.62 113.16 136.98C114.76 142.35 115.57 145.83 115.57 145.83C114.62 147.08 110.84 148.53 109.11 147.99L104.11 130.38Z" fill="#455A64" fill-opacity="1.000000" fill-rule="nonzero"/>
	<path id="Vector" d="M109.11 147.99L107.4 141.97L109.11 150.45L109.11 147.99Z" fill="#37474F" fill-opacity="1.000000" fill-rule="nonzero"/>
	<path id="Vector" d="M73.25 160.65C73.17 160.75 72.5 161.85 72.5 161.85L69.42 166.24L66.42 170.7C66.33 170.84 66.19 170.94 66.03 171C65.88 171.05 65.71 171.05 65.55 171.01L65.34 170.94C64.3 170.55 62.74 169.9 60.67 168.96C59.01 168.18 59.1 167.95 59.1 167.67C59.07 167.44 59.07 167.22 59.1 166.99C59.43 166.35 60.48 164.75 61.89 162.72C64.4 159.11 65.6 157.5 66.35 156.46C66.46 156.31 66.61 156.2 66.79 156.16C66.98 156.11 67.17 156.13 67.33 156.21C68.68 156.65 71.41 157.82 72.85 158.4L72.91 158.4C73.68 158.81 73.26 160.62 73.25 160.65Z" fill="#37474F" fill-opacity="1.000000" fill-rule="nonzero"/>
	<path id="Vector" d="M73.33 160.51L72.54 161.85L69.53 166.32L66.38 170.68C66.29 170.81 66.15 170.92 65.99 170.97C65.84 171.03 65.67 171.03 65.51 170.98L65.3 170.91C64.26 170.53 62.7 169.88 60.63 168.93C58.97 168.15 59.06 167.93 59.06 167.64C59.03 167.42 59.03 167.19 59.06 166.97C60.63 167.66 65.62 170.01 65.78 169.92C66.18 169.73 69.56 164.35 71.35 161.6C72.25 160.23 72.65 159.66 72.93 159.19C72.98 159.13 73.02 159.06 73.04 158.99C73.06 158.92 73.07 158.84 73.06 158.77C73.04 158.7 73.02 158.62 72.98 158.56C72.94 158.5 72.88 158.44 72.82 158.4L72.75 158.4C72.93 158.5 73.08 158.63 73.2 158.79C73.32 158.95 73.39 159.14 73.42 159.34C73.51 159.52 73.55 159.73 73.53 159.93C73.51 160.14 73.44 160.34 73.33 160.51Z" fill="#37474F" fill-opacity="1.000000" fill-rule="nonzero"/>
	<g opacity="0.100000">
		<path id="Vector" d="M73.33 160.51L72.54 161.85L69.53 166.32L66.38 170.68C66.29 170.81 66.15 170.92 65.99 170.97C65.84 171.03 65.67 171.03 65.51 170.98L65.3 170.91C64.26 170.53 62.7 169.88 60.63 168.93C58.97 168.15 59.06 167.93 59.06 167.64C59.03 167.42 59.03 167.19 59.06 166.97C60.63 167.66 65.62 170.01 65.78 169.92C66.18 169.73 69.56 164.35 71.35 161.6C72.25 160.23 72.65 159.66 72.93 159.19C72.98 159.13 73.02 159.06 73.04 158.99C73.06 158.92 73.07 158.84 73.06 158.77C73.04 158.7 73.02 158.62 72.98 158.56C72.94 158.5 72.88 158.44 72.82 158.4L72.75 158.4C72.93 158.5 73.08 158.63 73.2 158.79C73.32 158.95 73.39 159.14 73.42 159.34C73.51 159.52 73.55 159.73 73.53 159.93C73.51 160.14 73.44 160.34 73.33 160.51Z" fill="#000000" fill-opacity="1.000000" fill-rule="nonzero"/>
	</g>
	<path id="Vector" d="M66.39 157.49L71.92 159.79L66.03 168.49L60.53 165.98L66.39 157.49Z" fill="#FAFAFA" fill-opacity="1.000000" fill-rule="nonzero"/>
	<path id="Vector" d="M64.84 187.8C66.35 187.37 68.63 181.79 70.35 175.45C72.07 169.11 72.97 167.71 73.03 165.72C73.08 163.72 72.94 161.1 72.94 161.1L69.95 165.45C69.82 164.61 69.55 163.8 69.16 163.04C68.78 162.26 68.05 161.64 67.46 162.11C67.15 162.36 67.98 163.43 67.8 165.83C67.78 166.78 67.88 167.74 68.08 168.67L62.52 182.05L64.84 187.8Z" fill="#FFA8A7" fill-opacity="1.000000" fill-rule="nonzero"/>
	<path id="Vector" d="M42.46 160.06C40.7 159.57 39.21 160.5 38.39 163.28C36.94 168.51 35.88 173.84 35.24 179.22C35 181.15 34.73 183.5 36.59 183.68C38.01 183.82 42.1 183.04 42.82 182.34C43.78 181.41 43.61 177.69 43.61 177.69L41.48 177.69C41.48 177.69 41.94 174.75 42.07 173.86C42.55 170.87 43.25 167.09 43.25 167.09L42.46 160.06Z" fill="#F28F8F" fill-opacity="1.000000" fill-rule="nonzero"/>
	<path id="Vector" d="M52.77 157.32L52.05 163.58L45.83 164.3L46.73 155.99L52.77 157.32Z" fill="#FFA8A7" fill-opacity="1.000000" fill-rule="nonzero"/>
	<path id="Vector" d="M39.45 148.17C39.96 142.38 43.12 140 45.56 139.42C50.49 138.28 55.36 139.92 57.38 143.34C57.84 144.41 58.08 145.56 58.08 146.72C58.08 147.89 57.84 149.04 57.38 150.11C56.31 152.54 39.47 148.16 39.47 148.16L39.45 148.17Z" fill="#263238" fill-opacity="1.000000" fill-rule="nonzero"/>
	<path id="Vector" d="M57.69 151.28C57.69 151.28 58.58 153.67 58.34 153.85C57.97 153.99 57.58 154.05 57.18 154.06L57.69 151.28Z" fill="#FFA8A7" fill-opacity="1.000000" fill-rule="nonzero"/>
	<path id="Vector" d="M55.03 143.74C56.2 144.74 58.18 146.56 57.65 151.57C57.07 156.75 55.81 158.15 54.96 158.65C54.39 158.98 51.88 158.4 50.71 157.72C49.26 156.86 46.05 154.66 45.07 151.7C43.92 148.21 44.5 144.05 47.04 142.96C48.33 142.41 49.74 142.19 51.13 142.33C52.53 142.47 53.87 142.95 55.03 143.74Z" fill="#FFA8A7" fill-opacity="1.000000" fill-rule="nonzero"/>
	<path id="Vector" d="M56.48 143.88C56.51 145.26 56.22 146.63 55.63 147.89C55.05 149.15 54.19 150.26 53.12 151.14C53.12 151.14 52.38 149.26 50.75 149.69C49.12 150.12 49.18 152.25 50.34 153.41C50.65 153.74 51.04 153.98 51.47 154.1C51.9 154.22 52.36 154.21 52.79 154.08C52.56 155.56 51.86 156.93 50.8 157.99C49.1 158.38 47.33 158.28 45.69 157.71C44.04 157.15 42.59 156.13 41.51 154.78C37.91 150.49 38.97 143.67 44.59 141.66C46.58 140.86 48.76 140.65 50.86 141.04C52.97 141.44 54.92 142.42 56.48 143.88Z" fill="#263238" fill-opacity="1.000000" fill-rule="nonzero"/>
	<path id="Vector" d="M45.08 251.59L47.77 255.3C46.54 255.85 45.21 256.12 43.87 256.08C41.47 256.18 40.8 255.4 40.72 255.21C40.31 254.34 40.95 252.78 41.12 251.45L45.08 251.59Z" fill="#263238" fill-opacity="1.000000" fill-rule="nonzero"/>
	<path id="Vector" d="M47.6 253.51C47.6 253.51 50.86 253.3 53.12 253.02C55.38 252.74 57.15 253.8 56.62 254.75C56.09 255.69 54.85 256.44 52.92 257.09C51.27 257.65 49.29 258.05 47.56 258.56C45.84 259.07 44.66 259.69 43.66 259.34C42.55 258.96 42.09 258.51 42.16 257.7C42.4 256.56 42.71 255.42 43.07 254.3L47.6 253.51Z" fill="#263238" fill-opacity="1.000000" fill-rule="nonzero"/>
	<path id="Vector" d="M40.72 247.85C40.72 247.85 41.12 251.22 41.15 251.95C41.18 252.67 44.46 252.9 45.09 251.58L45.19 247.46L40.72 247.85Z" fill="#F28F8F" fill-opacity="1.000000" fill-rule="nonzero"/>
	<path id="Vector" d="M44.02 249.93L42.88 255.04C42.88 255.04 42.76 255.65 45.44 256.05C48.13 256.45 52.32 254.66 53.04 254.3C53.75 253.94 53.83 253.21 51.2 253.35C48.58 253.5 47.64 253.51 47.64 253.51L48.5 251.24L44.02 249.93Z" fill="#FFA8A7" fill-opacity="1.000000" fill-rule="nonzero"/>
	<path id="Vector" d="M40.72 181.54C38.47 185 36.35 188.05 35.89 191.95C34.93 200.18 38.08 209.58 38.75 215.67C37.48 217.4 36.74 219.47 36.63 221.61C36.63 224.13 40.72 247.85 40.72 247.85C40.72 247.85 43.69 248.75 45.18 247.46L48 203.81L46.52 198.5L40.72 181.54Z" fill="#455A64" fill-opacity="1.000000" fill-rule="nonzero"/>
	<path id="Vector" d="M48 203.81L46.52 198.5C43.73 197.78 41.04 196.73 38.5 195.37C38.5 195.37 40.02 198.11 44.37 199.61L46.63 206.44L46.82 222.09L48 203.81Z" fill="#37474F" fill-opacity="1.000000" fill-rule="nonzero"/>
	<path id="Vector" d="M40.72 181.54C39.52 183.48 36.65 186.81 37.26 190C38 193.91 40.1 196.6 46.52 198.5L52.53 220.15C52.53 220.15 49.38 223.06 48.45 225.83C47.51 228.6 44.02 249.93 44.02 249.93C44.02 249.93 45.09 251.66 48.48 251.24C48.48 251.24 60.29 224.49 61.08 222.77C62.09 221.01 62.44 218.96 62.08 216.96C61.7 214.16 57.68 183.48 57.68 183.48L40.72 181.54Z" fill="#455A64" fill-opacity="1.000000" fill-rule="nonzero"/>
	<path id="Vector" d="M39.62 162C39.86 161.36 40.32 160.83 40.91 160.48C41.5 160.14 42.2 160.01 42.88 160.11C47.07 161.24 53.6 162.74 54.84 163.1C54.84 163.1 54.28 171.13 59.12 173.96C58.89 175.76 57.66 183.48 57.66 183.48C57.66 183.48 51.85 186.28 47.07 184.9C42.29 183.52 40.68 181.54 40.68 181.54L43.04 177.66C42.53 176.41 40.55 172.13 39.28 168.15C38.83 166.11 38.95 163.98 39.62 162Z" fill="#FFB900" fill-opacity="1.000000" fill-rule="nonzero"/>
	<path id="Vector" d="M42.46 176.14C44.45 177.33 46.53 178.35 48.69 179.2C46.73 179.15 44.81 178.61 43.11 177.63L42.46 176.14Z" fill="#E0E0E0" fill-opacity="1.000000" fill-rule="nonzero"/>
	<path id="Vector" d="M59.02 173.36C57.3 172.58 55.88 171.26 54.99 169.61C55.14 170.88 55.57 172.1 56.27 173.17C56.97 174.25 57.91 175.15 59.02 175.8L59.02 173.36Z" fill="#E0E0E0" fill-opacity="1.000000" fill-rule="nonzero"/>
	<path id="Vector" d="M54.88 163.1C57.52 163.88 59.16 164.13 60.58 165.4C62.46 167.07 64.4 176.54 64.79 178.49C65.48 181.88 66.23 185.4 65.49 186.98C64.96 188.12 62.04 188.98 60.77 185.28C60.5 184.5 60.44 184.14 60.21 183.44C59 179.9 57.19 173.14 57.19 173.14C57.19 173.14 53.62 171.19 54.88 163.1Z" fill="#FFA8A7" fill-opacity="1.000000" fill-rule="nonzero"/>
	<path id="Vector" d="M42.09 141.66C41.15 142.2 39.46 142.72 38.4 147.61C37.54 151.71 37.03 155.88 36.87 160.06C36.91 161.58 40.08 165.8 46.76 165.4C53.44 165 55.87 161.11 55.87 161.11C55.87 161.11 52.58 159.78 52.84 154.07C52.84 154.07 51.68 156.33 48.51 155.2C45.33 154.06 42.09 141.66 42.09 141.66Z" fill="#263238" fill-opacity="1.000000" fill-rule="nonzero"/>
</svg>
