<svg width="600.000000" height="555.724060" viewBox="0 0 600 555.724" fill="none" xmlns="http://www.w3.org/2000/svg" xmlns:xlink="http://www.w3.org/1999/xlink">
	<desc>
			Created with Pixso.
	</desc>
	<defs/>
	<path id="Vector" d="M87.86 509.82C205.02 571.02 394.97 571.02 512.13 509.82C629.29 448.61 629.28 349.39 512.13 288.19C394.98 226.99 205.02 226.99 87.86 288.19C-29.3 349.39 -29.29 448.61 87.86 509.82Z" fill="#F5F5F5" fill-opacity="1.000000" fill-rule="nonzero"/>
	<path id="Vector" d="M555.08 339.27C555.08 350.15 536.57 358.97 513.74 358.97C490.9 358.97 472.39 350.15 472.39 339.27C472.39 328.39 490.9 319.57 513.74 319.57C536.57 319.57 555.08 328.39 555.08 339.27Z" fill="#E6E6E6" fill-opacity="1.000000" fill-rule="evenodd"/>
	<path id="Vector" d="M125.04 456.17C125.04 466.14 108.07 474.23 87.13 474.23C66.2 474.23 49.23 466.14 49.23 456.17C49.23 446.19 66.2 438.1 87.13 438.1C108.07 438.1 125.04 446.19 125.04 456.17Z" fill="#E6E6E6" fill-opacity="1.000000" fill-rule="evenodd"/>
	<path id="Vector" d="M408.03 490.16C408.03 500.54 390.37 508.96 368.58 508.96C346.8 508.96 329.14 500.54 329.14 490.16C329.14 479.77 346.8 471.35 368.58 471.35C390.37 471.35 408.03 479.77 408.03 490.16Z" fill="#E6E6E6" fill-opacity="1.000000" fill-rule="evenodd"/>
	<path id="Vector" d="M212.24 400.16C212.24 410.55 194.58 418.97 172.79 418.97C151.01 418.97 133.35 410.55 133.35 400.16C133.35 389.78 151.01 381.36 172.79 381.36C194.58 381.36 212.24 389.78 212.24 400.16Z" fill="#E6E6E6" fill-opacity="1.000000" fill-rule="evenodd"/>
	<path id="Vector" d="M404.92 293.28C405.89 281.69 432.45 238.2 440.58 231.46C448.7 224.72 463.05 207.69 456.87 198.01C450.69 188.34 432.52 192.64 415.47 222.81C402.24 246.2 398.13 297.94 398.13 297.94L404.92 293.28Z" fill="#02897A" fill-opacity="1.000000" fill-rule="nonzero"/>
	<path id="Vector" d="M401.29 292.19L401.18 292.19C401.08 292.18 401 292.14 400.92 292.1C400.84 292.05 400.77 291.99 400.72 291.91C400.67 291.84 400.63 291.75 400.61 291.66C400.59 291.57 400.59 291.48 400.6 291.39C408.11 242.84 424.07 212.56 449.37 198.8C449.54 198.71 449.73 198.69 449.91 198.74C450 198.77 450.08 198.81 450.15 198.87C450.22 198.92 450.28 199 450.32 199.08C450.37 199.16 450.4 199.25 450.41 199.34C450.42 199.43 450.41 199.52 450.38 199.61C450.36 199.7 450.31 199.78 450.26 199.85C450.2 199.92 450.13 199.98 450.05 200.03C425.14 213.56 409.43 243.53 401.97 291.62C401.94 291.78 401.86 291.92 401.73 292.03C401.61 292.13 401.45 292.19 401.29 292.19Z" fill="#FFFFFF" fill-opacity="1.000000" fill-rule="nonzero"/>
	<path id="Vector" d="M407.59 237.04C407.59 237.04 428.92 200.18 446.58 183.3C456.37 173.95 462.38 167.92 461.85 160.85C461.46 155.48 456.99 152.61 447.4 154.97C428.29 159.67 418.04 179.04 411.44 200.73C406.75 216 407.59 237.04 407.59 237.04Z" fill="#37474F" fill-opacity="1.000000" fill-rule="nonzero"/>
	<g opacity="0.200000">
		<path id="Vector" d="M407.59 237.04C407.59 237.04 428.92 200.18 446.58 183.3C456.37 173.95 462.38 167.92 461.85 160.85C461.46 155.48 456.99 152.61 447.4 154.97C428.29 159.67 418.04 179.04 411.44 200.73C406.75 216 407.59 237.04 407.59 237.04Z" fill="#00FFE3" fill-opacity="1.000000" fill-rule="nonzero"/>
	</g>
	<path id="Vector" d="M410.07 230.99L409.97 230.99C409.79 230.95 409.62 230.85 409.51 230.7C409.4 230.55 409.35 230.36 409.38 230.17C416.98 182.27 445.84 164.23 454.51 159.84C454.67 159.76 454.86 159.74 455.04 159.8C455.21 159.86 455.36 159.98 455.44 160.15C455.49 160.23 455.51 160.32 455.52 160.41C455.53 160.5 455.52 160.59 455.49 160.68C455.46 160.77 455.41 160.85 455.35 160.92C455.29 160.99 455.22 161.05 455.13 161.09C446.62 165.41 418.26 183.14 410.77 230.4C410.74 230.56 410.66 230.71 410.53 230.82C410.4 230.93 410.24 230.99 410.07 230.99Z" fill="#FFFFFF" fill-opacity="1.000000" fill-rule="nonzero"/>
	<path id="Vector" d="M527.03 128.24L522.42 119.57L526.13 108.86L526.13 102.3L514.77 108.86L514.77 115.42L519.65 123.89C519.73 124.02 519.85 124.13 519.99 124.18L527.03 128.24Z" fill="#11B5E4" fill-opacity="1.000000" fill-rule="nonzero"/>
	<g opacity="0.100000">
		<path id="Vector" d="M527.03 128.24L522.42 119.57L526.13 108.86L526.13 102.3L514.77 108.86L514.77 115.42L519.65 123.89C519.73 124.02 519.85 124.13 519.99 124.18L527.03 128.24Z" fill="#000000" fill-opacity="1.000000" fill-rule="nonzero"/>
	</g>
	<path id="Vector" d="M500.69 87.54L531.96 69.36C533.01 68.83 534.18 68.55 535.36 68.55C536.54 68.55 537.71 68.83 538.77 69.36L541.56 70.97C542.56 71.61 543.39 72.48 543.98 73.51C544.57 74.53 544.91 75.68 544.97 76.87L544.97 102.2C544.91 103.39 544.57 104.54 543.97 105.56C543.38 106.59 542.56 107.46 541.56 108.1L510.27 126.28C509.21 126.81 508.05 127.09 506.86 127.09C505.68 127.09 504.52 126.81 503.46 126.28L500.66 124.67C499.67 124.03 498.85 123.16 498.26 122.13C497.67 121.11 497.33 119.95 497.27 118.77L497.27 93.41C497.34 92.23 497.68 91.08 498.28 90.06C498.87 89.04 499.7 88.18 500.69 87.54Z" fill="#11B5E4" fill-opacity="1.000000" fill-rule="nonzero"/>
	<g opacity="0.300000">
		<path id="Vector" d="M500.69 87.54L531.96 69.36C533.01 68.83 534.18 68.55 535.36 68.55C536.54 68.55 537.71 68.83 538.77 69.36L541.56 70.97C542.56 71.61 543.39 72.48 543.98 73.51C544.57 74.53 544.91 75.68 544.97 76.87L544.97 102.2C544.91 103.39 544.57 104.54 543.97 105.56C543.38 106.59 542.56 107.46 541.56 108.1L510.27 126.28C509.21 126.81 508.05 127.09 506.86 127.09C505.68 127.09 504.52 126.81 503.46 126.28L500.66 124.67C499.67 124.03 498.85 123.16 498.26 122.13C497.67 121.11 497.33 119.95 497.27 118.77L497.27 93.41C497.34 92.23 497.68 91.08 498.28 90.06C498.87 89.04 499.7 88.18 500.69 87.54Z" fill="#FFFFFF" fill-opacity="1.000000" fill-rule="nonzero"/>
	</g>
	<path id="Vector" d="M510.28 126.25C508.4 127.33 506.87 126.46 506.87 124.28L506.87 98.95C506.94 97.76 507.28 96.61 507.87 95.59C508.46 94.56 509.29 93.69 510.28 93.04L541.58 74.87C543.46 73.78 544.99 74.66 544.99 76.84L544.99 102.18C544.92 103.36 544.58 104.51 543.99 105.53C543.4 106.56 542.57 107.43 541.58 108.08L510.28 126.25Z" fill="#11B5E4" fill-opacity="1.000000" fill-rule="nonzero"/>
	<path id="Vector" d="M497.29 118.75C497.35 119.93 497.69 121.08 498.29 122.1C498.88 123.13 499.7 124 500.69 124.65L503.49 126.25C504.45 126.74 505.5 127.01 506.57 127.05C507.64 127.1 508.71 126.92 509.71 126.52C508.12 127.13 506.91 126.23 506.91 124.28L506.91 98.95C506.96 97.76 507.31 96.6 507.92 95.59L498.33 90C497.72 91.01 497.38 92.17 497.34 93.35L497.29 118.75Z" fill="#11B5E4" fill-opacity="1.000000" fill-rule="nonzero"/>
	<g opacity="0.100000">
		<path id="Vector" d="M497.29 118.75C497.35 119.93 497.69 121.08 498.29 122.1C498.88 123.13 499.7 124 500.69 124.65L503.49 126.25C504.45 126.74 505.5 127.01 506.57 127.05C507.64 127.1 508.71 126.92 509.71 126.52C508.12 127.13 506.91 126.23 506.91 124.28L506.91 98.95C506.96 97.76 507.31 96.6 507.92 95.59L498.33 90C497.72 91.01 497.38 92.17 497.34 93.35L497.29 118.75Z" fill="#000000" fill-opacity="1.000000" fill-rule="nonzero"/>
	</g>
	<path id="Vector" d="M521.89 119.53L526.77 127.99C526.84 128.11 526.95 128.2 527.07 128.27C527.19 128.33 527.33 128.35 527.47 128.34C527.61 128.33 527.74 128.28 527.85 128.19C527.96 128.11 528.05 127.99 528.1 127.86L533.26 112.97L533.26 106.41L521.89 112.97L521.89 119.53Z" fill="#11B5E4" fill-opacity="1.000000" fill-rule="nonzero"/>
	<path id="Vector" d="M525.94 110.87L522.45 109.95C519.12 109.07 515.15 107.15 515.15 102.86C515.32 101.11 515.89 99.43 516.83 97.94C517.77 96.46 519.05 95.22 520.56 94.32C521.06 93.96 521.64 93.75 522.24 93.7C522.85 93.64 523.46 93.75 524.01 94.02C524.55 94.28 525.02 94.68 525.36 95.19C525.7 95.7 525.9 96.28 525.93 96.89C526.28 94.09 528.54 89.7 531.3 88.11C534.29 86.39 536.71 87.41 536.71 90.4C536.71 94.68 532.75 101.2 529.43 105.92L525.94 110.87Z" fill="#FFFFFF" fill-opacity="1.000000" fill-rule="nonzero"/>
	<path id="Vector" d="M63.67 194.78L94.96 176.68C96.02 176.14 97.19 175.86 98.37 175.86C99.55 175.86 100.72 176.14 101.77 176.68L104.57 178.27C105.56 178.92 106.38 179.79 106.97 180.82C107.56 181.84 107.9 182.99 107.97 184.17L107.97 209.51C107.9 210.69 107.56 211.84 106.97 212.86C106.38 213.89 105.56 214.76 104.57 215.41L73.32 233.52C72.26 234.05 71.09 234.33 69.91 234.33C68.72 234.33 67.55 234.05 66.5 233.52L63.7 231.92C62.69 231.27 61.86 230.39 61.26 229.36C60.66 228.32 60.32 227.16 60.26 225.97L60.26 200.68C60.32 199.5 60.66 198.35 61.26 197.32C61.85 196.3 62.68 195.43 63.67 194.78Z" fill="#FF7800" fill-opacity="1.000000" fill-rule="nonzero"/>
	<g opacity="0.300000">
		<path id="Vector" d="M63.67 194.78L94.96 176.68C96.02 176.14 97.19 175.86 98.37 175.86C99.55 175.86 100.72 176.14 101.77 176.68L104.57 178.27C105.56 178.92 106.38 179.79 106.97 180.82C107.56 181.84 107.9 182.99 107.97 184.17L107.97 209.51C107.9 210.69 107.56 211.84 106.97 212.86C106.38 213.89 105.56 214.76 104.57 215.41L73.32 233.52C72.26 234.05 71.09 234.33 69.91 234.33C68.72 234.33 67.55 234.05 66.5 233.52L63.7 231.92C62.69 231.27 61.86 230.39 61.26 229.36C60.66 228.32 60.32 227.16 60.26 225.97L60.26 200.68C60.32 199.5 60.66 198.35 61.26 197.32C61.85 196.3 62.68 195.43 63.67 194.78Z" fill="#FFFFFF" fill-opacity="1.000000" fill-rule="nonzero"/>
	</g>
	<path id="Vector" d="M90 235.52L85.39 226.83L89.11 216.12L89.11 209.56L77.74 216.18L77.74 222.74L82.63 231.13C82.71 231.25 82.82 231.36 82.95 231.42L90 235.52Z" fill="#FF7800" fill-opacity="1.000000" fill-rule="nonzero"/>
	<g opacity="0.100000">
		<path id="Vector" d="M90 235.52L85.39 226.83L89.11 216.12L89.11 209.56L77.74 216.18L77.74 222.74L82.63 231.13C82.71 231.25 82.82 231.36 82.95 231.42L90 235.52Z" fill="#000000" fill-opacity="1.000000" fill-rule="nonzero"/>
	</g>
	<path id="Vector" d="M73.32 233.52C71.43 234.61 69.91 233.73 69.91 231.54L69.91 206.21C69.97 205.03 70.32 203.88 70.91 202.86C71.5 201.83 72.33 200.96 73.32 200.32L104.63 182.14C106.5 181.07 108.03 181.95 108.03 184.12L108.03 209.45C107.96 210.63 107.62 211.78 107.03 212.81C106.44 213.83 105.62 214.7 104.63 215.35L73.32 233.52Z" fill="#FF7800" fill-opacity="1.000000" fill-rule="nonzero"/>
	<path id="Vector" d="M60.26 225.97C60.32 227.15 60.67 228.3 61.26 229.32C61.85 230.35 62.68 231.22 63.67 231.87L66.47 233.46C67.43 233.94 68.48 234.21 69.56 234.26C70.63 234.31 71.7 234.13 72.7 233.74C71.1 234.34 69.91 233.43 69.91 231.49L69.91 206.21C69.95 205.02 70.29 203.87 70.9 202.85L61.32 197.33C60.71 198.34 60.36 199.5 60.32 200.68L60.26 225.97Z" fill="#FF7800" fill-opacity="1.000000" fill-rule="nonzero"/>
	<g opacity="0.100000">
		<path id="Vector" d="M60.26 225.97C60.32 227.15 60.67 228.3 61.26 229.32C61.85 230.35 62.68 231.22 63.67 231.87L66.47 233.46C67.43 233.94 68.48 234.21 69.56 234.26C70.63 234.31 71.7 234.13 72.7 233.74C71.1 234.34 69.91 233.43 69.91 231.49L69.91 206.21C69.95 205.02 70.29 203.87 70.9 202.85L61.32 197.33C60.71 198.34 60.36 199.5 60.32 200.68L60.26 225.97Z" fill="#000000" fill-opacity="1.000000" fill-rule="nonzero"/>
	</g>
	<path id="Vector" d="M84.87 226.79L89.75 235.18C89.82 235.3 89.92 235.4 90.05 235.46C90.17 235.52 90.31 235.55 90.45 235.54C90.58 235.52 90.72 235.47 90.83 235.39C90.93 235.3 91.02 235.19 91.06 235.05L96.22 220.16L96.22 213.6L84.87 220.16L84.87 226.79Z" fill="#FF7800" fill-opacity="1.000000" fill-rule="nonzero"/>
	<path id="Vector" d="M77.09 211.66C76.15 212.27 75.37 213.09 74.81 214.07C74.25 215.04 73.94 216.13 73.89 217.25C73.89 219.3 75.29 220.05 77.09 219.1C78.03 218.49 78.81 217.66 79.37 216.69C79.92 215.72 80.24 214.63 80.3 213.51C80.31 211.47 78.91 210.58 77.09 211.66Z" fill="#FFFFFF" fill-opacity="1.000000" fill-rule="nonzero"/>
	<path id="Vector" d="M88.91 204.82C87.97 205.43 87.19 206.26 86.63 207.23C86.07 208.2 85.75 209.3 85.69 210.42C85.69 212.46 87.09 213.28 88.91 212.26C89.85 211.65 90.63 210.82 91.18 209.85C91.74 208.88 92.06 207.79 92.11 206.67C92.11 204.63 90.67 203.8 88.91 204.82Z" fill="#FFFFFF" fill-opacity="1.000000" fill-rule="nonzero"/>
	<path id="Vector" d="M100.71 198C99.77 198.61 99 199.44 98.44 200.41C97.88 201.38 97.56 202.47 97.51 203.59C97.51 205.63 98.91 206.39 100.71 205.44C101.66 204.83 102.44 204.01 103 203.03C103.55 202.06 103.87 200.97 103.91 199.85C103.91 197.79 102.49 196.97 100.71 198Z" fill="#FFFFFF" fill-opacity="1.000000" fill-rule="nonzero"/>
	<path id="Vector" d="M395.5 11.23L259.56 89.67C257.79 90.82 256.33 92.37 255.28 94.2C254.23 96.02 253.62 98.06 253.5 100.16L253.5 401.06C253.5 404.92 256.22 406.48 259.56 404.55L395.5 326.11C397.26 324.96 398.73 323.41 399.78 321.59C400.83 319.77 401.44 317.72 401.55 315.62L401.55 14.73C401.55 10.87 398.84 9.3 395.5 11.23Z" fill="#37474F" fill-opacity="1.000000" fill-rule="nonzero"/>
	<path id="Vector" d="M259.56 89.67L395.5 11.23C398.49 9.51 400.97 10.59 401.45 13.59C401.18 11.7 400.51 9.89 399.48 8.28C398.45 6.67 397.1 5.29 395.5 4.24L390.56 1.44C388.69 0.49 386.61 0 384.51 0C382.4 0 380.33 0.49 378.45 1.44L242.51 79.84C240.72 80.96 239.25 82.52 238.23 84.36L255.28 94.15C256.3 92.32 257.77 90.78 259.56 89.67Z" fill="#455A64" fill-opacity="1.000000" fill-rule="nonzero"/>
	<path id="Vector" d="M236.46 391.22C236.57 393.32 237.18 395.36 238.23 397.18C239.28 399.01 240.75 400.55 242.51 401.7L247.45 404.5C249.15 405.36 251.02 405.85 252.93 405.93C254.84 406.02 256.75 405.69 258.52 404.99C255.73 406.06 253.5 404.46 253.5 401L253.5 100.12C253.57 98.01 254.18 95.95 255.28 94.15L238.23 84.36C237.14 86.17 236.53 88.22 236.46 90.33L236.46 391.22Z" fill="#263238" fill-opacity="1.000000" fill-rule="nonzero"/>
	<path id="Vector" d="M262.82 127.15L392.24 52.47C394.24 51.31 395.88 52.24 395.88 54.56L395.88 282.36C395.8 283.62 395.44 284.84 394.81 285.94C394.18 287.03 393.3 287.96 392.24 288.65L262.82 363.32C260.82 364.48 259.18 363.54 259.18 361.22L259.18 133.44C259.25 132.18 259.61 130.95 260.24 129.86C260.87 128.77 261.76 127.84 262.82 127.15Z" fill="#FAFAFA" fill-opacity="1.000000" fill-rule="nonzero"/>
	<path id="Vector" d="M326.16 62.13C325.54 62.53 325.02 63.08 324.66 63.72C324.29 64.36 324.07 65.08 324.03 65.82C324.03 67.22 324.98 67.74 326.16 67.05C326.78 66.65 327.29 66.1 327.66 65.46C328.03 64.82 328.24 64.1 328.28 63.36C328.28 62 327.33 61.46 326.16 62.13Z" fill="#263238" fill-opacity="1.000000" fill-rule="nonzero"/>
	<path id="Vector" d="M306.04 83.77C304.81 84.59 303.79 85.68 303.06 86.97C302.33 88.25 301.91 89.68 301.84 91.16C301.84 93.87 303.74 94.97 306.04 93.62C307.28 92.81 308.31 91.72 309.05 90.44C309.79 89.15 310.22 87.71 310.3 86.24C310.3 83.52 308.39 82.42 306.04 83.77Z" fill="#263238" fill-opacity="1.000000" fill-rule="nonzero"/>
	<path id="Vector" d="M316.45 82.85C316.45 84.67 317.85 85.35 319.49 84.39L347.45 68.21C348.32 67.67 349.04 66.93 349.56 66.05C350.09 65.18 350.4 64.19 350.47 63.18C350.47 61.37 349.08 60.69 347.45 61.65L319.49 77.83C318.62 78.37 317.9 79.11 317.37 79.98C316.84 80.85 316.53 81.83 316.45 82.85Z" fill="#263238" fill-opacity="1.000000" fill-rule="nonzero"/>
	<path id="Vector" d="M245.88 136.15C246.88 136.8 247.7 137.67 248.3 138.69C248.89 139.72 249.23 140.87 249.29 142.06C249.29 144.22 247.77 145.1 245.88 144.03C244.89 143.38 244.07 142.5 243.48 141.47C242.89 140.45 242.55 139.29 242.48 138.11C242.51 135.94 244.01 135.08 245.88 136.15Z" fill="#37474F" fill-opacity="1.000000" fill-rule="nonzero"/>
	<path id="Vector" d="M245.88 162.4C246.87 163.05 247.7 163.92 248.29 164.94C248.89 165.97 249.23 167.12 249.29 168.3C249.29 170.48 247.77 171.36 245.88 170.27C244.91 169.63 244.1 168.77 243.51 167.75C242.93 166.74 242.58 165.61 242.51 164.44C242.51 162.2 244.01 161.32 245.88 162.4Z" fill="#37474F" fill-opacity="1.000000" fill-rule="nonzero"/>
	<path id="Vector" d="M244.83 136.67C245.83 137.32 246.65 138.19 247.24 139.21C247.84 140.24 248.18 141.39 248.25 142.57C248.25 144.75 246.72 145.63 244.83 144.54C243.84 143.89 243.02 143.02 242.43 142C241.83 140.97 241.49 139.82 241.42 138.64C241.42 136.48 242.96 135.59 244.83 136.67Z" fill="#455A64" fill-opacity="1.000000" fill-rule="nonzero"/>
	<path id="Vector" d="M244.83 162.93C245.83 163.58 246.65 164.45 247.24 165.47C247.84 166.5 248.18 167.65 248.25 168.83C248.25 171.01 246.72 171.89 244.83 170.8C243.84 170.16 243.02 169.28 242.43 168.26C241.83 167.23 241.49 166.08 241.42 164.9C241.42 162.72 242.96 161.84 244.83 162.93Z" fill="#455A64" fill-opacity="1.000000" fill-rule="nonzero"/>
	<path id="Vector" d="M327.53 336.04C325.08 337.63 323.05 339.78 321.59 342.31C320.13 344.84 319.29 347.68 319.14 350.59C319.14 355.96 322.9 358.13 327.53 355.46C329.97 353.86 332.01 351.71 333.46 349.18C334.92 346.65 335.76 343.81 335.92 340.89C335.93 335.52 332.17 333.35 327.53 336.04Z" fill="#263238" fill-opacity="1.000000" fill-rule="nonzero"/>
	<path id="Vector" d="M289.65 360.08C288.46 360.08 288.33 358.68 288.33 358.17L288.33 130.39C288.41 129.25 288.74 128.15 289.31 127.16C289.88 126.18 290.67 125.33 291.62 124.7L421.05 50.02C421.43 49.79 421.87 49.65 422.32 49.63C423.51 49.63 423.63 50.94 423.63 51.52L423.63 279.31C423.56 280.45 423.23 281.55 422.66 282.53C422.09 283.52 421.29 284.36 420.35 284.99L290.92 359.67C290.54 359.91 290.1 360.05 289.65 360.08Z" fill="#FFFFFF" fill-opacity="1.000000" fill-rule="nonzero"/>
	<path id="Vector" d="M288.33 358.17L288.33 130.39C288.41 129.25 288.74 128.15 289.31 127.16C289.88 126.18 290.67 125.33 291.62 124.7L421.05 50.02C421.43 49.79 421.87 49.65 422.32 49.63C423.51 49.63 423.63 50.94 423.63 51.52L423.63 279.31C423.56 280.45 423.23 281.55 422.66 282.53C422.09 283.52 421.29 284.36 420.35 284.99L290.92 359.67C290.54 359.91 290.1 360.05 289.65 360.08C288.46 360.08 288.33 358.68 288.33 358.17Z" stroke="#141414" stroke-opacity="1.000000" stroke-width="1.000000"/>
	<path id="Vector" d="M422.32 50.33C422.85 50.33 422.93 51.07 422.93 51.52L422.93 279.31C422.86 280.32 422.56 281.31 422.05 282.19C421.54 283.07 420.84 283.82 420 284.39L290.57 359.07C290.29 359.24 289.98 359.35 289.65 359.38C289.12 359.38 289.03 358.62 289.03 358.17L289.03 130.39C289.1 129.38 289.4 128.39 289.91 127.52C290.42 126.64 291.13 125.88 291.97 125.32L421.39 50.63C421.67 50.45 421.99 50.35 422.32 50.33ZM422.32 48.93C421.74 48.95 421.18 49.12 420.7 49.42L291.27 124.1C290.21 124.79 289.33 125.72 288.7 126.81C288.07 127.9 287.7 129.13 287.63 130.39L287.63 358.17C287.63 359.82 288.46 360.77 289.65 360.77C290.22 360.75 290.78 360.58 291.27 360.27L420.7 285.6C421.75 284.91 422.63 283.99 423.27 282.89C423.9 281.8 424.26 280.57 424.33 279.31L424.33 51.52C424.33 49.88 423.51 48.93 422.32 48.93Z" fill="#37474F" fill-opacity="1.000000" fill-rule="nonzero"/>
	<path id="Vector" d="M422.93 51.52L422.93 279.31C422.86 280.32 422.56 281.31 422.05 282.19C421.54 283.07 420.84 283.82 420 284.39L290.57 359.07C290.29 359.24 289.98 359.35 289.65 359.38C289.12 359.38 289.03 358.62 289.03 358.17L289.03 130.39C289.1 129.38 289.4 128.39 289.91 127.52C290.42 126.64 291.13 125.88 291.97 125.32L421.39 50.63C421.67 50.45 421.99 50.35 422.32 50.33C422.85 50.33 422.93 51.07 422.93 51.52ZM420.7 49.42L291.27 124.1C290.21 124.79 289.33 125.72 288.7 126.81C288.07 127.9 287.7 129.13 287.63 130.39L287.63 358.17C287.63 359.82 288.46 360.77 289.65 360.77C290.22 360.75 290.78 360.58 291.27 360.27L420.7 285.6C421.75 284.91 422.63 283.99 423.27 282.89C423.9 281.8 424.26 280.57 424.33 279.31L424.33 51.52C424.33 49.88 423.51 48.93 422.32 48.93C421.74 48.95 421.18 49.12 420.7 49.42Z" stroke="#141414" stroke-opacity="1.000000" stroke-width="1.000000"/>
	<path id="Vector" d="M424.29 51.52C424.29 49.19 422.67 48.26 420.65 49.42L291.23 124.1C290.17 124.79 289.29 125.72 288.66 126.81C288.02 127.9 287.66 129.13 287.59 130.39L287.59 149.06L424.29 70.18L424.29 51.52Z" fill="#37474F" fill-opacity="1.000000" fill-rule="nonzero"/>
	<g opacity="0.100000">
		<path id="Vector" d="M424.29 51.52C424.29 49.19 422.67 48.26 420.65 49.42L291.23 124.1C290.17 124.79 289.29 125.72 288.66 126.81C288.02 127.9 287.66 129.13 287.59 130.39L287.59 149.06L424.29 70.18L424.29 51.52Z" fill="#000000" fill-opacity="1.000000" fill-rule="nonzero"/>
	</g>
	<path id="Vector" d="M301.9 128.41C301.67 128.32 301.42 128.29 301.18 128.32C300.93 128.36 300.7 128.45 300.5 128.59C299.78 129.07 299.18 129.7 298.75 130.45C298.32 131.2 298.06 132.03 298.01 132.9C297.97 133.14 298.01 133.4 298.1 133.63C298.2 133.86 298.35 134.06 298.56 134.21C298.78 134.3 299.04 134.34 299.28 134.3C299.53 134.27 299.76 134.17 299.95 134.01C300.67 133.54 301.26 132.9 301.69 132.16C302.12 131.41 302.37 130.58 302.43 129.72C302.46 129.48 302.43 129.22 302.34 128.99C302.25 128.76 302.09 128.56 301.9 128.41Z" fill="#FFFFFF" fill-opacity="1.000000" fill-rule="nonzero"/>
	<path id="Vector" d="M304.85 123.64L304.54 123.82L304.54 123.19C304.54 122.31 303.92 121.95 303.14 122.4L297.27 125.78C296.87 126.04 296.53 126.39 296.29 126.81C296.04 127.22 295.9 127.69 295.87 128.17L295.87 128.81L295.55 129C295.01 129.34 294.57 129.81 294.24 130.37C293.92 130.92 293.74 131.54 293.7 132.18L293.7 137.87C293.7 139.05 294.53 139.54 295.55 138.95L304.82 133.6C305.36 133.24 305.8 132.77 306.13 132.22C306.45 131.66 306.63 131.03 306.67 130.39L306.67 124.67C306.69 123.53 305.87 123.05 304.85 123.64ZM300.49 134.94C300.03 135.21 299.52 135.37 298.99 135.39C298.65 135.39 298.31 135.3 298.01 135.13C297.65 134.89 297.36 134.55 297.17 134.16C296.98 133.77 296.9 133.33 296.93 132.9C296.98 131.85 297.28 130.83 297.81 129.92C298.33 129.01 299.07 128.24 299.95 127.68C300.31 127.42 300.73 127.27 301.16 127.24C301.6 127.2 302.04 127.29 302.43 127.48C302.79 127.73 303.08 128.06 303.27 128.46C303.45 128.85 303.53 129.29 303.49 129.72C303.44 130.77 303.14 131.79 302.62 132.69C302.1 133.6 301.37 134.37 300.49 134.94ZM304.68 127.35C304.2 127.61 303.83 127.35 303.83 126.84C303.84 126.54 303.93 126.26 304.07 126C304.22 125.74 304.43 125.52 304.68 125.36C305.16 125.08 305.55 125.36 305.55 125.85C305.54 126.14 305.46 126.43 305.32 126.69C305.18 126.95 304.98 127.18 304.74 127.35L304.68 127.35Z" fill="#FFFFFF" fill-opacity="1.000000" fill-rule="nonzero"/>
	<path id="Vector" d="M416.85 57.26L407.8 62.48C407.28 62.82 406.84 63.28 406.53 63.82C406.22 64.36 406.03 64.97 406 65.6L406 71.19C406 72.32 406.81 72.8 407.8 72.22L413.19 69.12L415.3 71.23C415.35 71.28 415.41 71.31 415.48 71.32C415.54 71.33 415.61 71.32 415.67 71.3C415.74 71.27 415.79 71.23 415.83 71.17C415.86 71.11 415.88 71.05 415.89 70.98L415.89 67.55L416.85 66.99C417.38 66.66 417.83 66.2 418.15 65.66C418.47 65.12 418.66 64.51 418.7 63.88L418.7 58.28C418.7 57.15 417.84 56.69 416.85 57.26Z" fill="#FFFFFF" fill-opacity="1.000000" fill-rule="nonzero"/>
	<path id="Vector" d="M305.06 145.73C309.78 143.05 313.61 145.23 313.61 150.63C313.45 153.58 312.58 156.45 311.09 159C309.61 161.56 307.54 163.73 305.06 165.34C300.32 168.13 296.49 165.88 296.49 160.44C296.64 157.49 297.5 154.61 299 152.05C300.49 149.49 302.56 147.33 305.06 145.73Z" fill="#37474F" fill-opacity="1.000000" fill-rule="nonzero"/>
	<path id="Vector" d="M322.09 139.15L350.49 122.76C352.17 121.79 353.52 122.48 353.52 124.28C353.45 125.3 353.13 126.29 352.61 127.16C352.08 128.04 351.35 128.78 350.49 129.32L322.09 145.7C320.42 146.67 319.07 145.98 319.07 144.18C319.14 143.16 319.45 142.18 319.98 141.3C320.5 140.43 321.23 139.69 322.09 139.15Z" fill="#37474F" fill-opacity="1.000000" fill-rule="nonzero"/>
	<g opacity="0.700000">
		<g opacity="0.700000">
			<path id="Vector" d="M322.09 139.15L350.49 122.76C352.17 121.79 353.52 122.48 353.52 124.28C353.45 125.3 353.13 126.29 352.61 127.16C352.08 128.04 351.35 128.78 350.49 129.32L322.09 145.7C320.42 146.67 319.07 145.98 319.07 144.18C319.14 143.16 319.45 142.18 319.98 141.3C320.5 140.43 321.23 139.69 322.09 139.15Z" fill="#FFFFFF" fill-opacity="1.000000" fill-rule="nonzero"/>
		</g>
	</g>
	<path id="Vector" d="M321.14 150.77L340.62 139.58C341.76 138.92 342.68 139.38 342.68 140.63C342.63 141.33 342.42 142 342.06 142.6C341.7 143.2 341.21 143.71 340.62 144.08L321.14 155.27C319.99 155.92 319.07 155.45 319.07 154.21C319.12 153.51 319.33 152.84 319.69 152.24C320.05 151.64 320.55 151.14 321.14 150.77Z" fill="#37474F" fill-opacity="1.000000" fill-rule="nonzero"/>
	<g opacity="0.700000">
		<g opacity="0.700000">
			<path id="Vector" d="M321.14 150.77L340.62 139.58C341.76 138.92 342.68 139.38 342.68 140.63C342.63 141.33 342.42 142 342.06 142.6C341.7 143.2 341.21 143.71 340.62 144.08L321.14 155.27C319.99 155.92 319.07 155.45 319.07 154.21C319.12 153.51 319.33 152.84 319.69 152.24C320.05 151.64 320.55 151.14 321.14 150.77Z" fill="#FFFFFF" fill-opacity="1.000000" fill-rule="nonzero"/>
		</g>
	</g>
	<path id="Vector" d="M305.06 292.75C309.78 290.06 313.61 292.26 313.61 297.64C313.45 300.59 312.58 303.46 311.09 306.02C309.61 308.57 307.54 310.75 305.06 312.35C300.32 315.15 296.49 312.9 296.49 307.46C296.65 304.5 297.51 301.63 299 299.07C300.49 296.51 302.57 294.35 305.06 292.75Z" fill="#37474F" fill-opacity="1.000000" fill-rule="nonzero"/>
	<path id="Vector" d="M322.09 286.18L350.49 269.77C352.17 268.81 353.52 269.49 353.52 271.3C353.45 272.32 353.13 273.3 352.61 274.18C352.08 275.05 351.35 275.79 350.49 276.33L322.09 292.73C320.42 293.7 319.07 293.01 319.07 291.2C319.14 290.18 319.46 289.2 319.98 288.33C320.51 287.45 321.23 286.72 322.09 286.18Z" fill="#37474F" fill-opacity="1.000000" fill-rule="nonzero"/>
	<g opacity="0.700000">
		<g opacity="0.700000">
			<path id="Vector" d="M322.09 286.18L350.49 269.77C352.17 268.81 353.52 269.49 353.52 271.3C353.45 272.32 353.13 273.3 352.61 274.18C352.08 275.05 351.35 275.79 350.49 276.33L322.09 292.73C320.42 293.7 319.07 293.01 319.07 291.2C319.14 290.18 319.46 289.2 319.98 288.33C320.51 287.45 321.23 286.72 322.09 286.18Z" fill="#FFFFFF" fill-opacity="1.000000" fill-rule="nonzero"/>
		</g>
	</g>
	<path id="Vector" d="M321.14 297.78L340.62 286.6C341.76 285.94 342.68 286.4 342.68 287.64C342.63 288.34 342.42 289.02 342.06 289.62C341.7 290.22 341.21 290.72 340.62 291.1L321.14 302.28C319.99 302.94 319.07 302.47 319.07 301.24C319.12 300.54 319.33 299.86 319.69 299.26C320.05 298.66 320.54 298.15 321.14 297.78Z" fill="#37474F" fill-opacity="1.000000" fill-rule="nonzero"/>
	<g opacity="0.700000">
		<g opacity="0.700000">
			<path id="Vector" d="M321.14 297.78L340.62 286.6C341.76 285.94 342.68 286.4 342.68 287.64C342.63 288.34 342.42 289.02 342.06 289.62C341.7 290.22 341.21 290.72 340.62 291.1L321.14 302.28C319.99 302.94 319.07 302.47 319.07 301.24C319.12 300.54 319.33 299.86 319.69 299.26C320.05 298.66 320.54 298.15 321.14 297.78Z" fill="#FFFFFF" fill-opacity="1.000000" fill-rule="nonzero"/>
		</g>
	</g>
	<path id="Vector" d="M302.4 173.47L409.94 111.39C411.62 110.43 412.98 111.21 412.98 113.14L412.98 220.54C412.92 221.59 412.62 222.62 412.09 223.53C411.56 224.45 410.83 225.22 409.94 225.8L302.4 288.25C300.72 289.21 299.38 288.43 299.38 286.5L299.38 178.72C299.43 177.67 299.74 176.65 300.26 175.73C300.79 174.82 301.52 174.05 302.4 173.47Z" fill="#F5F5F5" fill-opacity="1.000000" fill-rule="nonzero"/>
	<path id="Vector" d="M341.87 198.07C341.6 197.67 341.22 197.35 340.78 197.15C340.33 196.94 339.84 196.87 339.36 196.92C338.88 196.98 338.42 197.17 338.03 197.46C337.65 197.76 337.35 198.16 337.18 198.62L299.42 270.32L299.42 286.5C299.42 288.43 300.82 289.21 302.44 288.25L409.98 226.12C410.87 225.54 411.6 224.77 412.13 223.85C412.66 222.94 412.96 221.92 413.02 220.86L413.02 185.07L392.59 148.78C391.46 146.75 389.88 146.88 389.05 149.05L361.86 221.13L341.87 198.07Z" fill="#37474F" fill-opacity="1.000000" fill-rule="nonzero"/>
	<g opacity="0.300000">
		<g opacity="0.300000">
			<path id="Vector" d="M341.87 198.07C341.6 197.67 341.22 197.35 340.78 197.15C340.33 196.94 339.84 196.87 339.36 196.92C338.88 196.98 338.42 197.17 338.03 197.46C337.65 197.76 337.35 198.16 337.18 198.62L299.42 270.32L299.42 286.5C299.42 288.43 300.82 289.21 302.44 288.25L409.98 226.12C410.87 225.54 411.6 224.77 412.13 223.85C412.66 222.94 412.96 221.92 413.02 220.86L413.02 185.07L392.59 148.78C391.46 146.75 389.88 146.88 389.05 149.05L361.86 221.13L341.87 198.07Z" fill="#00564C" fill-opacity="1.000000" fill-rule="nonzero"/>
		</g>
	</g>
	<path id="Vector" d="M310.72 202.53C320.2 197.09 327.91 183.84 327.91 172.93C327.91 167.34 325.89 163.5 322.69 161.74L302.4 173.45C301.52 174.02 300.79 174.79 300.26 175.71C299.74 176.62 299.43 177.64 299.38 178.69L299.38 204.05C302.4 205.41 306.36 204.99 310.72 202.53Z" fill="#37474F" fill-opacity="1.000000" fill-rule="nonzero"/>
	<g opacity="0.600000">
		<g opacity="0.600000">
			<path id="Vector" d="M310.72 202.53C320.2 197.09 327.91 183.84 327.91 172.93C327.91 167.34 325.89 163.5 322.69 161.74L302.4 173.45C301.52 174.02 300.79 174.79 300.26 175.71C299.74 176.62 299.43 177.64 299.38 178.69L299.38 204.05C302.4 205.41 306.36 204.99 310.72 202.53Z" fill="#FFFFFF" fill-opacity="1.000000" fill-rule="nonzero"/>
		</g>
	</g>
	<path id="Vector" d="M302.4 321.05L409.94 258.95C411.62 257.99 412.98 258.67 412.98 260.49C412.9 261.51 412.59 262.49 412.06 263.36C411.53 264.23 410.81 264.97 409.94 265.51L302.4 327.61C300.72 328.57 299.38 327.89 299.38 326.07C299.45 325.05 299.76 324.07 300.29 323.2C300.81 322.32 301.54 321.59 302.4 321.05Z" fill="#37474F" fill-opacity="1.000000" fill-rule="nonzero"/>
	<g opacity="0.600000">
		<g opacity="0.600000">
			<path id="Vector" d="M302.4 321.05L409.94 258.95C411.62 257.99 412.98 258.67 412.98 260.49C412.9 261.51 412.59 262.49 412.06 263.36C411.53 264.23 410.81 264.97 409.94 265.51L302.4 327.61C300.72 328.57 299.38 327.89 299.38 326.07C299.45 325.05 299.76 324.07 300.29 323.2C300.81 322.32 301.54 321.59 302.4 321.05Z" fill="#FFFFFF" fill-opacity="1.000000" fill-rule="nonzero"/>
		</g>
	</g>
	<path id="Vector" d="M302.4 334.17L409.94 272.11C411.62 271.14 412.98 271.83 412.98 273.65C412.9 274.66 412.59 275.65 412.06 276.52C411.53 277.39 410.81 278.13 409.94 278.67L302.4 340.77C300.72 341.73 299.38 341.04 299.38 339.23C299.45 338.2 299.75 337.21 300.28 336.33C300.8 335.45 301.53 334.71 302.4 334.17Z" fill="#37474F" fill-opacity="1.000000" fill-rule="nonzero"/>
	<g opacity="0.600000">
		<g opacity="0.600000">
			<path id="Vector" d="M302.4 334.17L409.94 272.11C411.62 271.14 412.98 271.83 412.98 273.65C412.9 274.66 412.59 275.65 412.06 276.52C411.53 277.39 410.81 278.13 409.94 278.67L302.4 340.77C300.72 341.73 299.38 341.04 299.38 339.23C299.45 338.2 299.75 337.21 300.28 336.33C300.8 335.45 301.53 334.71 302.4 334.17Z" fill="#FFFFFF" fill-opacity="1.000000" fill-rule="nonzero"/>
		</g>
	</g>
	<path id="Vector" d="M318.98 115.01L395.71 70.76C398.06 69.36 399.9 70.5 399.9 73.2C399.83 74.67 399.41 76.1 398.68 77.37C397.95 78.64 396.93 79.73 395.71 80.53L319 124.66C316.65 126.06 314.8 124.94 314.8 122.28C314.88 120.83 315.3 119.41 316.03 118.15C316.76 116.89 317.77 115.81 318.98 115.01Z" fill="#FAFAFA" fill-opacity="1.000000" fill-rule="nonzero"/>
	<path id="Vector" d="M544.4 198.95L549.84 208.92L541.38 216.18L533.62 203.89L544.4 198.95Z" fill="#F28F8F" fill-opacity="1.000000" fill-rule="nonzero"/>
	<path id="Vector" d="M523.99 176.73C529.38 176.73 535.33 178.75 537.37 182.98L545.76 200.38C545.76 200.38 540.99 207.37 533.43 206.87L523.99 176.73Z" fill="#E0E0E0" fill-opacity="1.000000" fill-rule="nonzero"/>
	<path id="Vector" d="M543.98 210.47C545.56 207.54 545.95 207.4 546.89 206.75C547.83 206.11 553.59 205.26 555.98 205.05C558.78 204.81 559.8 205.33 559.01 207.75C556.86 213.85 554.22 219.77 551.13 225.45C550.37 226.44 550.23 227.36 547.06 227.69C544.11 227.97 540.4 228.13 539.31 228.19C538.22 228.25 536.71 228.54 537.68 225.32C538.92 221.69 540.37 218.13 542.01 214.65C543.23 211.98 543.98 210.47 543.98 210.47Z" fill="#37474F" fill-opacity="1.000000" fill-rule="nonzero"/>
	<path id="Vector" d="M480.98 309.4C479.58 308.7 478.78 310.41 477.56 311.78C476.52 312.79 475.7 314.01 475.17 315.36C474.88 316.97 476.35 319.55 477.97 320.95C479.59 322.35 481.46 323.37 482.05 326.45C482.2 327.86 482.75 329.2 483.63 330.31C484.51 331.42 485.69 332.27 487.03 332.74C490.53 334.25 495.21 333.76 496.82 332.74C498.69 331.52 496.97 330.18 494.34 326.4C490.9 321.48 488.22 318.01 488.22 313.36L480.98 309.4Z" fill="#263238" fill-opacity="1.000000" fill-rule="nonzero"/>
	<path id="Vector" d="M483.73 305.36L480.93 309.56C480.33 310.41 480.09 311.47 480.27 312.51C480.45 313.54 481.03 314.46 481.88 315.06L481.97 315.13C482.83 315.64 483.84 315.84 484.83 315.68C485.82 315.53 486.72 315.03 487.38 314.28L491.8 309.47L483.73 305.36Z" fill="#FFA8A7" fill-opacity="1.000000" fill-rule="nonzero"/>
	<path id="Vector" d="M535.66 224.48C535.84 229.77 534.35 251.12 530.7 260.56C527.05 270 524.94 275.87 523.79 277.84C522.64 279.81 489.56 312 489.56 312C489.56 312 483.97 311.6 483.06 306.16C483.06 306.16 496.61 283.11 499.54 278.39C502.48 273.66 512.88 266.42 512.88 266.42L511.93 225.08L535.66 224.48Z" fill="#37474F" fill-opacity="1.000000" fill-rule="nonzero"/>
	<path id="Vector" d="M486.65 219.34C486.65 218.43 489.45 207.98 490.85 203.16L501.1 206.68L498.69 214.29L489.67 223.62C488.72 223.43 487.87 222.88 487.31 222.08C486.75 221.28 486.51 220.3 486.65 219.34Z" fill="#FFA8A7" fill-opacity="1.000000" fill-rule="nonzero"/>
	<path id="Vector" d="M535.37 335.38L528.37 336.97L526.06 326.79L533.05 325.2L535.37 335.38Z" fill="#FFA8A7" fill-opacity="1.000000" fill-rule="evenodd"/>
	<path id="Vector" d="M535.66 224.48L502.1 224.48C501.37 229.38 500.95 234.32 500.85 239.28C500.58 253.82 514.11 280.23 514.11 280.23C513.46 286.11 513.76 292.05 514.98 297.84C517.95 309.42 526.03 329.03 526.03 329.03C526.03 329.03 531.1 329.75 533.61 326.82C533.61 326.82 529.13 287.01 527.93 276.82C526.63 265.77 523.27 245.63 523.27 245.63C525.49 243.42 527.5 241.01 529.27 238.44C532.38 234.29 534.56 229.52 535.65 224.46L535.66 224.48Z" fill="#37474F" fill-opacity="1.000000" fill-rule="nonzero"/>
	<path id="Vector" d="M512.91 177.03C506.48 178.58 497.71 180.59 495.18 187.55C492.65 194.52 489 206.87 489 206.87C490.4 209.31 498.16 211.34 500.86 209.93L502.12 205.73L502.12 224.44C507.15 229.92 524.69 232.47 535.68 224.44L535.68 189.48C535.68 183.89 532.57 177.18 524 176.69L512.91 177.03Z" fill="#11B5E4" fill-opacity="1.000000" fill-rule="nonzero"/>
	<path id="Vector" d="M502.12 205.77L505.35 195.61L502.12 210.32L502.12 205.77Z" fill="#E0E0E0" fill-opacity="1.000000" fill-rule="nonzero"/>
	<path id="Vector" d="M510.49 148.46C509.92 148.39 509.33 148.46 508.78 148.66C508.24 148.85 507.74 149.16 507.33 149.58C505.93 150.98 506.26 153.53 507.33 159.45L511.53 159.92L510.49 148.46Z" fill="#263238" fill-opacity="1.000000" fill-rule="nonzero"/>
	<path id="Vector" d="M534.98 146.75C535.86 146.76 536.73 146.6 537.55 146.26C538.84 145.52 539.17 146.99 538.46 148.26C537.99 149.17 537.3 149.95 536.45 150.52C535.6 151.09 534.61 151.43 533.59 151.51C533.59 151.33 532.39 148.22 532.39 148.22L534.98 146.75Z" fill="#263238" fill-opacity="1.000000" fill-rule="nonzero"/>
	<path id="Vector" d="M512.46 159.92C511.85 160.3 510.95 159.1 510.19 158.3C509.88 157.96 509.5 157.69 509.07 157.53C508.64 157.38 508.17 157.33 507.72 157.4C507.26 157.48 506.84 157.67 506.48 157.95C506.11 158.23 505.83 158.61 505.65 159.03C504.38 161.71 507.28 165.29 508.98 166.47C509.46 166.88 510.05 167.14 510.67 167.19C511.3 167.25 511.93 167.1 512.46 166.78L512.91 177.05C513.67 178.7 514.81 180.13 516.26 181.23C517.7 182.33 519.39 183.05 521.18 183.33C527.22 184.14 525.97 179.14 523.97 176.73L523.97 173C525.48 173.32 527.04 173.39 528.57 173.22C529.36 173.01 531.23 170.75 532.45 168.2C535.03 163.11 535.6 157.23 534.05 151.73C531.89 142.53 522 142.25 516.11 145.96C510.23 149.66 512.46 159.92 512.46 159.92Z" fill="#FFA8A7" fill-opacity="1.000000" fill-rule="nonzero"/>
	<path id="Vector" d="M512.46 160.97C512.16 160.97 510.97 159 510.19 158.3C509.11 157.32 510.49 148.51 510.49 148.51C510.2 147.57 510.14 146.56 510.32 145.59C510.5 144.61 510.92 143.7 511.54 142.92C513.67 140.68 517.78 141.06 520.78 140.96C524.48 140.98 528.15 140.24 531.55 138.8C535.83 136.94 536.15 136.73 536.67 138.6C537.08 140.15 537.13 141.77 536.82 143.34C536.5 144.92 535.83 146.39 534.85 147.66L533.45 149.93C533.45 149.93 532.15 151.02 528.17 151.51C524.18 152 517.39 149.84 516.53 149.73C515.37 149.58 515.14 150.7 514.51 153.76C513.97 156.4 513.53 160.96 512.46 160.97Z" fill="#263238" fill-opacity="1.000000" fill-rule="nonzero"/>
	<path id="Vector" d="M510.51 149.16L506.73 147.13C506.85 146.88 507.02 146.66 507.23 146.48C507.43 146.3 507.67 146.16 507.93 146.07C508.19 145.99 508.47 145.95 508.74 145.97C509.01 145.99 509.28 146.06 509.53 146.18C510.05 146.45 510.44 146.91 510.62 147.47C510.8 148.03 510.76 148.63 510.51 149.16Z" fill="#263238" fill-opacity="1.000000" fill-rule="nonzero"/>
	<path id="Vector" d="M523.97 173C521.4 172.51 518.88 171.78 516.44 170.83C515.29 170.23 514.35 169.3 513.74 168.16C514.03 169.3 514.56 170.37 515.28 171.31C516.67 173.14 523.97 174.48 523.97 174.48L523.97 173Z" fill="#F28F8F" fill-opacity="1.000000" fill-rule="nonzero"/>
	<path id="Vector" d="M524.15 159.73C524.16 160.03 524.04 160.32 523.83 160.54C523.62 160.76 523.34 160.88 523.03 160.89C522.89 160.89 522.74 160.85 522.6 160.79C522.46 160.73 522.34 160.64 522.23 160.53C522.13 160.42 522.05 160.3 521.99 160.16C521.94 160.02 521.91 159.87 521.92 159.72C521.91 159.41 522.03 159.12 522.24 158.91C522.45 158.69 522.73 158.56 523.03 158.55C523.19 158.56 523.33 158.59 523.47 158.65C523.61 158.71 523.73 158.8 523.84 158.91C523.94 159.02 524.02 159.15 524.08 159.29C524.13 159.43 524.16 159.58 524.15 159.73Z" fill="#263238" fill-opacity="1.000000" fill-rule="nonzero"/>
	<path id="Vector" d="M522.96 155.49L520.57 156.89C520.48 156.73 520.43 156.55 520.4 156.37C520.38 156.18 520.4 155.99 520.45 155.82C520.5 155.64 520.59 155.47 520.71 155.33C520.83 155.18 520.97 155.06 521.13 154.97C521.45 154.81 521.81 154.78 522.15 154.87C522.49 154.97 522.78 155.19 522.96 155.49Z" fill="#263238" fill-opacity="1.000000" fill-rule="nonzero"/>
	<path id="Vector" d="M523.47 167.24L526.03 168.2C525.9 168.54 525.65 168.81 525.33 168.97C525.01 169.12 524.64 169.15 524.29 169.04C524.12 168.98 523.96 168.88 523.83 168.76C523.69 168.63 523.58 168.48 523.51 168.31C523.43 168.14 523.39 167.96 523.38 167.78C523.37 167.59 523.4 167.41 523.47 167.24Z" fill="#F28F8F" fill-opacity="1.000000" fill-rule="nonzero"/>
	<path id="Vector" d="M534.14 156.43L531.96 154.75C532.18 154.47 532.5 154.28 532.85 154.23C533.2 154.17 533.56 154.25 533.86 154.46C534.01 154.57 534.13 154.71 534.23 154.87C534.32 155.02 534.38 155.2 534.41 155.38C534.44 155.57 534.43 155.75 534.38 155.93C534.33 156.11 534.25 156.28 534.14 156.43Z" fill="#263238" fill-opacity="1.000000" fill-rule="nonzero"/>
	<path id="Vector" d="M533.47 159.41C533.47 159.71 533.36 160 533.15 160.22C532.94 160.43 532.65 160.56 532.35 160.57C532.2 160.56 532.05 160.53 531.91 160.47C531.77 160.41 531.65 160.32 531.55 160.21C531.44 160.1 531.36 159.97 531.31 159.83C531.25 159.69 531.23 159.54 531.23 159.39C531.23 159.09 531.34 158.8 531.55 158.58C531.76 158.37 532.05 158.24 532.35 158.23C532.65 158.24 532.94 158.37 533.15 158.59C533.36 158.81 533.47 159.1 533.47 159.41Z" fill="#263238" fill-opacity="1.000000" fill-rule="nonzero"/>
	<path id="Vector" d="M528.2 159.27L527.15 165.92L530.82 165.49L528.2 159.27Z" fill="#F28F8F" fill-opacity="1.000000" fill-rule="nonzero"/>
	<path id="Vector" d="M534.57 331.98L534.35 330.98C535.07 331.12 538.22 336.33 541.34 338.6C544.75 341.07 547.7 342.54 549.23 343.66C551.27 345.16 548.32 348.22 543.3 348.5C540.81 348.62 536.31 347.87 534.91 346.54C533.51 345.21 532.5 343.02 531.38 342.07C530.26 341.11 528.04 340.28 527.27 339.06C526.86 337.85 526.71 336.57 526.84 335.3C526.84 333.98 526.94 332.5 527.38 332.57L527.55 333.33C528.85 333.99 530.29 334.31 531.75 334.26C532.96 334.21 535.16 333.94 534.57 331.98Z" fill="#263238" fill-opacity="1.000000" fill-rule="nonzero"/>
	<path id="Vector" d="M527.06 270.05C527.06 270.05 524.08 248.9 523.29 245.63C525.68 244.32 527.9 242.73 529.92 240.89C528.53 242.87 527.02 244.76 525.38 246.55L527.06 270.05Z" fill="#263238" fill-opacity="1.000000" fill-rule="nonzero"/>
	<path id="Vector" d="M509.09 269.31C509.09 269.31 512.67 278.22 514.13 280.19C514.13 280.19 513.76 286.99 513.81 288.36L511.93 289.99C511.88 286.92 512.17 283.85 512.77 280.83C511.13 277.14 509.9 273.28 509.09 269.31Z" fill="#263238" fill-opacity="1.000000" fill-rule="nonzero"/>
	<path id="Vector" d="M498.73 214.29C498.73 214.29 526.94 217.31 530.25 216.29C533.56 215.27 538.01 211.98 540.35 210.58C542.68 209.19 544.46 209.1 544.46 209.68C544.46 210.25 542.42 213.37 541.95 214.67C541.49 215.97 544.15 215.97 547.66 215.16C551.17 214.35 552.57 212.36 553.48 213.51C554.39 214.65 551.53 220.5 545.71 222.69C539.9 224.89 535.58 223.42 530.77 223.63C525.96 223.84 496.33 225.73 489.66 223.63C489.48 222.56 489.6 221.46 490.01 220.46C490.42 219.46 491.09 218.58 491.97 217.94C493.98 216.32 496.27 215.09 498.73 214.29Z" fill="#FFA8A7" fill-opacity="1.000000" fill-rule="nonzero"/>
	<path id="Vector" d="M342.38 349.01C342.45 348.11 344.17 338.32 345.34 332.84L356.85 336.36L355 344.04L345.44 353.29C344.48 353.11 343.62 352.57 343.05 351.77C342.48 350.97 342.24 349.98 342.38 349.01Z" fill="#FFA8A7" fill-opacity="1.000000" fill-rule="nonzero"/>
	<path id="Vector" d="M367.6 266.15L373.2 266.15C377.32 266.15 381.28 267.79 384.2 270.71C387.12 273.63 388.76 277.59 388.76 281.72L388.76 321.37L352.04 321.37L352.04 281.72C352.04 277.59 353.68 273.63 356.6 270.71C359.52 267.79 363.47 266.15 367.6 266.15Z" fill="#263238" fill-opacity="1.000000" fill-rule="nonzero"/>
	<path id="Vector" d="M398.04 328.45L403.48 338.42L395.01 345.66L387.26 333.37L398.04 328.45Z" fill="#F28F8F" fill-opacity="1.000000" fill-rule="nonzero"/>
	<path id="Vector" d="M377.63 306.21C383.03 306.21 388.97 308.23 391.01 312.46L399.4 329.86C399.4 329.86 394.63 336.85 387.07 336.36L377.63 306.21Z" fill="#455A64" fill-opacity="1.000000" fill-rule="nonzero"/>
	<path id="Vector" d="M381.99 478.72C383.85 481.2 385.94 483.51 388.23 485.6C388.6 485.89 388.89 486.27 389.08 486.7C389.32 487.43 389.63 489.18 386.4 489.89C384.76 490.25 383.06 490.25 381.42 489.9C379.79 489.54 378.24 488.84 376.9 487.84C374.54 485.93 374.82 482.59 372.64 480.4C371.01 478.79 368.82 478.16 367.6 476.2C366.75 474.8 367.21 473.14 367.98 471.08C368.75 469.03 369.29 467.16 370.04 467.42L369.78 468.46C370.55 470.09 375.38 471.13 377.74 470.34C379.01 473.21 380.43 476 381.99 478.72Z" fill="#263238" fill-opacity="1.000000" fill-rule="nonzero"/>
	<path id="Vector" d="M383.89 481.12C383.24 480.36 382.59 479.57 381.99 478.72C380.75 476.66 379.65 474.53 378.68 472.33C378.05 471.02 377.94 469.52 378.37 468.13L379.96 462.75L371.57 460.82L369.76 468.36C369.36 470.08 370.61 471.78 372.89 474.27C375.17 476.76 377.8 482.24 379.88 483.8C381.96 485.35 383.67 485.5 384.73 484.97C385.79 484.44 386.06 483.95 383.89 481.12Z" fill="#FFA8A7" fill-opacity="1.000000" fill-rule="nonzero"/>
	<path id="Vector" d="M359.42 483.46L359.42 482.27C359.9 483.67 362.05 489.63 365.32 492.62C367.94 494.98 371.49 497.74 372.38 500.38C373.28 503.02 367.45 504.06 365.02 503.62C361.77 503.08 358.79 501.48 356.54 499.08C355.14 497.36 354.25 495.32 353.24 493.96C352.24 492.6 349.94 491.16 349.41 489.54C349.24 488.08 349.4 486.6 349.87 485.21C350.26 483.81 350.67 482.15 351.17 482.27L351.17 483.25C352.37 484.18 353.85 484.68 355.37 484.65C356.51 484.65 359.44 484.38 359.42 483.46Z" fill="#263238" fill-opacity="1.000000" fill-rule="nonzero"/>
	<path id="Vector" d="M367.69 494.7L365.32 492.6C363.13 490.28 361.42 487.55 360.29 484.56C359.72 483.19 359.42 481.71 359.42 480.22L359.42 475.5L351.17 475.5L351.17 483.17L351.17 483.38C351.56 485.1 355.37 489.65 357.51 492.63C359.26 495.19 361.94 496.98 364.97 497.61C368.12 498.03 369.76 497.05 367.69 494.7Z" fill="#FFA8A7" fill-opacity="1.000000" fill-rule="nonzero"/>
	<path id="Vector" d="M352.81 355.15C346.42 369.14 353.05 418.37 353.05 418.37C352.85 420.65 350.25 425.11 349.3 435.15C348.15 446.95 351.09 476.57 351.09 476.57C352.35 477.31 353.78 477.73 355.24 477.78C356.7 477.84 358.16 477.54 359.48 476.9C359.48 476.9 367.35 432.28 368.83 420.55L373.56 382.91L380.55 419.64C378.68 422.52 377.13 425.6 375.94 428.81C374.27 434 370.9 463.56 370.9 463.56C372.04 464.6 373.4 465.37 374.88 465.8C376.36 466.24 377.91 466.33 379.43 466.06C379.43 466.06 395.58 425.51 396.31 417.24C396.74 412.27 389.5 353.17 389.5 353.17L352.81 355.15Z" fill="#37474F" fill-opacity="1.000000" fill-rule="nonzero"/>
	<path id="Vector" d="M373.5 382.85L374.62 374.77C374.62 374.77 383.42 372.95 387.4 369.18C384.65 372.4 381.05 374.8 377.01 376.09L375.84 383.89L377.24 401.97L373.5 382.85Z" fill="#263238" fill-opacity="1.000000" fill-rule="nonzero"/>
	<path id="Vector" d="M364.16 306.59C361.81 307.16 359.61 308.26 357.74 309.79C355.86 311.32 354.35 313.26 353.33 315.46C351.82 318.79 351.68 322.59 352.93 326.03L358.57 342.57C358.57 342.57 355.9 349.04 352.78 355.15C367.14 363.17 385.05 358.96 389.37 353.11C389.56 351.87 389.3 346.27 389.65 339.93C390.02 333.14 390.95 325.48 389.89 321.3C387.91 313.51 384.2 306.21 376.83 306.21L364.16 306.59Z" fill="#F03E3D" fill-opacity="1.000000" fill-rule="nonzero"/>
	<path id="Vector" d="M361.97 306.59C357.07 307.28 349.89 308.27 347.4 319.9C344.91 331.54 344.17 335.8 344.17 335.8C345.76 337.37 347.66 338.59 349.75 339.39C351.84 340.18 354.07 340.54 356.3 340.44L358.84 331.49L361.97 306.59Z" fill="#455A64" fill-opacity="1.000000" fill-rule="nonzero"/>
	<path id="Vector" d="M364.75 316.41C363.91 316.41 363.07 316.24 362.29 315.92C361.51 315.59 360.8 315.12 360.2 314.52C359.6 313.93 359.13 313.22 358.81 312.44C358.48 311.66 358.32 310.82 358.32 309.97L358.32 291.25L364.75 291.25L364.75 316.41Z" fill="#263238" fill-opacity="1.000000" fill-rule="nonzero"/>
	<path id="Vector" d="M382.73 273.58C384.68 274.72 387.07 279.6 386.83 289.82C386.63 298.49 383.82 300.65 382.41 301.26C381 301.88 378.29 301.5 375.64 301.05L375.64 306.25C375.64 306.25 379.29 310.45 379.07 312.9C378.84 315.34 373.78 315.85 370.36 313.51C368.15 311.91 366.26 309.92 364.76 307.64L364.76 295.05C364.49 295.4 364.14 295.68 363.75 295.89C363.37 296.09 362.94 296.22 362.5 296.26C362.06 296.3 361.62 296.26 361.2 296.13C360.78 296 360.39 295.78 360.05 295.5C357.13 293.56 357.02 288.76 358.72 287.11C360.43 285.46 364.08 285.94 364.76 288.31C368.22 288.16 371.58 287.15 374.55 285.38C376.75 284.2 378.64 282.51 380.06 280.46C381.49 278.41 382.4 276.05 382.73 273.58Z" fill="#FFA8A7" fill-opacity="1.000000" fill-rule="nonzero"/>
	<path id="Vector" d="M377.15 287.66C377.16 287.87 377.09 288.08 376.98 288.26C376.86 288.44 376.7 288.58 376.5 288.67C376.31 288.75 376.09 288.78 375.88 288.75C375.67 288.71 375.47 288.61 375.32 288.47C375.16 288.32 375.05 288.13 375 287.92C374.95 287.71 374.96 287.5 375.04 287.29C375.11 287.09 375.24 286.92 375.41 286.79C375.59 286.67 375.79 286.59 376.01 286.58C376.15 286.57 376.3 286.6 376.44 286.65C376.57 286.7 376.7 286.78 376.8 286.88C376.91 286.98 377 287.1 377.06 287.23C377.12 287.37 377.15 287.51 377.15 287.66Z" fill="#263238" fill-opacity="1.000000" fill-rule="nonzero"/>
	<path id="Vector" d="M377.45 295L379.98 295.81C379.93 295.98 379.85 296.14 379.75 296.28C379.64 296.42 379.5 296.53 379.35 296.62C379.19 296.7 379.02 296.76 378.85 296.77C378.67 296.79 378.5 296.77 378.33 296.72C377.99 296.6 377.71 296.35 377.54 296.04C377.38 295.72 377.34 295.34 377.45 295Z" fill="#F28F8F" fill-opacity="1.000000" fill-rule="nonzero"/>
	<path id="Vector" d="M386.09 284.3L383.89 282.78C383.98 282.63 384.11 282.5 384.25 282.4C384.39 282.3 384.56 282.23 384.73 282.19C384.9 282.16 385.08 282.16 385.25 282.19C385.42 282.23 385.58 282.3 385.72 282.4C386.02 282.61 386.22 282.92 386.29 283.28C386.36 283.63 386.28 284 386.09 284.3Z" fill="#263238" fill-opacity="1.000000" fill-rule="nonzero"/>
	<path id="Vector" d="M385.58 286.86C385.6 287.16 385.51 287.45 385.31 287.67C385.12 287.89 384.84 288.03 384.55 288.05C384.26 288.05 383.97 287.94 383.76 287.74C383.55 287.54 383.42 287.26 383.4 286.97C383.4 286.83 383.42 286.69 383.46 286.55C383.51 286.42 383.59 286.29 383.68 286.19C383.78 286.08 383.9 285.99 384.02 285.93C384.15 285.87 384.29 285.83 384.44 285.83C384.58 285.82 384.72 285.84 384.86 285.89C384.99 285.94 385.12 286.01 385.23 286.11C385.33 286.2 385.42 286.32 385.48 286.45C385.54 286.58 385.58 286.72 385.58 286.86Z" fill="#263238" fill-opacity="1.000000" fill-rule="nonzero"/>
	<path id="Vector" d="M380.44 286.25L380.62 292.8L384.07 291.73L380.44 286.25Z" fill="#F28F8F" fill-opacity="1.000000" fill-rule="nonzero"/>
	<path id="Vector" d="M375.64 301.05C372.85 300.69 367.11 299.04 366.22 296.77C366.57 297.92 367.28 298.94 368.23 299.67C369.94 301.14 375.64 302.8 375.64 302.8L375.64 301.05Z" fill="#F28F8F" fill-opacity="1.000000" fill-rule="nonzero"/>
	<path id="Vector" d="M397.61 339.95C399.19 337.02 399.58 336.89 400.53 336.25C401.48 335.6 407.23 334.74 409.62 334.53C412.42 334.29 413.44 334.81 412.66 337.24C410.47 343.34 407.82 349.25 404.71 354.93C403.96 355.94 403.8 356.86 400.64 357.17C397.48 357.47 393.97 357.61 392.88 357.68C391.79 357.75 390.28 358.02 391.26 354.8C392.51 351.17 393.95 347.61 395.58 344.13C396.85 341.49 397.61 339.95 397.61 339.95Z" fill="#37474F" fill-opacity="1.000000" fill-rule="nonzero"/>
	<path id="Vector" d="M355 344.09C355 344.09 380.58 346.79 383.89 345.77C387.21 344.75 391.65 341.44 394.04 340.07C396.44 338.7 398.16 338.58 398.16 339.14C398.16 339.7 396.11 342.85 395.64 344.13C395.16 345.42 397.85 345.43 401.34 344.62C404.84 343.81 406.25 341.83 407.17 342.97C408.1 344.12 405.23 349.97 399.41 352.16C393.6 354.36 389.28 352.9 384.47 353.1C379.66 353.29 352.11 355.45 345.44 353.35C345.26 352.28 345.39 351.18 345.79 350.18C346.2 349.17 346.88 348.3 347.75 347.66C349.9 346 352.37 344.78 355 344.09Z" fill="#FFA8A7" fill-opacity="1.000000" fill-rule="nonzero"/>
	<path id="Vector" d="M356.85 337.52C357.95 334.55 358.88 331.52 359.65 328.45C359.65 328.45 359.18 335.2 357.28 338.82L356.85 337.52Z" fill="#37474F" fill-opacity="1.000000" fill-rule="nonzero"/>
	<path id="Vector" d="M149.92 254.36L145.37 264.18L153.83 271.42L161.14 259.08L149.92 254.36Z" fill="#F28F8F" fill-opacity="1.000000" fill-rule="nonzero"/>
	<path id="Vector" d="M170.78 231.91C165.38 231.91 159.44 233.94 157.4 238.16C155.36 242.38 149.01 255.57 149.01 255.57C149.01 255.57 153.78 262.56 161.34 262.06L170.78 231.91Z" fill="#37474F" fill-opacity="1.000000" fill-rule="nonzero"/>
	<path id="Vector" d="M186.72 387.66L194.19 387.66L194.19 398.53L186.72 398.53L186.72 387.66Z" fill="#FFA8A7" fill-opacity="1.000000" fill-rule="evenodd"/>
	<path id="Vector" d="M160.47 374.48L167.93 374.22L168.31 385.08L160.85 385.34L160.47 374.48Z" fill="#FFA8A7" fill-opacity="1.000000" fill-rule="evenodd"/>
	<path id="Vector" d="M193.68 281.59C193.68 288.72 194.61 334.81 194.61 334.81C194.79 336.85 196.7 340.64 196.28 348.51C195.73 359.21 194.8 388.92 194.8 388.92C194.8 388.92 191.31 392.39 186.41 388.92C186.41 388.92 179.65 348.54 178.32 337.94C177.14 328.7 175.17 303.57 175.17 303.57L168.25 333.14C168.25 333.14 169.47 340.14 169.75 345C170.03 349.87 168.47 378.27 168.47 378.27C167.26 379.02 165.88 379.45 164.45 379.5C163.03 379.56 161.61 379.24 160.35 378.57C160.35 378.57 154.36 337.16 153.6 332.72C152.83 328.29 158.84 281.59 158.84 281.59L193.68 281.59Z" fill="#37474F" fill-opacity="1.000000" fill-rule="nonzero"/>
	<path id="Vector" d="M182.46 232.24L182.57 232.24C185.77 233.05 188.61 234.9 190.64 237.51C192.67 240.12 193.76 243.33 193.75 246.63L193.75 281.59C188.52 287.28 170.29 289.98 158.8 281.59L158.8 245.23C158.8 239.43 162.03 232.44 170.93 231.92L182.46 232.24Z" fill="#02897A" fill-opacity="1.000000" fill-rule="nonzero"/>
	<path id="Vector" d="M184.97 202.5C185.57 202.44 186.18 202.51 186.75 202.71C187.32 202.91 187.83 203.23 188.26 203.66C189.66 205.06 189.38 207.79 188.26 213.93L183.9 214.43L184.97 202.5Z" fill="#263238" fill-opacity="1.000000" fill-rule="nonzero"/>
	<path id="Vector" d="M159.51 200.8C158.57 200.8 157.65 200.61 156.78 200.25C155.39 199.48 155.09 201.01 155.82 202.32C156.31 203.27 157.03 204.08 157.92 204.67C158.81 205.26 159.83 205.61 160.89 205.69C160.89 205.51 162.14 202.29 162.14 202.29L159.51 200.8Z" fill="#263238" fill-opacity="1.000000" fill-rule="nonzero"/>
	<path id="Vector" d="M182.92 214.43C183.57 214.82 184.5 213.58 185.29 212.74C185.61 212.37 186.01 212.1 186.46 211.93C186.91 211.77 187.39 211.72 187.87 211.8C188.34 211.88 188.78 212.07 189.16 212.37C189.53 212.67 189.83 213.06 190.01 213.51C191.4 216.3 188.31 220.02 186.55 221.24C186.06 221.67 185.44 221.93 184.79 221.99C184.13 222.05 183.48 221.9 182.92 221.56L182.46 232.24C181.67 233.96 180.48 235.45 178.98 236.59C177.48 237.73 175.72 238.48 173.86 238.77C167.58 239.63 168.88 234.45 170.93 231.91L170.93 228.02C169.37 228.36 167.76 228.45 166.17 228.27C165.34 228.05 163.37 225.69 162.12 223.04C160.73 220.08 158.36 214.82 160.46 205.91C162.71 196.34 173.05 196.04 179.11 199.9C185.18 203.76 182.92 214.43 182.92 214.43Z" fill="#FFA8A7" fill-opacity="1.000000" fill-rule="nonzero"/>
	<path id="Vector" d="M182.92 215.52C183.25 215.52 184.48 213.48 185.29 212.72C186.41 211.7 184.97 202.49 184.97 202.49C184.97 202.49 186.11 199.01 183.9 196.69C181.69 194.36 177.39 194.76 174.26 194.64C170.42 194.67 166.61 193.9 163.08 192.39C158.63 190.46 158.29 190.24 157.75 192.18C157.32 193.79 157.26 195.48 157.59 197.12C157.92 198.75 158.62 200.29 159.64 201.61L161.84 202.42C161.84 202.42 163.03 203.48 167.19 203.98C171.02 204.27 174.86 204.2 178.68 203.78C179.88 203.61 180.08 204.77 180.79 207.97C181.35 210.77 181.83 215.51 182.92 215.52Z" fill="#263238" fill-opacity="1.000000" fill-rule="nonzero"/>
	<path id="Vector" d="M184.96 203.23L188.89 201.12C188.76 200.85 188.59 200.62 188.37 200.42C188.15 200.23 187.89 200.08 187.62 199.99C187.34 199.9 187.05 199.87 186.75 199.89C186.46 199.92 186.18 200 185.92 200.14C185.4 200.43 185 200.92 184.82 201.49C184.64 202.07 184.69 202.69 184.96 203.23Z" fill="#263238" fill-opacity="1.000000" fill-rule="nonzero"/>
	<path id="Vector" d="M170.95 228.02C173.63 227.52 176.25 226.76 178.79 225.77C179.99 225.14 180.96 224.17 181.59 222.97C181.28 224.16 180.74 225.27 179.99 226.25C178.51 228.15 170.93 229.55 170.93 229.55L170.95 228.02Z" fill="#F28F8F" fill-opacity="1.000000" fill-rule="nonzero"/>
	<path id="Vector" d="M172.35 212.98C172.35 213.21 172.43 213.43 172.56 213.62C172.69 213.81 172.88 213.96 173.09 214.04C173.31 214.13 173.55 214.14 173.77 214.1C174 214.05 174.2 213.93 174.37 213.76C174.53 213.6 174.63 213.39 174.68 213.16C174.72 212.93 174.69 212.7 174.6 212.48C174.51 212.27 174.35 212.09 174.16 211.96C173.97 211.84 173.74 211.77 173.51 211.77C173.19 211.78 172.9 211.91 172.68 212.14C172.46 212.36 172.34 212.66 172.35 212.98Z" fill="#263238" fill-opacity="1.000000" fill-rule="nonzero"/>
	<path id="Vector" d="M173.58 208.59L176.08 209.98C176.25 209.64 176.29 209.24 176.18 208.87C176.07 208.51 175.82 208.19 175.49 208C175.33 207.91 175.15 207.85 174.96 207.83C174.78 207.81 174.59 207.83 174.41 207.89C174.23 207.94 174.07 208.03 173.92 208.15C173.78 208.27 173.66 208.42 173.58 208.59Z" fill="#263238" fill-opacity="1.000000" fill-rule="nonzero"/>
	<path id="Vector" d="M172.43 220.88L169.77 221.88C169.83 222.06 169.92 222.23 170.05 222.37C170.17 222.51 170.32 222.62 170.49 222.7C170.66 222.79 170.84 222.83 171.03 222.84C171.21 222.85 171.4 222.83 171.58 222.76C171.94 222.62 172.23 222.35 172.39 221.99C172.55 221.64 172.56 221.24 172.43 220.88Z" fill="#F28F8F" fill-opacity="1.000000" fill-rule="nonzero"/>
	<path id="Vector" d="M161.96 209.55L164.21 207.79C164.1 207.64 163.96 207.51 163.8 207.41C163.64 207.31 163.47 207.24 163.28 207.21C163.1 207.19 162.91 207.19 162.72 207.24C162.54 207.29 162.37 207.37 162.22 207.48C161.92 207.73 161.72 208.08 161.67 208.46C161.63 208.85 161.73 209.24 161.96 209.55Z" fill="#263238" fill-opacity="1.000000" fill-rule="nonzero"/>
	<path id="Vector" d="M162.66 212.65C162.65 212.97 162.77 213.27 162.99 213.49C163.21 213.72 163.5 213.85 163.82 213.86C164.13 213.85 164.43 213.72 164.65 213.49C164.87 213.26 165 212.96 164.99 212.64C165.01 212.48 164.99 212.31 164.94 212.15C164.89 212 164.81 211.85 164.7 211.73C164.59 211.61 164.45 211.51 164.3 211.44C164.15 211.37 163.99 211.34 163.82 211.34C163.66 211.34 163.5 211.37 163.34 211.44C163.19 211.51 163.06 211.61 162.95 211.73C162.84 211.85 162.75 212 162.71 212.15C162.65 212.31 162.64 212.48 162.66 212.64L162.66 212.65Z" fill="#263238" fill-opacity="1.000000" fill-rule="nonzero"/>
	<path id="Vector" d="M168.6 211.55L168.21 218.55L164.56 217.31L168.6 211.55Z" fill="#F28F8F" fill-opacity="1.000000" fill-rule="nonzero"/>
	<path id="Vector" d="M186.72 394.84L186.72 393.76C186.01 394.07 184.34 400.4 181.39 403.1C179.03 405.24 175.8 407.73 175 410.09C174.21 412.45 179.48 413.95 181.67 413.56C184.23 413.11 188.66 411.31 189.77 409.64C190.87 407.98 191.4 405.52 192.3 404.29C193.19 403.06 195.29 401.7 195.78 400.29C195.93 398.97 195.78 397.63 195.35 396.37C195 395.06 194.63 393.58 194.19 393.73C194.19 393.89 194.19 394.54 194.19 394.54C193.13 395.38 191.81 395.83 190.45 395.8C189.38 395.89 186.71 395.68 186.72 394.84Z" fill="#263238" fill-opacity="1.000000" fill-rule="nonzero"/>
	<path id="Vector" d="M160.78 383.02C160.39 383.02 160.07 383.58 159.22 384.5C157.94 385.8 156.46 386.87 154.83 387.66C152.03 389.06 146.6 391.22 144.14 392.32C142.62 393.02 142.74 394.86 144.27 395.93C145.79 396.99 149.69 397.75 154.29 396.71C156.8 396.15 160.07 393.84 162.12 393.91C164.18 393.98 168.05 394.01 169.58 392.96C171.1 391.91 170.5 389.66 170.07 387.73C169.63 385.8 168.92 382.42 168.22 382.56L168.22 383.22C167.33 384.62 162.75 385.13 160.78 384.14L160.78 383.02Z" fill="#263238" fill-opacity="1.000000" fill-rule="nonzero"/>
	<path id="Vector" d="M150.8 265.66C149.22 262.71 148.83 262.59 147.88 261.94C146.92 261.3 141.18 260.43 138.79 260.24C135.99 260 134.97 260.52 135.75 262.94C137.92 269.03 140.56 274.95 143.64 280.64C144.39 281.63 144.55 282.55 147.71 282.86C150.87 283.17 154.38 283.31 155.47 283.38C156.56 283.45 158.07 283.72 157.09 280.5C155.84 276.87 154.4 273.31 152.77 269.83C151.62 267.19 150.8 265.66 150.8 265.66Z" fill="#37474F" fill-opacity="1.000000" fill-rule="nonzero"/>
	<path id="Vector" d="M208.11 274.53C208.04 273.6 205.32 263.17 203.92 258.35L193.68 261.87L196.09 269.47L205.09 278.79C206.05 278.6 206.89 278.06 207.46 277.26C208.02 276.47 208.25 275.49 208.11 274.53Z" fill="#FFA8A7" fill-opacity="1.000000" fill-rule="nonzero"/>
	<path id="Vector" d="M196.05 269.47C196.05 269.47 167.83 272.49 164.52 271.47C161.2 270.45 156.75 267.13 154.36 265.76C151.97 264.39 150.25 264.28 150.25 264.85C150.25 265.43 152.29 268.54 152.77 269.83C153.25 271.12 150.56 271.13 147.07 270.32C143.57 269.51 142.16 267.52 141.23 268.67C140.31 269.82 143.18 275.66 148.99 277.86C154.81 280.05 159.13 278.6 163.94 278.79C168.75 278.99 198.38 280.89 205.05 278.79C205.23 277.73 205.11 276.63 204.7 275.63C204.29 274.63 203.62 273.76 202.74 273.12C200.75 271.51 198.48 270.27 196.05 269.47Z" fill="#FFA8A7" fill-opacity="1.000000" fill-rule="nonzero"/>
	<path id="Vector" d="M184.82 233.04C189.25 234.51 198.05 235.25 200.89 244.84C203.72 254.43 205.15 260.66 205.15 260.66C203.47 262.89 196.76 265.48 193.68 264.52L184.82 233.04Z" fill="#455A64" fill-opacity="1.000000" fill-rule="nonzero"/>
	<path id="Vector" d="M193.68 264.52L190.65 253.75L193.68 268.91L193.68 264.52Z" fill="#37474F" fill-opacity="1.000000" fill-rule="nonzero"/>
	<path id="Vector" d="M130.03 287.14C129.89 287.32 128.71 289.29 128.71 289.29L123.24 297.12L117.91 305.11C117.74 305.35 117.5 305.54 117.22 305.63C116.94 305.73 116.64 305.74 116.36 305.65L116 305.53C114.15 304.84 111.38 303.68 107.7 301.99C104.75 300.59 104.91 300.19 104.91 299.68C104.87 299.28 104.87 298.88 104.91 298.48C105.51 297.33 107.37 294.47 109.87 290.85C114.32 284.39 116.46 281.52 117.79 279.66C117.97 279.39 118.25 279.19 118.57 279.11C118.89 279.02 119.23 279.06 119.53 279.2C121.92 280 126.78 282.08 129.32 283.11L129.43 283.11C130.8 283.85 130.05 287.08 130.03 287.14Z" fill="#37474F" fill-opacity="1.000000" fill-rule="nonzero"/>
	<path id="Vector" d="M130.17 286.89L128.78 289.29L123.43 297.28L117.84 305.07C117.67 305.31 117.43 305.49 117.15 305.59C116.87 305.69 116.57 305.7 116.29 305.61L115.93 305.49C114.08 304.8 111.31 303.64 107.63 301.95C104.68 300.55 104.84 300.14 104.84 299.64C104.8 299.24 104.8 298.84 104.84 298.44C107.63 299.67 116.48 303.86 116.78 303.71C117.48 303.37 123.48 293.75 126.66 288.85C128.26 286.4 128.97 285.36 129.46 284.53C129.55 284.43 129.62 284.31 129.66 284.18C129.7 284.05 129.71 283.91 129.69 283.78C129.67 283.65 129.62 283.52 129.55 283.41C129.48 283.29 129.38 283.2 129.27 283.13L129.15 283.13C129.47 283.29 129.74 283.53 129.94 283.82C130.15 284.11 130.29 284.44 130.34 284.79C130.49 285.13 130.56 285.5 130.53 285.86C130.5 286.23 130.38 286.58 130.17 286.89Z" fill="#37474F" fill-opacity="1.000000" fill-rule="nonzero"/>
	<g opacity="0.100000">
		<path id="Vector" d="M130.17 286.89L128.78 289.29L123.43 297.28L117.84 305.07C117.67 305.31 117.43 305.49 117.15 305.59C116.87 305.69 116.57 305.7 116.29 305.61L115.93 305.49C114.08 304.8 111.31 303.64 107.63 301.95C104.68 300.55 104.84 300.14 104.84 299.64C104.8 299.24 104.8 298.84 104.84 298.44C107.63 299.67 116.48 303.86 116.78 303.71C117.48 303.37 123.48 293.75 126.66 288.85C128.26 286.4 128.97 285.36 129.46 284.53C129.55 284.43 129.62 284.31 129.66 284.18C129.7 284.05 129.71 283.91 129.69 283.78C129.67 283.65 129.62 283.52 129.55 283.41C129.48 283.29 129.38 283.2 129.27 283.13L129.15 283.13C129.47 283.29 129.74 283.53 129.94 283.82C130.15 284.11 130.29 284.44 130.34 284.79C130.49 285.13 130.56 285.5 130.53 285.86C130.5 286.23 130.38 286.58 130.17 286.89Z" fill="#000000" fill-opacity="1.000000" fill-rule="nonzero"/>
	</g>
	<path id="Vector" d="M117.85 281.49L127.67 285.6L117.21 301.15L107.45 296.66L117.85 281.49Z" fill="#FAFAFA" fill-opacity="1.000000" fill-rule="nonzero"/>
	<path id="Vector" d="M115.1 335.67C117.79 334.91 121.84 324.92 124.89 313.6C127.94 302.27 129.54 299.77 129.64 296.2C129.74 292.64 129.49 287.95 129.49 287.95L124.18 295.71C123.94 294.21 123.47 292.76 122.78 291.42C122.09 290.02 120.81 288.92 119.76 289.76C119.2 290.2 120.68 292.12 120.36 296.4C120.33 298.1 120.5 299.81 120.86 301.47L110.99 325.38L115.1 335.67Z" fill="#FFA8A7" fill-opacity="1.000000" fill-rule="nonzero"/>
	<path id="Vector" d="M75.37 286.09C72.26 285.21 69.61 286.87 68.15 291.84C65.57 301.18 63.7 310.71 62.55 320.34C62.13 323.79 61.66 327.98 64.96 328.31C67.47 328.56 74.75 327.16 76.02 325.9C77.72 324.25 77.42 317.6 77.42 317.6L73.64 317.6C73.64 317.6 74.45 312.35 74.69 310.76C75.53 305.4 76.77 298.65 76.77 298.65L75.37 286.09Z" fill="#F28F8F" fill-opacity="1.000000" fill-rule="nonzero"/>
	<path id="Vector" d="M93.68 281.18L92.41 292.38L81.36 293.67L82.95 278.81L93.68 281.18Z" fill="#FFA8A7" fill-opacity="1.000000" fill-rule="nonzero"/>
	<path id="Vector" d="M70.03 264.84C70.94 254.49 76.55 250.24 80.88 249.21C89.64 247.15 98.28 250.09 101.86 256.2C102.68 258.11 103.1 260.17 103.1 262.25C103.1 264.33 102.68 266.39 101.86 268.31C99.96 272.64 70.08 264.81 70.08 264.81L70.03 264.84Z" fill="#263238" fill-opacity="1.000000" fill-rule="nonzero"/>
	<path id="Vector" d="M102.4 270.4C102.4 270.4 103.98 274.67 103.56 274.99C102.91 275.23 102.21 275.35 101.51 275.35L102.4 270.4Z" fill="#FFA8A7" fill-opacity="1.000000" fill-rule="nonzero"/>
	<path id="Vector" d="M97.69 256.92C99.77 258.71 103.28 261.96 102.35 270.91C101.31 280.16 99.08 282.67 97.57 283.56C96.56 284.16 92.1 283.11 90.03 281.9C87.46 280.37 81.75 276.44 80.02 271.14C77.96 264.91 79 257.47 83.5 255.53C85.79 254.54 88.29 254.15 90.78 254.4C93.26 254.64 95.64 255.51 97.69 256.92Z" fill="#FFA8A7" fill-opacity="1.000000" fill-rule="nonzero"/>
	<path id="Vector" d="M100.26 257.16C100.31 259.64 99.8 262.09 98.76 264.34C97.73 266.59 96.2 268.57 94.29 270.15C94.29 270.15 92.99 266.78 90.1 267.55C87.2 268.32 87.3 272.14 89.37 274.21C89.91 274.8 90.6 275.22 91.37 275.43C92.14 275.65 92.96 275.63 93.72 275.4C93.31 278.04 92.07 280.49 90.18 282.39C87.17 283.08 84.03 282.91 81.11 281.89C78.19 280.88 75.62 279.06 73.68 276.65C67.29 268.98 69.18 256.78 79.16 253.19C82.69 251.77 86.56 251.4 90.29 252.1C94.03 252.8 97.49 254.56 100.26 257.16Z" fill="#263238" fill-opacity="1.000000" fill-rule="nonzero"/>
	<path id="Vector" d="M80.03 449.69L84.8 456.32C82.63 457.3 80.26 457.78 77.88 457.72C73.61 457.89 72.44 456.49 72.28 456.15C71.56 454.6 72.69 451.82 73 449.43L80.03 449.69Z" fill="#263238" fill-opacity="1.000000" fill-rule="nonzero"/>
	<path id="Vector" d="M84.51 453.12C84.51 453.12 90.28 452.74 94.29 452.24C98.31 451.73 101.45 453.63 100.52 455.33C99.58 457.02 97.37 458.35 93.94 459.52C91.02 460.51 87.5 461.23 84.44 462.14C81.37 463.04 79.29 464.16 77.51 463.53C75.53 462.85 74.72 462.05 74.84 460.61C75.28 458.56 75.81 456.53 76.45 454.53L84.51 453.12Z" fill="#263238" fill-opacity="1.000000" fill-rule="nonzero"/>
	<path id="Vector" d="M72.28 443.01C72.28 443.01 73 449.02 73.05 450.32C73.11 451.62 78.93 452.03 80.05 449.66L80.23 442.31L72.28 443.01Z" fill="#F28F8F" fill-opacity="1.000000" fill-rule="nonzero"/>
	<path id="Vector" d="M78.14 446.71L76.12 455.84C76.12 455.84 75.91 456.95 80.67 457.66C85.44 458.37 92.88 455.17 94.15 454.53C95.43 453.89 95.55 452.59 90.9 452.84C86.24 453.09 84.58 453.12 84.58 453.12L86.1 449.06L78.14 446.71Z" fill="#FFA8A7" fill-opacity="1.000000" fill-rule="nonzero"/>
	<path id="Vector" d="M72.28 324.47C68.3 330.67 64.52 336.12 63.71 343.09C62.01 357.8 67.6 374.6 68.79 385.48C66.53 388.58 65.22 392.27 65.03 396.09C65.03 400.6 72.28 443.01 72.28 443.01C72.28 443.01 77.56 444.62 80.21 442.31L85.2 364.28L82.58 354.79L72.28 324.47Z" fill="#455A64" fill-opacity="1.000000" fill-rule="nonzero"/>
	<path id="Vector" d="M85.2 364.28L82.58 354.79C77.63 353.5 72.85 351.63 68.36 349.2C68.36 349.2 71.05 354.09 78.76 356.78L82.77 368.98L83.12 396.95L85.2 364.28Z" fill="#37474F" fill-opacity="1.000000" fill-rule="nonzero"/>
	<path id="Vector" d="M72.28 324.47C70.16 327.94 65.06 333.9 66.15 339.6C67.46 346.6 71.18 351.39 82.58 354.79L93.26 393.48C93.26 393.48 87.67 398.7 86 403.65C84.34 408.6 78.14 446.71 78.14 446.71C78.14 446.71 80.04 449.82 86.06 449.06C86.06 449.06 107.03 401.25 108.43 398.18C110.22 395.03 110.85 391.35 110.21 387.79C109.54 382.78 102.4 327.94 102.4 327.94L72.28 324.47Z" fill="#455A64" fill-opacity="1.000000" fill-rule="nonzero"/>
	<path id="Vector" d="M70.34 289.56C70.77 288.42 71.58 287.46 72.63 286.84C73.68 286.23 74.91 285.99 76.12 286.18C83.57 288.2 95.16 290.87 97.36 291.52C97.36 291.52 96.36 305.88 104.95 310.94C104.54 314.14 102.36 327.94 102.36 327.94C102.36 327.94 92.04 332.95 83.55 330.49C75.07 328.03 72.21 324.47 72.21 324.47L76.41 317.55C75.5 315.3 71.99 307.65 69.73 300.55C68.94 296.9 69.15 293.1 70.34 289.56Z" fill="#FFB900" fill-opacity="1.000000" fill-rule="nonzero"/>
	<path id="Vector" d="M75.37 314.83C78.9 316.95 82.6 318.78 86.44 320.29C82.95 320.2 79.55 319.24 76.54 317.5L75.37 314.83Z" fill="#E0E0E0" fill-opacity="1.000000" fill-rule="nonzero"/>
	<path id="Vector" d="M104.77 309.86C101.72 308.46 99.21 306.11 97.62 303.15C97.88 305.42 98.66 307.6 99.9 309.53C101.14 311.45 102.8 313.05 104.77 314.23L104.77 309.86Z" fill="#E0E0E0" fill-opacity="1.000000" fill-rule="nonzero"/>
	<path id="Vector" d="M97.43 291.52C102.11 292.92 105.02 293.36 107.55 295.63C110.88 298.62 114.32 315.54 115.02 319.04C116.23 325.09 117.58 331.38 116.26 334.21C115.31 336.25 110.14 337.77 107.87 331.17C107.4 329.77 107.3 329.13 106.88 327.87C104.74 321.55 101.52 309.47 101.52 309.47C101.52 309.47 95.19 305.98 97.43 291.52Z" fill="#FFA8A7" fill-opacity="1.000000" fill-rule="nonzero"/>
	<path id="Vector" d="M74.72 253.19C73.05 254.16 70.05 255.09 68.17 263.83C66.65 271.16 65.74 278.61 65.46 286.09C65.53 288.8 71.15 296.34 83.01 295.63C94.87 294.92 99.17 287.97 99.17 287.97C99.17 287.97 93.34 285.59 93.8 275.38C93.8 275.38 91.75 279.42 86.11 277.39C80.48 275.37 74.72 253.19 74.72 253.19Z" fill="#263238" fill-opacity="1.000000" fill-rule="nonzero"/>
</svg>
